{
customParameters = (
{
name = glyphOrder;
value = (
    ".notdef",
    A,
    B,
    C,
    D,
    E,
    F,
    G,
    H,
    I,
    J,
    K,
    L,
    M,
    N,
    O,
    P,
    Q,
    R,
    S,
    T,
    U,
    V,
    W,
    X,
    Y,
    Z,
    a,
    b,
    c,
    d,
    e,
    f,
    g,
    h,
    i,
    j,
    k,
    l,
    m,
    n,
    o,
    p,
    q,
    r,
    s,
    t,
    u,
    v,
    w,
    x,
    y,
    z,
    zero,
    one,
    two,
    three,
    four,
    five,
    six,
    seven,
    eight,
    nine,
    backslash,
    bullet,
    colon,
    comma,
    exclam,
    numbersign,
    period,
    periodcentered,
    question,
    semicolon,
    slash,
    underscore,
    braceleft,
    braceright,
    bracketleft,
    bracketright,
    parenleft,
    parenright,
    emdash,
    hyphen,
    guilsinglright,
    dollar,
    divide,
    equal,
    percent,
    plus,
    bar,
    newGlyph
);
}
);
date = "2012-12-10 22:08:58 +0000";
designer = Mandy;
designerURL = "http://symb.ly";
familyName = "Zurmo Gamification Symbly Regular";
fontMaster = (
{
ascender = 800;
capHeight = 700;
customParameters = (
{
name = TypoAscender;
value = 800;
},
{
name = TypoDescender;
value = "-200";
}
);
descender = "-200";
id = "2B2FE4A8-39A2-493B-A970-B9343EE81639";
userData = {
GSCornerRadius = 15;
};
weightValue = 400;
widthValue = 5;
xHeight = 500;
}
);
glyphs = (
{
glyphname = A;
layers = (
{
layerId = "2B2FE4A8-39A2-493B-A970-B9343EE81639";
name = Regular;
paths = (
{
closed = 1;
nodes = (
"595 306 LINE",
"505 361 LINE",
"505 491 LINE",
"416 491 LINE",
"416 422 LINE",
"298 500 LINE",
"5 306 LINE",
"58 273 LINE",
"58 0 LINE",
"170 0 LINE",
"170 133 LINE SMOOTH",
"170 162 OFFCURVE",
"196 186 OFFCURVE",
"226 186 CURVE SMOOTH",
"255 186 OFFCURVE",
"281 162 OFFCURVE",
"281 133 CURVE SMOOTH",
"281 0 LINE",
"550 0 LINE",
"550 273 LINE"
);
}
);
width = 600;
}
);
unicode = 0041;
},
{
glyphname = B;
layers = (
{
layerId = "2B2FE4A8-39A2-493B-A970-B9343EE81639";
name = Regular;
paths = (
{
closed = 1;
nodes = (
"116 443 LINE SMOOTH",
"90 443 OFFCURVE",
"69 421 OFFCURVE",
"69 395 CURVE SMOOTH",
"69 293 LINE",
"0 244 LINE",
"69 194 LINE",
"69 105 LINE SMOOTH",
"69 79 OFFCURVE",
"90 57 OFFCURVE",
"116 57 CURVE SMOOTH",
"552 57 LINE SMOOTH",
"578 57 OFFCURVE",
"600 79 OFFCURVE",
"600 105 CURVE SMOOTH",
"600 395 LINE SMOOTH",
"600 421 OFFCURVE",
"578 443 OFFCURVE",
"552 443 CURVE SMOOTH"
);
}
);
width = 600;
}
);
unicode = 0042;
},
{
glyphname = C;
layers = (
{
layerId = "2B2FE4A8-39A2-493B-A970-B9343EE81639";
name = Regular;
paths = (
{
closed = 1;
nodes = (
"179 370 LINE SMOOTH",
"179 364 OFFCURVE",
"176 360 OFFCURVE",
"171 360 CURVE SMOOTH",
"49 360 LINE SMOOTH",
"44 360 OFFCURVE",
"40 364 OFFCURVE",
"40 370 CURVE SMOOTH",
"40 491 LINE SMOOTH",
"40 496 OFFCURVE",
"44 500 OFFCURVE",
"49 500 CURVE SMOOTH",
"171 500 LINE SMOOTH",
"176 500 OFFCURVE",
"179 496 OFFCURVE",
"179 491 CURVE SMOOTH"
);
},
{
closed = 1;
nodes = (
"560 370 LINE SMOOTH",
"560 364 OFFCURVE",
"556 360 OFFCURVE",
"551 360 CURVE SMOOTH",
"229 360 LINE SMOOTH",
"224 360 OFFCURVE",
"220 364 OFFCURVE",
"220 370 CURVE SMOOTH",
"220 491 LINE SMOOTH",
"220 496 OFFCURVE",
"224 500 OFFCURVE",
"229 500 CURVE SMOOTH",
"551 500 LINE SMOOTH",
"556 500 OFFCURVE",
"560 496 OFFCURVE",
"560 491 CURVE SMOOTH"
);
},
{
closed = 1;
nodes = (
"179 189 LINE SMOOTH",
"179 184 OFFCURVE",
"176 180 OFFCURVE",
"171 180 CURVE SMOOTH",
"49 180 LINE SMOOTH",
"44 180 OFFCURVE",
"40 184 OFFCURVE",
"40 189 CURVE SMOOTH",
"40 311 LINE SMOOTH",
"40 316 OFFCURVE",
"44 320 OFFCURVE",
"49 320 CURVE SMOOTH",
"171 320 LINE SMOOTH",
"176 320 OFFCURVE",
"179 316 OFFCURVE",
"179 311 CURVE SMOOTH"
);
},
{
closed = 1;
nodes = (
"560 189 LINE SMOOTH",
"560 184 OFFCURVE",
"556 180 OFFCURVE",
"551 180 CURVE SMOOTH",
"229 180 LINE SMOOTH",
"224 180 OFFCURVE",
"220 184 OFFCURVE",
"220 189 CURVE SMOOTH",
"220 311 LINE SMOOTH",
"220 316 OFFCURVE",
"224 320 OFFCURVE",
"229 320 CURVE SMOOTH",
"551 320 LINE SMOOTH",
"556 320 OFFCURVE",
"560 316 OFFCURVE",
"560 311 CURVE SMOOTH"
);
},
{
closed = 1;
nodes = (
"179 9 LINE SMOOTH",
"179 4 OFFCURVE",
"176 0 OFFCURVE",
"171 0 CURVE SMOOTH",
"49 0 LINE SMOOTH",
"44 0 OFFCURVE",
"40 4 OFFCURVE",
"40 9 CURVE SMOOTH",
"40 131 LINE SMOOTH",
"40 136 OFFCURVE",
"44 140 OFFCURVE",
"49 140 CURVE SMOOTH",
"171 140 LINE SMOOTH",
"176 140 OFFCURVE",
"179 136 OFFCURVE",
"179 131 CURVE SMOOTH"
);
},
{
closed = 1;
nodes = (
"560 9 LINE SMOOTH",
"560 4 OFFCURVE",
"556 0 OFFCURVE",
"551 0 CURVE SMOOTH",
"229 0 LINE SMOOTH",
"224 0 OFFCURVE",
"220 4 OFFCURVE",
"220 9 CURVE SMOOTH",
"220 131 LINE SMOOTH",
"220 136 OFFCURVE",
"224 140 OFFCURVE",
"229 140 CURVE SMOOTH",
"551 140 LINE SMOOTH",
"556 140 OFFCURVE",
"560 136 OFFCURVE",
"560 131 CURVE SMOOTH"
);
}
);
width = 600;
}
);
unicode = 0043;
},
{
glyphname = D;
lastChange = "2013-01-18 12:21:35 -0300";
layers = (
{
layerId = "2B2FE4A8-39A2-493B-A970-B9343EE81639";
name = Regular;
paths = (
{
closed = 1;
nodes = (
"271 313 OFFCURVE",
"271 299 OFFCURVE",
"263 291 CURVE",
"263 291 LINE",
"255 283 OFFCURVE",
"241 283 OFFCURVE",
"233 292 CURVE SMOOTH",
"175 350 LINE SMOOTH",
"166 358 OFFCURVE",
"166 372 OFFCURVE",
"174 380 CURVE",
"174 380 LINE",
"182 388 OFFCURVE",
"196 388 OFFCURVE",
"204 380 CURVE SMOOTH",
"263 321 LINE SMOOTH"
);
},
{
closed = 1;
nodes = (
"185 427 OFFCURVE",
"215 426 OFFCURVE",
"234 408 CURVE SMOOTH",
"291 351 LINE SMOOTH",
"298 343 OFFCURVE",
"301 330 OFFCURVE",
"297 326 CURVE",
"390 418 LINE",
"295 500 OFFCURVE",
"199 532 OFFCURVE",
"121 463 CURVE",
"166 417 LINE"
);
},
{
closed = 1;
nodes = (
"163 133 OFFCURVE",
"183 112 OFFCURVE",
"195 100 CURVE SMOOTH",
"314 -19 OFFCURVE",
"435 -24 OFFCURVE",
"506 48 CURVE SMOOTH",
"578 119 OFFCURVE",
"574 238 OFFCURVE",
"454 358 CURVE SMOOTH",
"442 370 OFFCURVE",
"421 391 OFFCURVE",
"421 391 CURVE SMOOTH",
"164 133 LINE SMOOTH"
);
},
{
closed = 1;
nodes = (
"225 253 OFFCURVE",
"210 256 OFFCURVE",
"203 263 CURVE SMOOTH",
"146 320 LINE SMOOTH",
"128 338 OFFCURVE",
"126 368 OFFCURVE",
"137 388 CURVE",
"91 433 LINE",
"22 355 OFFCURVE",
"54 259 OFFCURVE",
"135 164 CURVE",
"228 257 LINE"
);
}
);
width = 600;
}
);
unicode = 0044;
},
{
glyphname = E;
layers = (
{
layerId = "2B2FE4A8-39A2-493B-A970-B9343EE81639";
name = Regular;
paths = (
{
closed = 1;
nodes = (
"222 291 LINE",
"222 346 LINE SMOOTH",
"222 392 OFFCURVE",
"252 429 OFFCURVE",
"299 429 CURVE SMOOTH",
"346 429 OFFCURVE",
"376 392 OFFCURVE",
"376 346 CURVE",
"376 349 LINE",
"455 349 LINE",
"453 433 OFFCURVE",
"386 500 OFFCURVE",
"299 500 CURVE SMOOTH",
"211 500 OFFCURVE",
"144 431 OFFCURVE",
"144 346 CURVE SMOOTH",
"144 291 LINE",
"142 291 LINE SMOOTH",
"123 291 OFFCURVE",
"106 271 OFFCURVE",
"106 252 CURVE SMOOTH",
"106 22 LINE SMOOTH",
"106 4 OFFCURVE",
"123 0 OFFCURVE",
"142 0 CURVE SMOOTH",
"460 0 LINE SMOOTH",
"478 0 OFFCURVE",
"494 4 OFFCURVE",
"494 22 CURVE SMOOTH",
"494 252 LINE SMOOTH",
"494 271 OFFCURVE",
"478 291 OFFCURVE",
"460 291 CURVE SMOOTH"
);
},
{
closed = 1;
nodes = (
"455 346 LINE",
"455 349 LINE"
);
},
{
closed = 1;
nodes = (
"280 200 LINE SMOOTH",
"280 211 OFFCURVE",
"288 219 OFFCURVE",
"299 219 CURVE SMOOTH",
"311 219 OFFCURVE",
"319 211 OFFCURVE",
"319 200 CURVE SMOOTH",
"319 140 LINE",
"338 133 OFFCURVE",
"334 123 OFFCURVE",
"334 112 CURVE SMOOTH",
"334 93 OFFCURVE",
"320 78 OFFCURVE",
"301 78 CURVE SMOOTH",
"281 78 OFFCURVE",
"265 93 OFFCURVE",
"265 112 CURVE SMOOTH",
"265 123 OFFCURVE",
"280 133 OFFCURVE",
"280 140 CURVE SMOOTH"
);
}
);
width = 600;
}
);
unicode = 0045;
},
{
glyphname = F;
layers = (
{
layerId = "2B2FE4A8-39A2-493B-A970-B9343EE81639";
name = Regular;
paths = (
{
closed = 1;
nodes = (
"455 291 LINE",
"455 346 LINE SMOOTH",
"455 431 OFFCURVE",
"388 500 OFFCURVE",
"300 500 CURVE SMOOTH",
"212 500 OFFCURVE",
"144 431 OFFCURVE",
"144 346 CURVE SMOOTH",
"144 291 LINE",
"140 291 LINE SMOOTH",
"122 291 OFFCURVE",
"106 270 OFFCURVE",
"106 252 CURVE SMOOTH",
"106 21 LINE SMOOTH",
"106 3 OFFCURVE",
"122 0 OFFCURVE",
"140 0 CURVE SMOOTH",
"458 0 LINE SMOOTH",
"478 0 OFFCURVE",
"495 3 OFFCURVE",
"495 21 CURVE SMOOTH",
"495 252 LINE SMOOTH",
"495 270 OFFCURVE",
"478 291 OFFCURVE",
"458 291 CURVE SMOOTH"
);
},
{
closed = 1;
nodes = (
"376 291 LINE",
"222 291 LINE",
"222 346 LINE SMOOTH",
"222 392 OFFCURVE",
"252 428 OFFCURVE",
"299 428 CURVE SMOOTH",
"346 428 OFFCURVE",
"376 392 OFFCURVE",
"376 346 CURVE SMOOTH"
);
},
{
closed = 1;
nodes = (
"281 199 LINE SMOOTH",
"281 211 OFFCURVE",
"288 218 OFFCURVE",
"300 218 CURVE SMOOTH",
"311 218 OFFCURVE",
"319 211 OFFCURVE",
"319 199 CURVE SMOOTH",
"319 139 LINE",
"338 133 OFFCURVE",
"333 123 OFFCURVE",
"333 111 CURVE SMOOTH",
"333 92 OFFCURVE",
"319 78 OFFCURVE",
"300 78 CURVE SMOOTH",
"279 78 OFFCURVE",
"265 92 OFFCURVE",
"265 111 CURVE SMOOTH",
"265 123 OFFCURVE",
"260 133 OFFCURVE",
"281 139 CURVE"
);
}
);
width = 600;
}
);
unicode = 0046;
},
{
glyphname = G;
lastChange = "2013-01-14 17:28:04 -0300";
layers = (
{
layerId = "2B2FE4A8-39A2-493B-A970-B9343EE81639";
name = Regular;
paths = (
{
closed = 1;
nodes = (
"150 38 LINE",
"150 462 LINE",
"450 250 LINE"
);
}
);
width = 600;
}
);
unicode = 0047;
},
{
glyphname = H;
layers = (
{
layerId = "2B2FE4A8-39A2-493B-A970-B9343EE81639";
name = Regular;
paths = (
{
closed = 1;
nodes = (
"281 52 LINE",
"95 373 LINE",
"94 374 LINE",
"83 398 OFFCURVE",
"78 451 OFFCURVE",
"135 483 CURVE SMOOTH",
"192 516 OFFCURVE",
"236 485 OFFCURVE",
"250 464 CURVE",
"251 463 LINE",
"406 196 LINE",
"408 192 OFFCURVE",
"423 165 OFFCURVE",
"416 137 CURVE SMOOTH",
"412 123 OFFCURVE",
"403 110 OFFCURVE",
"388 100 CURVE",
"345 76 OFFCURVE",
"308 110 OFFCURVE",
"295 132 CURVE SMOOTH",
"187 316 LINE",
"184 323 OFFCURVE",
"186 335 OFFCURVE",
"192 338 CURVE SMOOTH",
"200 342 OFFCURVE",
"210 339 OFFCURVE",
"215 333 CURVE",
"321 147 LINE SMOOTH",
"324 142 OFFCURVE",
"345 112 OFFCURVE",
"372 127 CURVE SMOOTH",
"381 132 OFFCURVE",
"385 137 OFFCURVE",
"387 145 CURVE SMOOTH",
"390 158 OFFCURVE",
"383 175 OFFCURVE",
"381 179 CURVE",
"225 448 LINE",
"221 452 OFFCURVE",
"196 483 OFFCURVE",
"150 456 CURVE SMOOTH",
"107 430 OFFCURVE",
"119 393 OFFCURVE",
"122 388 CURVE SMOOTH",
"306 67 LINE",
"311 61 OFFCURVE",
"352 4 OFFCURVE",
"425 46 CURVE SMOOTH",
"499 88 OFFCURVE",
"467 151 OFFCURVE",
"463 158 CURVE SMOOTH",
"327 396 LINE",
"322 403 OFFCURVE",
"325 412 OFFCURVE",
"333 416 CURVE",
"340 421 OFFCURVE",
"349 418 OFFCURVE",
"353 411 CURVE SMOOTH",
"490 174 LINE",
"508 140 OFFCURVE",
"522 66 OFFCURVE",
"441 20 CURVE SMOOTH",
"360 -27 OFFCURVE",
"300 20 OFFCURVE",
"281 51 CURVE"
);
}
);
width = 600;
}
);
unicode = 0048;
},
{
glyphname = I;
layers = (
{
layerId = "2B2FE4A8-39A2-493B-A970-B9343EE81639";
name = Regular;
paths = (
{
closed = 1;
nodes = (
"407 295 LINE",
"408 305 LINE",
"408 334 OFFCURVE",
"384 358 OFFCURVE",
"355 358 CURVE SMOOTH",
"326 358 OFFCURVE",
"304 334 OFFCURVE",
"304 305 CURVE SMOOTH",
"304 294 OFFCURVE",
"307 284 OFFCURVE",
"313 276 CURVE",
"249 190 LINE",
"244 192 OFFCURVE",
"238 193 OFFCURVE",
"232 193 CURVE SMOOTH",
"225 193 OFFCURVE",
"219 192 OFFCURVE",
"213 190 CURVE",
"95 330 LINE",
"100 339 OFFCURVE",
"103 348 OFFCURVE",
"103 358 CURVE SMOOTH",
"103 385 OFFCURVE",
"80 409 OFFCURVE",
"52 409 CURVE SMOOTH",
"24 409 OFFCURVE",
"0 385 OFFCURVE",
"0 358 CURVE SMOOTH",
"0 329 OFFCURVE",
"24 305 OFFCURVE",
"52 305 CURVE SMOOTH",
"59 305 OFFCURVE",
"66 306 OFFCURVE",
"72 309 CURVE",
"188 170 LINE",
"183 162 OFFCURVE",
"180 152 OFFCURVE",
"180 142 CURVE SMOOTH",
"180 114 OFFCURVE",
"203 90 OFFCURVE",
"232 90 CURVE SMOOTH",
"259 90 OFFCURVE",
"283 114 OFFCURVE",
"283 142 CURVE SMOOTH",
"283 153 OFFCURVE",
"280 162 OFFCURVE",
"274 171 CURVE",
"338 256 LINE",
"343 254 OFFCURVE",
"349 253 OFFCURVE",
"355 253 CURVE SMOOTH",
"370 253 OFFCURVE",
"383 259 OFFCURVE",
"392 268 CURVE",
"498 210 LINE",
"497 202 LINE",
"497 173 OFFCURVE",
"520 150 OFFCURVE",
"548 150 CURVE SMOOTH",
"576 150 OFFCURVE",
"600 173 OFFCURVE",
"600 202 CURVE SMOOTH",
"600 230 OFFCURVE",
"576 253 OFFCURVE",
"548 253 CURVE SMOOTH",
"534 253 OFFCURVE",
"522 248 OFFCURVE",
"513 239 CURVE"
);
}
);
width = 600;
}
);
unicode = 0049;
},
{
glyphname = J;
layers = (
{
layerId = "2B2FE4A8-39A2-493B-A970-B9343EE81639";
name = Regular;
paths = (
{
closed = 1;
nodes = (
"244 204 LINE",
"282 187 LINE",
"282 166 LINE SMOOTH",
"282 161 OFFCURVE",
"292 154 OFFCURVE",
"292 151 CURVE SMOOTH",
"292 147 OFFCURVE",
"282 142 OFFCURVE",
"282 137 CURVE SMOOTH",
"282 123 LINE SMOOTH",
"282 118 OFFCURVE",
"297 109 OFFCURVE",
"297 106 CURVE SMOOTH",
"297 100 OFFCURVE",
"282 92 OFFCURVE",
"282 87 CURVE SMOOTH",
"282 71 LINE SMOOTH",
"282 66 OFFCURVE",
"303 52 OFFCURVE",
"303 45 CURVE SMOOTH",
"303 42 OFFCURVE",
"296 35 OFFCURVE",
"290 31 CURVE",
"292 26 OFFCURVE",
"306 0 OFFCURVE",
"322 0 CURVE SMOOTH",
"337 0 OFFCURVE",
"354 31 OFFCURVE",
"354 31 CURVE",
"354 251 LINE SMOOTH",
"354 261 OFFCURVE",
"365 270 OFFCURVE",
"372 277 CURVE",
"405 298 OFFCURVE",
"422 336 OFFCURVE",
"422 379 CURVE SMOOTH",
"422 446 OFFCURVE",
"367 500 OFFCURVE",
"299 500 CURVE SMOOTH",
"232 500 OFFCURVE",
"178 446 OFFCURVE",
"178 379 CURVE SMOOTH",
"178 339 OFFCURVE",
"188 304 OFFCURVE",
"226 282 CURVE",
"226 282 OFFCURVE",
"244 265 OFFCURVE",
"244 249 CURVE SMOOTH"
);
},
{
closed = 1;
nodes = (
"335 465 OFFCURVE",
"365 443 OFFCURVE",
"365 431 CURVE SMOOTH",
"365 419 OFFCURVE",
"335 408 OFFCURVE",
"299 408 CURVE SMOOTH",
"263 408 OFFCURVE",
"233 419 OFFCURVE",
"233 431 CURVE SMOOTH",
"233 443 OFFCURVE",
"263 465 OFFCURVE",
"299 465 CURVE SMOOTH"
);
}
);
width = 600;
}
);
unicode = 004A;
},
{
glyphname = K;
layers = (
{
layerId = "2B2FE4A8-39A2-493B-A970-B9343EE81639";
name = Regular;
paths = (
{
closed = 1;
nodes = (
"364 417 LINE",
"387 421 OFFCURVE",
"410 441 OFFCURVE",
"415 449 CURVE",
"420 459 OFFCURVE",
"426 472 OFFCURVE",
"426 474 CURVE SMOOTH",
"426 487 OFFCURVE",
"362 499 OFFCURVE",
"301 499 CURVE",
"301 498 LINE",
"239 496 OFFCURVE",
"176 487 OFFCURVE",
"176 473 CURVE SMOOTH",
"176 471 OFFCURVE",
"180 458 OFFCURVE",
"185 449 CURVE",
"190 441 OFFCURVE",
"213 421 OFFCURVE",
"236 417 CURVE",
"219 261 LINE",
"220 261 LINE",
"196 256 OFFCURVE",
"174 229 OFFCURVE",
"171 217 CURVE",
"167 205 OFFCURVE",
"165 192 OFFCURVE",
"165 191 CURVE SMOOTH",
"165 176 OFFCURVE",
"219 165 OFFCURVE",
"301 165 CURVE SMOOTH",
"381 165 OFFCURVE",
"435 176 OFFCURVE",
"435 191 CURVE SMOOTH",
"435 192 OFFCURVE",
"434 205 OFFCURVE",
"430 217 CURVE SMOOTH",
"426 229 OFFCURVE",
"404 256 OFFCURVE",
"381 261 CURVE"
);
},
{
closed = 1;
nodes = (
"299 153 LINE SMOOTH",
"291 153 OFFCURVE",
"283 151 OFFCURVE",
"273 151 CURVE",
"301 0 LINE",
"328 151 LINE",
"318 151 OFFCURVE",
"309 153 OFFCURVE",
"301 153 CURVE SMOOTH"
);
}
);
width = 600;
}
);
unicode = 004B;
},
{
glyphname = L;
layers = (
{
layerId = "2B2FE4A8-39A2-493B-A970-B9343EE81639";
name = Regular;
paths = (
{
closed = 1;
nodes = (
"448 234 LINE",
"449 234 LINE",
"465 277 OFFCURVE",
"473 293 OFFCURVE",
"473 326 CURVE SMOOTH",
"473 421 OFFCURVE",
"396 500 OFFCURVE",
"300 500 CURVE SMOOTH",
"204 500 OFFCURVE",
"127 421 OFFCURVE",
"127 324 CURVE SMOOTH",
"127 291 OFFCURVE",
"135 277 OFFCURVE",
"151 234 CURVE",
"152 234 LINE",
"156 229 OFFCURVE",
"159 224 OFFCURVE",
"163 220 CURVE",
"279 12 LINE",
"279 12 OFFCURVE",
"288 0 OFFCURVE",
"300 0 CURVE SMOOTH",
"312 0 OFFCURVE",
"321 12 OFFCURVE",
"321 12 CURVE",
"437 221 LINE"
);
},
{
closed = 1;
nodes = (
"337 393 OFFCURVE",
"367 363 OFFCURVE",
"367 327 CURVE SMOOTH",
"367 290 OFFCURVE",
"337 260 OFFCURVE",
"300 260 CURVE SMOOTH",
"263 260 OFFCURVE",
"233 290 OFFCURVE",
"233 327 CURVE SMOOTH",
"233 363 OFFCURVE",
"263 393 OFFCURVE",
"300 393 CURVE SMOOTH"
);
}
);
width = 600;
}
);
unicode = 004C;
},
{
glyphname = M;
layers = (
{
layerId = "2B2FE4A8-39A2-493B-A970-B9343EE81639";
name = Regular;
paths = (
{
closed = 1;
nodes = (
"229 177 LINE",
"229 300 LINE",
"426 300 LINE",
"426 176 LINE",
"450 176 LINE",
"457 180 OFFCURVE",
"464 185 OFFCURVE",
"470 190 CURVE",
"482 185 OFFCURVE",
"495 182 OFFCURVE",
"508 182 CURVE SMOOTH",
"559 182 OFFCURVE",
"600 221 OFFCURVE",
"600 270 CURVE SMOOTH",
"600 305 OFFCURVE",
"579 335 OFFCURVE",
"548 349 CURVE",
"549 353 OFFCURVE",
"549 356 OFFCURVE",
"549 360 CURVE SMOOTH",
"549 396 OFFCURVE",
"520 425 OFFCURVE",
"483 425 CURVE SMOOTH",
"465 425 OFFCURVE",
"448 417 OFFCURVE",
"436 405 CURVE",
"417 424 OFFCURVE",
"389 436 OFFCURVE",
"359 436 CURVE SMOOTH",
"355 436 OFFCURVE",
"351 436 OFFCURVE",
"347 435 CURVE",
"333 464 OFFCURVE",
"305 483 OFFCURVE",
"272 483 CURVE SMOOTH",
"230 483 OFFCURVE",
"195 450 OFFCURVE",
"189 408 CURVE",
"184 409 OFFCURVE",
"179 409 OFFCURVE",
"173 409 CURVE SMOOTH",
"138 409 OFFCURVE",
"108 384 OFFCURVE",
"97 349 CURVE",
"89 352 OFFCURVE",
"81 354 OFFCURVE",
"72 354 CURVE SMOOTH",
"32 354 OFFCURVE",
"0 323 OFFCURVE",
"0 286 CURVE SMOOTH",
"0 248 OFFCURVE",
"32 217 OFFCURVE",
"72 217 CURVE SMOOTH",
"87 217 OFFCURVE",
"102 222 OFFCURVE",
"114 230 CURVE",
"124 206 OFFCURVE",
"160 187 OFFCURVE",
"208 177 CURVE"
);
},
{
closed = 1;
nodes = (
"231 137 LINE",
"325 15 LINE",
"325 16 LINE",
"326 15 LINE",
"420 137 LINE",
"377 137 LINE",
"377 250 LINE",
"276 250 LINE",
"276 137 LINE"
);
}
);
width = 600;
}
);
unicode = 004D;
},
{
glyphname = N;
layers = (
{
layerId = "2B2FE4A8-39A2-493B-A970-B9343EE81639";
name = Regular;
paths = (
{
closed = 1;
nodes = (
"306 319 LINE",
"325 344 LINE",
"325 342 LINE",
"326 344 LINE",
"345 318 LINE",
"357 303 LINE",
"443 191 LINE",
"452 195 OFFCURVE",
"463 200 OFFCURVE",
"470 207 CURVE",
"482 202 OFFCURVE",
"495 198 OFFCURVE",
"509 198 CURVE SMOOTH",
"559 198 OFFCURVE",
"600 239 OFFCURVE",
"600 287 CURVE SMOOTH",
"600 321 OFFCURVE",
"579 352 OFFCURVE",
"548 366 CURVE",
"549 370 OFFCURVE",
"549 373 OFFCURVE",
"549 377 CURVE SMOOTH",
"549 412 OFFCURVE",
"520 442 OFFCURVE",
"483 442 CURVE SMOOTH",
"464 442 OFFCURVE",
"448 435 OFFCURVE",
"436 422 CURVE",
"417 440 OFFCURVE",
"390 452 OFFCURVE",
"359 452 CURVE SMOOTH",
"347 452 LINE",
"333 481 OFFCURVE",
"305 500 OFFCURVE",
"273 500 CURVE SMOOTH",
"230 500 OFFCURVE",
"195 468 OFFCURVE",
"189 425 CURVE",
"184 425 OFFCURVE",
"178 426 OFFCURVE",
"174 426 CURVE SMOOTH",
"138 426 OFFCURVE",
"107 402 OFFCURVE",
"97 366 CURVE",
"90 370 OFFCURVE",
"80 371 OFFCURVE",
"72 371 CURVE SMOOTH",
"32 371 OFFCURVE",
"0 340 OFFCURVE",
"0 302 CURVE SMOOTH",
"0 264 OFFCURVE",
"32 234 OFFCURVE",
"72 234 CURVE SMOOTH",
"87 234 OFFCURVE",
"102 239 OFFCURVE",
"113 247 CURVE",
"124 223 OFFCURVE",
"161 203 OFFCURVE",
"210 194 CURVE"
);
},
{
closed = 1;
nodes = (
"420 124 LINE",
"326 247 LINE",
"326 246 LINE",
"325 247 LINE",
"231 124 LINE",
"283 124 LINE",
"283 122 LINE",
"283 0 LINE",
"369 0 LINE",
"369 122 LINE",
"369 124 LINE"
);
}
);
width = 600;
}
);
unicode = 004E;
},
{
glyphname = O;
layers = (
{
layerId = "2B2FE4A8-39A2-493B-A970-B9343EE81639";
name = Regular;
paths = (
{
closed = 1;
nodes = (
"150 493 LINE SMOOTH",
"72 493 OFFCURVE",
"0 428 OFFCURVE",
"0 350 CURVE SMOOTH",
"0 243 LINE SMOOTH",
"0 177 OFFCURVE",
"65 122 OFFCURVE",
"107 107 CURVE",
"107 6 LINE",
"250 107 LINE",
"452 107 LINE SMOOTH",
"530 107 OFFCURVE",
"600 165 OFFCURVE",
"600 243 CURVE SMOOTH",
"600 350 LINE SMOOTH",
"600 428 OFFCURVE",
"530 493 OFFCURVE",
"452 493 CURVE SMOOTH"
);
}
);
width = 600;
}
);
unicode = 004F;
},
{
glyphname = P;
lastChange = "2012-12-11 12:52:48 -0300";
layers = (
{
layerId = "2B2FE4A8-39A2-493B-A970-B9343EE81639";
name = Regular;
paths = (
{
closed = 1;
nodes = (
"326 417 LINE",
"254 500 LINE",
"95 500 LINE",
"28 417 LINE",
"28 0 LINE",
"572 0 LINE",
"572 417 LINE"
);
}
);
width = 600;
}
);
unicode = 0050;
},
{
glyphname = Q;
layers = (
{
layerId = "2B2FE4A8-39A2-493B-A970-B9343EE81639";
name = Regular;
paths = (
{
closed = 1;
nodes = (
"550 375 OFFCURVE",
"458 479 OFFCURVE",
"338 497 CURVE SMOOTH",
"326 499 OFFCURVE",
"313 500 OFFCURVE",
"301 500 CURVE SMOOTH",
"299 500 LINE SMOOTH",
"282 500 OFFCURVE",
"265 498 OFFCURVE",
"250 495 CURVE SMOOTH",
"136 472 OFFCURVE",
"50 371 OFFCURVE",
"50 250 CURVE SMOOTH",
"50 125 OFFCURVE",
"142 21 OFFCURVE",
"262 3 CURVE SMOOTH",
"274 1 OFFCURVE",
"286 0 OFFCURVE",
"299 0 CURVE SMOOTH",
"301 0 LINE SMOOTH",
"312 0 OFFCURVE",
"323 1 OFFCURVE",
"334 2 CURVE",
"456 19 OFFCURVE",
"550 123 OFFCURVE",
"550 250 CURVE SMOOTH"
);
},
{
closed = 1;
nodes = (
"271 346 LINE",
"290 327 LINE",
"290 268 LINE",
"233 268 LINE",
"213 288 LINE",
"98 288 LINE",
"114 374 OFFCURVE",
"184 441 OFFCURVE",
"271 453 CURVE"
);
},
{
closed = 1;
nodes = (
"386 288 LINE",
"367 268 LINE",
"310 268 LINE",
"310 327 LINE",
"328 346 LINE",
"328 453 LINE",
"416 441 OFFCURVE",
"486 374 OFFCURVE",
"502 288 CURVE"
);
},
{
closed = 1;
nodes = (
"213 230 LINE",
"233 250 LINE",
"290 250 LINE",
"290 192 LINE",
"271 173 LINE",
"271 47 LINE",
"178 60 OFFCURVE",
"105 136 OFFCURVE",
"96 230 CURVE"
);
},
{
closed = 1;
nodes = (
"328 173 LINE",
"310 192 LINE",
"310 250 LINE",
"367 250 LINE",
"386 230 LINE",
"504 230 LINE",
"500 182 OFFCURVE",
"478 139 OFFCURVE",
"446 106 CURVE SMOOTH",
"445 105 LINE SMOOTH",
"414 74 OFFCURVE",
"373 53 OFFCURVE",
"328 47 CURVE"
);
}
);
width = 600;
}
);
unicode = 0051;
},
{
glyphname = R;
layers = (
{
layerId = "2B2FE4A8-39A2-493B-A970-B9343EE81639";
name = Regular;
paths = (
{
closed = 1;
nodes = (
"499 500 LINE",
"203 500 LINE",
"90 386 LINE",
"90 0 LINE",
"499 0 LINE"
);
},
{
closed = 1;
nodes = (
"227 476 LINE",
"227 363 LINE",
"112 363 LINE"
);
}
);
width = 600;
}
);
unicode = 0052;
},
{
glyphname = S;
layers = (
{
layerId = "2B2FE4A8-39A2-493B-A970-B9343EE81639";
name = Regular;
paths = (
{
closed = 1;
nodes = (
"106 307 LINE SMOOTH",
"75 307 OFFCURVE",
"50 280 OFFCURVE",
"50 249 CURVE SMOOTH",
"50 219 OFFCURVE",
"75 192 OFFCURVE",
"106 192 CURVE SMOOTH",
"494 192 LINE SMOOTH",
"525 192 OFFCURVE",
"550 219 OFFCURVE",
"550 249 CURVE SMOOTH",
"550 280 OFFCURVE",
"525 307 OFFCURVE",
"494 307 CURVE SMOOTH"
);
}
);
width = 600;
}
);
unicode = 0053;
},
{
glyphname = T;
lastChange = "2013-01-22 15:41:26 -0300";
layers = (
{
layerId = "2B2FE4A8-39A2-493B-A970-B9343EE81639";
name = Regular;
paths = (
{
closed = 1;
nodes = (
"162 0 OFFCURVE",
"50 112 OFFCURVE",
"50 250 CURVE SMOOTH",
"50 388 OFFCURVE",
"162 500 OFFCURVE",
"300 500 CURVE SMOOTH",
"438 500 OFFCURVE",
"550 388 OFFCURVE",
"550 250 CURVE SMOOTH",
"550 112 OFFCURVE",
"438 0 OFFCURVE",
"300 0 CURVE SMOOTH"
);
},
{
closed = 1;
nodes = (
"186 456 OFFCURVE",
"94 364 OFFCURVE",
"94 250 CURVE SMOOTH",
"94 136 OFFCURVE",
"186 44 OFFCURVE",
"300 44 CURVE SMOOTH",
"414 44 OFFCURVE",
"506 136 OFFCURVE",
"506 250 CURVE SMOOTH",
"506 364 OFFCURVE",
"414 456 OFFCURVE",
"300 456 CURVE SMOOTH"
);
},
{
closed = 1;
nodes = (
"325 315 OFFCURVE",
"335 319 OFFCURVE",
"344 327 CURVE SMOOTH",
"352 336 OFFCURVE",
"356 346 OFFCURVE",
"356 357 CURVE SMOOTH",
"356 369 OFFCURVE",
"352 379 OFFCURVE",
"344 388 CURVE SMOOTH",
"335 396 OFFCURVE",
"325 400 OFFCURVE",
"314 400 CURVE SMOOTH",
"302 400 OFFCURVE",
"292 396 OFFCURVE",
"283 388 CURVE SMOOTH",
"275 379 OFFCURVE",
"271 369 OFFCURVE",
"271 357 CURVE SMOOTH",
"271 346 OFFCURVE",
"275 336 OFFCURVE",
"283 327 CURVE SMOOTH",
"292 319 OFFCURVE",
"302 315 OFFCURVE",
"314 315 CURVE SMOOTH"
);
},
{
closed = 1;
nodes = (
"319 162 OFFCURVE",
"315 156 OFFCURVE",
"310 150 CURVE SMOOTH",
"308 149 OFFCURVE",
"308 148 OFFCURVE",
"307 147 CURVE",
"307 149 OFFCURVE",
"308 152 OFFCURVE",
"309 156 CURVE SMOOTH",
"309 159 OFFCURVE",
"311 165 OFFCURVE",
"313 174 CURVE SMOOTH",
"345 291 LINE",
"316 286 LINE SMOOTH",
"311 285 OFFCURVE",
"302 283 OFFCURVE",
"289 282 CURVE SMOOTH",
"276 280 OFFCURVE",
"266 279 OFFCURVE",
"260 279 CURVE SMOOTH",
"251 278 LINE",
"251 252 LINE",
"260 252 LINE SMOOTH",
"267 251 OFFCURVE",
"271 251 OFFCURVE",
"273 250 CURVE",
"273 250 OFFCURVE",
"273 250 OFFCURVE",
"273 249 CURVE SMOOTH",
"273 249 OFFCURVE",
"273 249 OFFCURVE",
"273 248 CURVE SMOOTH",
"273 248 OFFCURVE",
"273 247 OFFCURVE",
"272 246 CURVE SMOOTH",
"250 165 LINE SMOOTH",
"248 158 OFFCURVE",
"247 153 OFFCURVE",
"246 150 CURVE SMOOTH",
"245 142 OFFCURVE",
"244 137 OFFCURVE",
"244 134 CURVE SMOOTH",
"244 120 OFFCURVE",
"250 112 OFFCURVE",
"255 108 CURVE SMOOTH",
"262 103 OFFCURVE",
"270 100 OFFCURVE",
"278 100 CURVE SMOOTH",
"292 100 OFFCURVE",
"306 106 OFFCURVE",
"318 117 CURVE SMOOTH",
"324 124 OFFCURVE",
"334 136 OFFCURVE",
"346 154 CURVE SMOOTH",
"351 161 LINE",
"328 176 LINE",
"323 169 LINE SMOOTH"
);
}
);
width = 600;
}
);
unicode = 0054;
},
{
glyphname = U;
lastChange = "2013-01-08 16:42:46 -0300";
layers = (
{
layerId = "2B2FE4A8-39A2-493B-A970-B9343EE81639";
name = Regular;
paths = (
{
closed = 1;
nodes = (
"494 458 LINE",
"494 409 LINE SMOOTH",
"494 400 OFFCURVE",
"486 393 OFFCURVE",
"477 393 CURVE SMOOTH",
"425 393 LINE SMOOTH",
"416 393 OFFCURVE",
"409 400 OFFCURVE",
"409 409 CURVE SMOOTH",
"409 458 LINE",
"191 458 LINE",
"191 409 LINE SMOOTH",
"191 400 OFFCURVE",
"184 393 OFFCURVE",
"175 393 CURVE SMOOTH",
"123 393 LINE SMOOTH",
"114 393 OFFCURVE",
"106 400 OFFCURVE",
"106 409 CURVE SMOOTH",
"106 458 LINE",
"84 458 LINE SMOOTH",
"66 458 OFFCURVE",
"52 443 OFFCURVE",
"52 425 CURVE SMOOTH",
"52 32 LINE SMOOTH",
"52 14 OFFCURVE",
"66 0 OFFCURVE",
"84 0 CURVE SMOOTH",
"516 0 LINE SMOOTH",
"534 0 OFFCURVE",
"548 14 OFFCURVE",
"548 32 CURVE SMOOTH",
"548 425 LINE SMOOTH",
"548 443 OFFCURVE",
"534 458 OFFCURVE",
"516 458 CURVE SMOOTH"
);
},
{
closed = 1;
nodes = (
"84 34 LINE",
"84 358 LINE",
"516 358 LINE",
"516 34 LINE"
);
},
{
closed = 1;
nodes = (
"171 430 OFFCURVE",
"167 426 OFFCURVE",
"162 426 CURVE SMOOTH",
"136 426 LINE SMOOTH",
"130 426 OFFCURVE",
"126 430 OFFCURVE",
"126 435 CURVE SMOOTH",
"126 490 LINE SMOOTH",
"126 495 OFFCURVE",
"130 500 OFFCURVE",
"136 500 CURVE SMOOTH",
"162 500 LINE SMOOTH",
"167 500 OFFCURVE",
"171 495 OFFCURVE",
"171 490 CURVE SMOOTH",
"171 435 LINE SMOOTH"
);
},
{
closed = 1;
nodes = (
"474 430 OFFCURVE",
"470 426 OFFCURVE",
"464 426 CURVE SMOOTH",
"438 426 LINE SMOOTH",
"433 426 OFFCURVE",
"429 430 OFFCURVE",
"429 435 CURVE SMOOTH",
"429 490 LINE SMOOTH",
"429 495 OFFCURVE",
"433 500 OFFCURVE",
"438 500 CURVE SMOOTH",
"464 500 LINE SMOOTH",
"470 500 OFFCURVE",
"474 495 OFFCURVE",
"474 490 CURVE SMOOTH",
"474 435 LINE SMOOTH"
);
},
{
closed = 1;
nodes = (
"171 216 OFFCURVE",
"183 221 OFFCURVE",
"197 221 CURVE SMOOTH",
"212 221 OFFCURVE",
"225 216 OFFCURVE",
"235 206 CURVE SMOOTH",
"245 197 OFFCURVE",
"250 185 OFFCURVE",
"250 170 CURVE SMOOTH",
"250 153 OFFCURVE",
"246 140 OFFCURVE",
"237 129 CURVE SMOOTH",
"228 118 OFFCURVE",
"216 113 OFFCURVE",
"200 113 CURVE SMOOTH",
"181 113 OFFCURVE",
"166 122 OFFCURVE",
"154 139 CURVE SMOOTH",
"143 156 OFFCURVE",
"137 177 OFFCURVE",
"137 202 CURVE SMOOTH",
"137 228 OFFCURVE",
"143 250 OFFCURVE",
"155 268 CURVE SMOOTH",
"167 286 OFFCURVE",
"183 295 OFFCURVE",
"203 295 CURVE SMOOTH",
"218 295 OFFCURVE",
"230 293 OFFCURVE",
"240 288 CURVE",
"237 270 LINE",
"225 275 OFFCURVE",
"214 277 OFFCURVE",
"204 277 CURVE SMOOTH",
"190 277 OFFCURVE",
"179 270 OFFCURVE",
"171 257 CURVE SMOOTH",
"164 244 OFFCURVE",
"160 228 OFFCURVE",
"160 207 CURVE"
);
},
{
closed = 1;
nodes = (
"160 175 OFFCURVE",
"164 161 OFFCURVE",
"171 149 CURVE SMOOTH",
"179 137 OFFCURVE",
"188 131 OFFCURVE",
"199 131 CURVE SMOOTH",
"208 131 OFFCURVE",
"215 134 OFFCURVE",
"220 141 CURVE SMOOTH",
"225 147 OFFCURVE",
"228 156 OFFCURVE",
"228 168 CURVE SMOOTH",
"228 179 OFFCURVE",
"225 187 OFFCURVE",
"220 194 CURVE SMOOTH",
"214 200 OFFCURVE",
"206 203 OFFCURVE",
"196 203 CURVE SMOOTH",
"183 203 OFFCURVE",
"171 199 OFFCURVE",
"160 190 CURVE"
);
},
{
closed = 1;
nodes = (
"279 113 LINE",
"261 113 LINE",
"339 295 LINE",
"358 295 LINE"
);
},
{
closed = 1;
nodes = (
"443 207 OFFCURVE",
"452 202 OFFCURVE",
"458 194 CURVE SMOOTH",
"465 186 OFFCURVE",
"468 177 OFFCURVE",
"468 167 CURVE SMOOTH",
"468 152 OFFCURVE",
"462 139 OFFCURVE",
"450 129 CURVE SMOOTH",
"437 118 OFFCURVE",
"423 113 OFFCURVE",
"406 113 CURVE SMOOTH",
"391 113 OFFCURVE",
"379 116 OFFCURVE",
"367 122 CURVE",
"371 139 LINE",
"383 133 OFFCURVE",
"395 131 OFFCURVE",
"407 131 CURVE SMOOTH",
"418 131 OFFCURVE",
"427 134 OFFCURVE",
"435 141 CURVE SMOOTH",
"442 147 OFFCURVE",
"446 156 OFFCURVE",
"446 166 CURVE SMOOTH",
"446 176 OFFCURVE",
"442 184 OFFCURVE",
"434 191 CURVE SMOOTH",
"426 197 OFFCURVE",
"414 200 OFFCURVE",
"401 200 CURVE SMOOTH",
"395 200 LINE",
"395 217 LINE",
"397 217 LINE SMOOTH",
"410 217 OFFCURVE",
"421 220 OFFCURVE",
"429 226 CURVE SMOOTH",
"438 232 OFFCURVE",
"442 240 OFFCURVE",
"442 250 CURVE SMOOTH",
"442 259 OFFCURVE",
"439 265 OFFCURVE",
"433 270 CURVE SMOOTH",
"427 274 OFFCURVE",
"418 277 OFFCURVE",
"408 277 CURVE SMOOTH",
"398 277 OFFCURVE",
"388 274 OFFCURVE",
"376 269 CURVE",
"373 287 LINE",
"385 292 OFFCURVE",
"397 295 OFFCURVE",
"409 295 CURVE SMOOTH",
"425 295 OFFCURVE",
"438 290 OFFCURVE",
"449 282 CURVE SMOOTH",
"459 274 OFFCURVE",
"464 263 OFFCURVE",
"464 251 CURVE SMOOTH",
"464 242 OFFCURVE",
"461 233 OFFCURVE",
"455 226 CURVE SMOOTH",
"448 218 OFFCURVE",
"441 213 OFFCURVE",
"432 211 CURVE",
"432 210 LINE"
);
}
);
width = 600;
}
);
unicode = 0055;
},
{
glyphname = V;
layers = (
{
layerId = "2B2FE4A8-39A2-493B-A970-B9343EE81639";
name = Regular;
paths = (
{
closed = 1;
nodes = (
"425 500 LINE",
"425 0 LINE",
"311 0 LINE",
"311 500 LINE"
);
},
{
closed = 1;
nodes = (
"289 363 LINE",
"289 0 LINE",
"175 0 LINE",
"175 363 LINE"
);
},
{
closed = 1;
nodes = (
"560 295 LINE",
"560 0 LINE",
"447 0 LINE",
"447 295 LINE"
);
},
{
closed = 1;
nodes = (
"152 159 LINE",
"152 0 LINE",
"39 0 LINE",
"39 159 LINE"
);
}
);
width = 600;
}
);
unicode = 0056;
},
{
glyphname = W;
layers = (
{
layerId = "2B2FE4A8-39A2-493B-A970-B9343EE81639";
name = Regular;
paths = (
{
closed = 1;
nodes = (
"265 425 LINE",
"283 408 OFFCURVE",
"284 382 OFFCURVE",
"268 367 CURVE",
"230 327 LINE",
"213 312 OFFCURVE",
"187 313 OFFCURVE",
"170 330 CURVE SMOOTH",
"114 386 LINE SMOOTH",
"97 403 OFFCURVE",
"96 430 OFFCURVE",
"111 445 CURVE SMOOTH",
"151 484 LINE",
"165 500 OFFCURVE",
"192 499 OFFCURVE",
"210 482 CURVE"
);
},
{
closed = 1;
nodes = (
"112 433 LINE",
"112 433 OFFCURVE",
"30 290 OFFCURVE",
"185 135 CURVE SMOOTH",
"341 -20 OFFCURVE",
"502 42 OFFCURVE",
"502 42 CURVE",
"397 147 LINE",
"397 147 OFFCURVE",
"357 120 OFFCURVE",
"264 214 CURVE SMOOTH",
"171 307 OFFCURVE",
"217 327 OFFCURVE",
"217 327 CURVE"
);
},
{
closed = 1;
nodes = (
"551 141 LINE SMOOTH",
"568 124 OFFCURVE",
"569 96 OFFCURVE",
"553 82 CURVE",
"514 42 LINE SMOOTH",
"499 27 OFFCURVE",
"472 28 OFFCURVE",
"454 44 CURVE",
"399 101 LINE SMOOTH",
"383 117 OFFCURVE",
"382 144 OFFCURVE",
"396 160 CURVE",
"436 199 LINE SMOOTH",
"451 214 OFFCURVE",
"478 214 OFFCURVE",
"495 196 CURVE"
);
}
);
width = 600;
}
);
unicode = 0057;
},
{
glyphname = X;
layers = (
{
layerId = "2B2FE4A8-39A2-493B-A970-B9343EE81639";
name = Regular;
paths = (
{
closed = 1;
nodes = (
"301 275 LINE",
"330 39 LINE",
"444 53 OFFCURVE",
"532 150 OFFCURVE",
"532 268 CURVE SMOOTH",
"532 396 OFFCURVE",
"429 500 OFFCURVE",
"301 500 CURVE SMOOTH",
"173 500 OFFCURVE",
"69 396 OFFCURVE",
"69 268 CURVE SMOOTH",
"69 206 OFFCURVE",
"80 167 OFFCURVE",
"119 125 CURVE"
);
},
{
closed = 1;
nodes = (
"271 201 LINE",
"120 74 LINE",
"121 71 OFFCURVE",
"123 70 OFFCURVE",
"125 68 CURVE SMOOTH",
"170 23 OFFCURVE",
"232 0 OFFCURVE",
"293 1 CURVE"
);
},
{
closed = 1;
nodes = (
"330 37 LINE",
"330 39 LINE",
"320 38 OFFCURVE",
"311 37 OFFCURVE",
"301 37 CURVE"
);
}
);
width = 600;
}
);
unicode = 0058;
},
{
glyphname = Y;
lastChange = "2013-04-11 16:10:26 -0300";
layers = (
{
layerId = "2B2FE4A8-39A2-493B-A970-B9343EE81639";
name = Regular;
paths = (
{
closed = 1;
nodes = (
"550 211 OFFCURVE",
"519 180 OFFCURVE",
"480 180 CURVE SMOOTH",
"370 180 LINE",
"370 70 LINE SMOOTH",
"370 31 OFFCURVE",
"339 0 OFFCURVE",
"300 0 CURVE SMOOTH",
"261 0 OFFCURVE",
"230 31 OFFCURVE",
"230 70 CURVE SMOOTH",
"230 180 LINE",
"120 180 LINE SMOOTH",
"81 180 OFFCURVE",
"50 211 OFFCURVE",
"50 250 CURVE SMOOTH",
"50 289 OFFCURVE",
"81 320 OFFCURVE",
"120 320 CURVE SMOOTH",
"230 320 LINE",
"230 430 LINE SMOOTH",
"230 469 OFFCURVE",
"261 500 OFFCURVE",
"300 500 CURVE SMOOTH",
"339 500 OFFCURVE",
"370 469 OFFCURVE",
"370 430 CURVE SMOOTH",
"370 320 LINE",
"480 320 LINE SMOOTH",
"519 320 OFFCURVE",
"550 289 OFFCURVE",
"550 250 CURVE SMOOTH"
);
}
);
width = 600;
}
);
unicode = 0059;
},
{
glyphname = Z;
layers = (
{
layerId = "2B2FE4A8-39A2-493B-A970-B9343EE81639";
name = Regular;
paths = (
{
closed = 1;
nodes = (
"299 351 LINE",
"178 472 LINE SMOOTH",
"151 499 OFFCURVE",
"106 498 OFFCURVE",
"79 471 CURVE SMOOTH",
"51 444 OFFCURVE",
"50 398 OFFCURVE",
"78 371 CURVE SMOOTH",
"199 250 LINE",
"77 128 LINE SMOOTH",
"50 101 OFFCURVE",
"51 56 OFFCURVE",
"78 29 CURVE SMOOTH",
"105 1 OFFCURVE",
"149 1 OFFCURVE",
"177 28 CURVE SMOOTH",
"299 150 LINE",
"422 27 LINE SMOOTH",
"449 0 OFFCURVE",
"494 1 OFFCURVE",
"522 28 CURVE SMOOTH",
"549 55 OFFCURVE",
"550 100 OFFCURVE",
"522 128 CURVE SMOOTH",
"400 250 LINE",
"522 372 LINE SMOOTH",
"549 399 OFFCURVE",
"548 444 OFFCURVE",
"521 471 CURVE SMOOTH",
"494 499 OFFCURVE",
"448 500 OFFCURVE",
"421 472 CURVE SMOOTH"
);
}
);
width = 600;
}
);
unicode = 005A;
},
{
glyphname = a;
layers = (
{
layerId = "2B2FE4A8-39A2-493B-A970-B9343EE81639";
name = Regular;
paths = (
{
closed = 1;
nodes = (
"121 66 LINE",
"121 74 LINE",
"20 184 LINE",
"11 196 OFFCURVE",
"0 215 OFFCURVE",
"0 227 CURVE SMOOTH",
"0 246 OFFCURVE",
"11 265 OFFCURVE",
"20 274 CURVE SMOOTH",
"51 305 LINE",
"71 316 OFFCURVE",
"79 324 OFFCURVE",
"102 324 CURVE SMOOTH",
"121 324 OFFCURVE",
"130 316 OFFCURVE",
"150 293 CURVE",
"212 235 LINE",
"450 465 LINE",
"470 474 OFFCURVE",
"479 485 OFFCURVE",
"501 485 CURVE SMOOTH",
"521 485 OFFCURVE",
"529 474 OFFCURVE",
"549 465 CURVE",
"580 426 LINE",
"600 403 OFFCURVE",
"600 364 OFFCURVE",
"569 336 CURVE SMOOTH",
"290 74 LINE",
"278 66 LINE",
"239 35 LINE",
"231 26 OFFCURVE",
"220 15 OFFCURVE",
"200 15 CURVE SMOOTH",
"181 15 OFFCURVE",
"161 26 OFFCURVE",
"150 35 CURVE"
);
}
);
width = 600;
}
);
unicode = 0061;
},
{
glyphname = b;
layers = (
{
layerId = "2B2FE4A8-39A2-493B-A970-B9343EE81639";
name = Regular;
paths = (
{
closed = 1;
nodes = (
"489 635 LINE SMOOTH",
"443 635 OFFCURVE",
"416 594 OFFCURVE",
"416 547 CURVE SMOOTH",
"416 518 LINE SMOOTH",
"416 478 OFFCURVE",
"433 435 OFFCURVE",
"485 435 CURVE",
"485 376 LINE",
"556 435 LINE",
"600 435 LINE SMOOTH",
"646 435 OFFCURVE",
"684 471 OFFCURVE",
"684 518 CURVE SMOOTH",
"684 547 LINE SMOOTH",
"684 594 OFFCURVE",
"646 635 OFFCURVE",
"600 635 CURVE SMOOTH"
);
},
{
closed = 1;
nodes = (
"256 229 LINE",
"256 229 OFFCURVE",
"254 243 OFFCURVE",
"254 249 CURVE",
"206 267 OFFCURVE",
"173 315 OFFCURVE",
"173 372 CURVE SMOOTH",
"173 442 OFFCURVE",
"228 500 OFFCURVE",
"296 500 CURVE SMOOTH",
"363 500 OFFCURVE",
"419 443 OFFCURVE",
"419 372 CURVE SMOOTH",
"419 314 OFFCURVE",
"383 265 OFFCURVE",
"334 247 CURVE",
"333 229 LINE",
"387 229 LINE SMOOTH",
"436 229 OFFCURVE",
"486 146 OFFCURVE",
"486 101 CURVE SMOOTH",
"486 95 LINE SMOOTH",
"486 26 OFFCURVE",
"401 0 OFFCURVE",
"296 0 CURVE SMOOTH",
"191 0 OFFCURVE",
"105 26 OFFCURVE",
"105 95 CURVE SMOOTH",
"105 99 OFFCURVE",
"105 101 OFFCURVE",
"106 105 CURVE",
"106 110 OFFCURVE",
"108 117 OFFCURVE",
"111 122 CURVE",
"124 170 OFFCURVE",
"167 229 OFFCURVE",
"209 229 CURVE SMOOTH"
);
}
);
width = 600;
}
);
unicode = 0062;
},
{
glyphname = c;
lastChange = "2013-04-10 21:09:07 -0300";
layers = (
{
layerId = "2B2FE4A8-39A2-493B-A970-B9343EE81639";
name = Regular;
paths = (
{
closed = 1;
nodes = (
"417 17 OFFCURVE",
"390 0 OFFCURVE",
"304 0 CURVE SMOOTH",
"199 0 OFFCURVE",
"114 25 OFFCURVE",
"114 95 CURVE SMOOTH",
"114 98 OFFCURVE",
"114 102 OFFCURVE",
"115 105 CURVE",
"116 111 OFFCURVE",
"117 118 OFFCURVE",
"119 123 CURVE",
"133 170 OFFCURVE",
"176 231 OFFCURVE",
"217 231 CURVE SMOOTH",
"264 231 LINE",
"264 237 OFFCURVE",
"263 243 OFFCURVE",
"262 249 CURVE",
"215 267 OFFCURVE",
"182 315 OFFCURVE",
"182 370 CURVE SMOOTH",
"182 442 OFFCURVE",
"237 500 OFFCURVE",
"304 500 CURVE SMOOTH",
"372 500 OFFCURVE",
"427 442 OFFCURVE",
"427 370 CURVE SMOOTH",
"427 314 OFFCURVE",
"392 265 OFFCURVE",
"344 248 CURVE",
"343 243 OFFCURVE",
"342 237 OFFCURVE",
"342 231 CURVE",
"396 231 LINE SMOOTH",
"414 231 OFFCURVE",
"431 219 OFFCURVE",
"435 202 CURVE",
"407 202 LINE SMOOTH",
"368 202 OFFCURVE",
"337 170 OFFCURVE",
"337 132 CURVE SMOOTH",
"337 93 OFFCURVE",
"368 62 OFFCURVE",
"407 62 CURVE SMOOTH",
"424 62 LINE"
);
},
{
closed = 1;
nodes = (
"530 156 LINE",
"530 201 LINE SMOOTH",
"530 215 OFFCURVE",
"518 226 OFFCURVE",
"505 226 CURVE SMOOTH",
"491 226 OFFCURVE",
"480 215 OFFCURVE",
"480 201 CURVE SMOOTH",
"480 156 LINE",
"435 156 LINE SMOOTH",
"421 156 OFFCURVE",
"410 145 OFFCURVE",
"410 131 CURVE SMOOTH",
"410 117 OFFCURVE",
"421 106 OFFCURVE",
"435 106 CURVE SMOOTH",
"480 106 LINE",
"480 61 LINE SMOOTH",
"480 47 OFFCURVE",
"491 36 OFFCURVE",
"505 36 CURVE SMOOTH",
"518 36 OFFCURVE",
"530 47 OFFCURVE",
"530 61 CURVE SMOOTH",
"530 106 LINE",
"575 106 LINE SMOOTH",
"588 106 OFFCURVE",
"600 117 OFFCURVE",
"600 131 CURVE SMOOTH",
"600 145 OFFCURVE",
"588 156 OFFCURVE",
"575 156 CURVE SMOOTH"
);
}
);
width = 600;
}
);
unicode = 0063;
},
{
glyphname = d;
lastChange = "2013-04-10 21:09:31 -0300";
layers = (
{
layerId = "2B2FE4A8-39A2-493B-A970-B9343EE81639";
name = Regular;
paths = (
{
closed = 1;
nodes = (
"462 17 OFFCURVE",
"390 0 OFFCURVE",
"304 0 CURVE SMOOTH",
"199 0 OFFCURVE",
"114 25 OFFCURVE",
"114 95 CURVE SMOOTH",
"114 98 OFFCURVE",
"114 102 OFFCURVE",
"115 105 CURVE",
"116 111 OFFCURVE",
"117 118 OFFCURVE",
"119 123 CURVE",
"133 170 OFFCURVE",
"176 231 OFFCURVE",
"217 231 CURVE SMOOTH",
"264 231 LINE",
"264 237 OFFCURVE",
"263 243 OFFCURVE",
"262 249 CURVE",
"215 267 OFFCURVE",
"182 315 OFFCURVE",
"182 370 CURVE SMOOTH",
"182 442 OFFCURVE",
"237 500 OFFCURVE",
"304 500 CURVE SMOOTH",
"372 500 OFFCURVE",
"427 442 OFFCURVE",
"427 370 CURVE SMOOTH",
"427 314 OFFCURVE",
"392 265 OFFCURVE",
"344 248 CURVE",
"343 243 OFFCURVE",
"342 237 OFFCURVE",
"342 231 CURVE",
"396 231 LINE SMOOTH",
"414 231 OFFCURVE",
"433 219 OFFCURVE",
"450 202 CURVE",
"407 202 LINE SMOOTH",
"368 202 OFFCURVE",
"337 170 OFFCURVE",
"337 132 CURVE SMOOTH",
"337 93 OFFCURVE",
"368 62 OFFCURVE",
"407 62 CURVE SMOOTH",
"486 62 LINE"
);
},
{
closed = 1;
nodes = (
"600 119 OFFCURVE",
"589 108 OFFCURVE",
"575 108 CURVE SMOOTH",
"435 108 LINE SMOOTH",
"422 108 OFFCURVE",
"410 119 OFFCURVE",
"410 133 CURVE",
"410 133 LINE",
"410 146 OFFCURVE",
"422 158 OFFCURVE",
"435 158 CURVE SMOOTH",
"575 158 LINE SMOOTH",
"589 158 OFFCURVE",
"600 146 OFFCURVE",
"600 133 CURVE SMOOTH"
);
}
);
width = 600;
}
);
unicode = 0064;
},
{
glyphname = e;
layers = (
{
layerId = "2B2FE4A8-39A2-493B-A970-B9343EE81639";
name = Regular;
paths = (
{
closed = 1;
nodes = (
"255 232 LINE",
"255 232 OFFCURVE",
"254 244 OFFCURVE",
"253 249 CURVE",
"206 267 OFFCURVE",
"173 315 OFFCURVE",
"173 371 CURVE SMOOTH",
"173 442 OFFCURVE",
"228 500 OFFCURVE",
"295 500 CURVE SMOOTH",
"363 500 OFFCURVE",
"418 442 OFFCURVE",
"418 370 CURVE SMOOTH",
"418 314 OFFCURVE",
"383 265 OFFCURVE",
"334 248 CURVE",
"333 243 OFFCURVE",
"333 232 OFFCURVE",
"332 232 CURVE",
"387 232 LINE SMOOTH",
"436 232 OFFCURVE",
"485 148 OFFCURVE",
"485 102 CURVE SMOOTH",
"485 95 LINE SMOOTH",
"485 25 OFFCURVE",
"400 0 OFFCURVE",
"295 0 CURVE SMOOTH",
"190 0 OFFCURVE",
"105 25 OFFCURVE",
"105 95 CURVE SMOOTH",
"105 98 OFFCURVE",
"105 102 OFFCURVE",
"106 105 CURVE",
"106 111 OFFCURVE",
"108 118 OFFCURVE",
"110 124 CURVE SMOOTH",
"124 171 OFFCURVE",
"167 232 OFFCURVE",
"208 232 CURVE SMOOTH"
);
}
);
width = 600;
}
);
unicode = 0065;
},
{
glyphname = f;
layers = (
{
layerId = "2B2FE4A8-39A2-493B-A970-B9343EE81639";
name = Regular;
paths = (
{
closed = 1;
nodes = (
"558 191 LINE",
"559 193 LINE",
"559 225 OFFCURVE",
"525 285 OFFCURVE",
"490 285 CURVE SMOOTH",
"452 285 LINE",
"453 285 OFFCURVE",
"453 291 OFFCURVE",
"454 294 CURVE",
"487 306 OFFCURVE",
"512 339 OFFCURVE",
"512 378 CURVE SMOOTH",
"512 428 OFFCURVE",
"474 467 OFFCURVE",
"427 467 CURVE SMOOTH",
"380 467 OFFCURVE",
"341 427 OFFCURVE",
"341 377 CURVE SMOOTH",
"341 338 OFFCURVE",
"365 308 OFFCURVE",
"397 295 CURVE",
"399 285 LINE",
"366 285 LINE SMOOTH",
"349 285 OFFCURVE",
"331 266 OFFCURVE",
"318 247 CURVE",
"313 248 OFFCURVE",
"309 245 OFFCURVE",
"305 245 CURVE SMOOTH",
"254 245 LINE SMOOTH",
"254 245 OFFCURVE",
"255 257 OFFCURVE",
"256 262 CURVE",
"301 278 OFFCURVE",
"334 324 OFFCURVE",
"334 378 CURVE SMOOTH",
"334 445 OFFCURVE",
"282 500 OFFCURVE",
"219 500 CURVE SMOOTH",
"155 500 OFFCURVE",
"103 446 OFFCURVE",
"103 378 CURVE SMOOTH",
"103 326 OFFCURVE",
"135 280 OFFCURVE",
"179 263 CURVE",
"180 258 OFFCURVE",
"181 245 OFFCURVE",
"181 245 CURVE SMOOTH",
"137 245 LINE SMOOTH",
"98 245 OFFCURVE",
"57 189 OFFCURVE",
"44 144 CURVE",
"42 139 OFFCURVE",
"41 134 OFFCURVE",
"40 128 CURVE",
"40 119 LINE SMOOTH",
"40 53 OFFCURVE",
"120 0 OFFCURVE",
"219 0 CURVE SMOOTH",
"308 0 OFFCURVE",
"382 44 OFFCURVE",
"395 100 CURVE",
"405 99 OFFCURVE",
"416 98 OFFCURVE",
"427 98 CURVE SMOOTH",
"500 98 OFFCURVE",
"559 137 OFFCURVE",
"559 186 CURVE"
);
}
);
width = 600;
}
);
unicode = 0066;
},
{
glyphname = g;
layers = (
{
layerId = "2B2FE4A8-39A2-493B-A970-B9343EE81639";
name = Regular;
paths = (
{
closed = 1;
nodes = (
"600 470 LINE",
"0 470 LINE",
"0 34 LINE",
"600 34 LINE"
);
},
{
closed = 1;
nodes = (
"491 407 LINE",
"300 270 LINE",
"109 407 LINE"
);
},
{
closed = 1;
nodes = (
"45 370 LINE",
"209 261 LINE",
"45 97 LINE"
);
},
{
closed = 1;
nodes = (
"555 370 LINE",
"555 97 LINE",
"400 261 LINE"
);
},
{
closed = 1;
nodes = (
"227 243 LINE",
"300 188 LINE",
"382 243 LINE",
"536 79 LINE",
"73 79 LINE"
);
}
);
width = 600;
}
);
unicode = 0067;
},
{
glyphname = h;
layers = (
{
layerId = "2B2FE4A8-39A2-493B-A970-B9343EE81639";
name = Regular;
paths = (
{
closed = 1;
nodes = (
"600 431 LINE SMOOTH",
"600 446 OFFCURVE",
"588 457 OFFCURVE",
"573 457 CURVE SMOOTH",
"27 457 LINE SMOOTH",
"12 457 OFFCURVE",
"0 446 OFFCURVE",
"0 431 CURVE SMOOTH",
"0 70 LINE SMOOTH",
"0 55 OFFCURVE",
"12 43 OFFCURVE",
"27 43 CURVE SMOOTH",
"573 43 LINE SMOOTH",
"588 43 OFFCURVE",
"600 55 OFFCURVE",
"600 70 CURVE SMOOTH"
);
},
{
closed = 1;
nodes = (
"550 411 LINE",
"550 321 LINE",
"484 321 LINE",
"484 411 LINE"
);
},
{
closed = 1;
nodes = (
"365 321 LINE",
"365 275 LINE",
"113 275 LINE",
"113 321 LINE"
);
},
{
closed = 1;
nodes = (
"345 249 LINE",
"345 205 LINE",
"113 205 LINE",
"113 249 LINE"
);
},
{
closed = 1;
nodes = (
"229 182 LINE",
"229 139 LINE",
"113 139 LINE",
"113 182 LINE"
);
}
);
width = 600;
}
);
unicode = 0068;
},
{
glyphname = i;
layers = (
{
layerId = "2B2FE4A8-39A2-493B-A970-B9343EE81639";
name = Regular;
paths = (
{
closed = 1;
nodes = (
"553 351 LINE",
"399 500 LINE",
"198 500 LINE",
"47 351 LINE",
"47 150 LINE",
"198 0 LINE",
"399 0 LINE",
"553 150 LINE"
);
},
{
closed = 1;
nodes = (
"348 250 LINE",
"409 189 LINE",
"423 176 OFFCURVE",
"423 154 OFFCURVE",
"409 140 CURVE SMOOTH",
"395 126 OFFCURVE",
"373 126 OFFCURVE",
"360 140 CURVE",
"299 201 LINE",
"238 140 LINE SMOOTH",
"224 126 OFFCURVE",
"202 126 OFFCURVE",
"188 140 CURVE",
"175 154 OFFCURVE",
"175 176 OFFCURVE",
"188 189 CURVE SMOOTH",
"249 250 LINE",
"188 312 LINE SMOOTH",
"175 325 OFFCURVE",
"175 347 OFFCURVE",
"188 361 CURVE",
"202 374 OFFCURVE",
"224 374 OFFCURVE",
"238 361 CURVE",
"299 300 LINE",
"360 361 LINE SMOOTH",
"373 374 OFFCURVE",
"395 374 OFFCURVE",
"409 361 CURVE",
"423 347 OFFCURVE",
"423 325 OFFCURVE",
"409 312 CURVE"
);
}
);
width = 600;
}
);
unicode = 0069;
},
{
glyphname = j;
layers = (
{
layerId = "2B2FE4A8-39A2-493B-A970-B9343EE81639";
name = Regular;
paths = (
{
closed = 1;
nodes = (
"563 73 OFFCURVE",
"342 456 OFFCURVE",
"328 479 CURVE SMOOTH",
"316 500 OFFCURVE",
"286 500 OFFCURVE",
"274 479 CURVE SMOOTH",
"24 47 LINE SMOOTH",
"10 23 OFFCURVE",
"27 0 OFFCURVE",
"51 0 CURVE SMOOTH",
"552 0 LINE SMOOTH",
"577 0 OFFCURVE",
"590 25 OFFCURVE",
"579 46 CURVE"
);
},
{
closed = 1;
nodes = (
"314 144 LINE",
"286 144 LINE",
"286 153 LINE",
"283 186 OFFCURVE",
"280 221 OFFCURVE",
"276 255 CURVE SMOOTH",
"272 290 OFFCURVE",
"270 311 OFFCURVE",
"270 318 CURVE SMOOTH",
"270 326 OFFCURVE",
"273 335 OFFCURVE",
"279 341 CURVE",
"284 347 OFFCURVE",
"292 350 OFFCURVE",
"301 350 CURVE SMOOTH",
"310 350 OFFCURVE",
"317 347 OFFCURVE",
"323 341 CURVE SMOOTH",
"329 335 OFFCURVE",
"332 327 OFFCURVE",
"332 318 CURVE SMOOTH",
"332 314 OFFCURVE",
"331 303 OFFCURVE",
"326 256 CURVE SMOOTH",
"322 222 OFFCURVE",
"318 186 OFFCURVE",
"315 153 CURVE SMOOTH"
);
},
{
closed = 1;
nodes = (
"317 69 OFFCURVE",
"310 66 OFFCURVE",
"301 66 CURVE SMOOTH",
"292 66 OFFCURVE",
"284 69 OFFCURVE",
"278 76 CURVE",
"272 82 OFFCURVE",
"268 90 OFFCURVE",
"268 98 CURVE SMOOTH",
"268 107 OFFCURVE",
"272 115 OFFCURVE",
"278 121 CURVE",
"284 128 OFFCURVE",
"292 131 OFFCURVE",
"301 131 CURVE SMOOTH",
"310 131 OFFCURVE",
"317 128 OFFCURVE",
"324 121 CURVE SMOOTH",
"330 115 OFFCURVE",
"333 107 OFFCURVE",
"333 98 CURVE SMOOTH",
"333 90 OFFCURVE",
"330 82 OFFCURVE",
"324 76 CURVE SMOOTH"
);
}
);
width = 600;
}
);
unicode = 006A;
},
{
glyphname = k;
layers = (
{
layerId = "2B2FE4A8-39A2-493B-A970-B9343EE81639";
name = Regular;
paths = (
{
closed = 1;
nodes = (
"211 226 LINE",
"74 84 LINE SMOOTH",
"56 66 OFFCURVE",
"53 40 OFFCURVE",
"67 26 CURVE SMOOTH",
"79 14 LINE SMOOTH",
"93 0 OFFCURVE",
"119 3 OFFCURVE",
"137 21 CURVE SMOOTH",
"274 163 LINE",
"279 169 LINE",
"304 155 OFFCURVE",
"333 147 OFFCURVE",
"364 147 CURVE SMOOTH",
"462 147 OFFCURVE",
"541 226 OFFCURVE",
"541 323 CURVE SMOOTH",
"541 421 OFFCURVE",
"462 500 OFFCURVE",
"364 500 CURVE SMOOTH",
"267 500 OFFCURVE",
"187 421 OFFCURVE",
"187 323 CURVE SMOOTH",
"187 289 OFFCURVE",
"197 256 OFFCURVE",
"214 229 CURVE"
);
},
{
closed = 1;
nodes = (
"292 192 OFFCURVE",
"233 251 OFFCURVE",
"233 323 CURVE SMOOTH",
"233 396 OFFCURVE",
"292 454 OFFCURVE",
"364 454 CURVE SMOOTH",
"436 454 OFFCURVE",
"495 396 OFFCURVE",
"495 323 CURVE SMOOTH",
"495 251 OFFCURVE",
"436 192 OFFCURVE",
"364 192 CURVE SMOOTH"
);
},
{
closed = 1;
nodes = (
"233 172 LINE",
"162 101 LINE",
"149 114 LINE",
"220 185 LINE"
);
}
);
width = 600;
}
);
unicode = 006B;
},
{
glyphname = l;
lastChange = "2013-01-08 17:54:50 -0300";
layers = (
{
layerId = "2B2FE4A8-39A2-493B-A970-B9343EE81639";
name = Regular;
paths = (
{
closed = 1;
nodes = (
"184 500 LINE SMOOTH",
"94 500 OFFCURVE",
"42 421 OFFCURVE",
"42 331 CURVE SMOOTH",
"42 273 LINE SMOOTH",
"42 197 OFFCURVE",
"75 114 OFFCURVE",
"175 114 CURVE",
"175 0 LINE",
"311 114 LINE",
"395 114 LINE SMOOTH",
"486 114 OFFCURVE",
"558 183 OFFCURVE",
"558 273 CURVE SMOOTH",
"558 331 LINE SMOOTH",
"558 421 OFFCURVE",
"486 500 OFFCURVE",
"395 500 CURVE SMOOTH"
);
},
{
closed = 1;
nodes = (
"390 189 OFFCURVE",
"372 189 OFFCURVE",
"358 200 CURVE SMOOTH",
"299 255 LINE",
"244 203 LINE SMOOTH",
"230 190 OFFCURVE",
"211 190 OFFCURVE",
"198 203 CURVE SMOOTH",
"185 214 OFFCURVE",
"185 236 OFFCURVE",
"198 249 CURVE SMOOTH",
"254 305 LINE",
"204 360 LINE SMOOTH",
"188 371 OFFCURVE",
"188 392 OFFCURVE",
"204 401 CURVE SMOOTH",
"216 415 OFFCURVE",
"233 415 OFFCURVE",
"247 401 CURVE SMOOTH",
"299 350 LINE",
"353 408 LINE SMOOTH",
"366 419 OFFCURVE",
"388 417 OFFCURVE",
"401 408 CURVE SMOOTH",
"411 394 OFFCURVE",
"411 373 OFFCURVE",
"401 360 CURVE SMOOTH",
"346 303 LINE",
"402 249 LINE SMOOTH",
"415 234 OFFCURVE",
"415 212 OFFCURVE",
"402 200 CURVE SMOOTH"
);
}
);
width = 600;
}
);
unicode = 006C;
},
{
glyphname = m;
layers = (
{
layerId = "2B2FE4A8-39A2-493B-A970-B9343EE81639";
name = Regular;
paths = (
{
closed = 1;
nodes = (
"335 263 LINE SMOOTH",
"335 243 OFFCURVE",
"319 227 OFFCURVE",
"299 227 CURVE SMOOTH",
"279 227 OFFCURVE",
"263 243 OFFCURVE",
"263 263 CURVE SMOOTH",
"263 464 LINE SMOOTH",
"263 484 OFFCURVE",
"279 500 OFFCURVE",
"299 500 CURVE SMOOTH",
"319 500 OFFCURVE",
"335 484 OFFCURVE",
"335 464 CURVE SMOOTH"
);
},
{
closed = 1;
nodes = (
"372 341 LINE",
"408 316 OFFCURVE",
"448 267 OFFCURVE",
"448 211 CURVE SMOOTH",
"448 130 OFFCURVE",
"381 65 OFFCURVE",
"300 65 CURVE SMOOTH",
"219 65 OFFCURVE",
"152 130 OFFCURVE",
"152 211 CURVE SMOOTH",
"152 266 OFFCURVE",
"190 314 OFFCURVE",
"226 339 CURVE",
"226 410 LINE",
"153 380 OFFCURVE",
"87 303 OFFCURVE",
"87 211 CURVE SMOOTH",
"87 95 OFFCURVE",
"182 0 OFFCURVE",
"299 0 CURVE SMOOTH",
"415 0 OFFCURVE",
"512 95 OFFCURVE",
"512 211 CURVE SMOOTH",
"512 304 OFFCURVE",
"445 382 OFFCURVE",
"372 411 CURVE"
);
}
);
width = 600;
}
);
unicode = 006D;
},
{
glyphname = n;
layers = (
{
layerId = "2B2FE4A8-39A2-493B-A970-B9343EE81639";
name = Regular;
paths = (
{
closed = 1;
nodes = (
"453 281 LINE",
"449 301 OFFCURVE",
"441 320 OFFCURVE",
"430 336 CURVE",
"490 396 LINE SMOOTH",
"495 401 OFFCURVE",
"495 409 OFFCURVE",
"490 414 CURVE SMOOTH",
"464 440 LINE SMOOTH",
"459 445 OFFCURVE",
"451 445 OFFCURVE",
"446 440 CURVE SMOOTH",
"386 380 LINE",
"370 391 OFFCURVE",
"351 399 OFFCURVE",
"331 403 CURVE",
"331 488 LINE SMOOTH",
"331 494 OFFCURVE",
"326 500 OFFCURVE",
"319 500 CURVE SMOOTH",
"281 500 LINE SMOOTH",
"274 500 OFFCURVE",
"269 494 OFFCURVE",
"269 488 CURVE SMOOTH",
"269 403 LINE",
"249 399 OFFCURVE",
"230 391 OFFCURVE",
"214 380 CURVE",
"154 440 LINE SMOOTH",
"149 445 OFFCURVE",
"141 445 OFFCURVE",
"136 440 CURVE SMOOTH",
"110 414 LINE SMOOTH",
"105 409 OFFCURVE",
"105 401 OFFCURVE",
"110 396 CURVE SMOOTH",
"170 336 LINE",
"159 320 OFFCURVE",
"151 301 OFFCURVE",
"147 281 CURVE",
"63 281 LINE SMOOTH",
"56 281 OFFCURVE",
"50 276 OFFCURVE",
"50 269 CURVE SMOOTH",
"50 231 LINE SMOOTH",
"50 224 OFFCURVE",
"56 219 OFFCURVE",
"63 219 CURVE SMOOTH",
"147 219 LINE",
"151 199 OFFCURVE",
"159 180 OFFCURVE",
"170 164 CURVE",
"110 104 LINE SMOOTH",
"105 99 OFFCURVE",
"105 91 OFFCURVE",
"110 86 CURVE SMOOTH",
"136 60 LINE SMOOTH",
"141 55 OFFCURVE",
"149 55 OFFCURVE",
"154 60 CURVE SMOOTH",
"214 120 LINE",
"230 109 OFFCURVE",
"249 101 OFFCURVE",
"269 97 CURVE",
"269 13 LINE SMOOTH",
"269 6 OFFCURVE",
"274 0 OFFCURVE",
"281 0 CURVE SMOOTH",
"319 0 LINE SMOOTH",
"326 0 OFFCURVE",
"331 6 OFFCURVE",
"331 13 CURVE SMOOTH",
"331 97 LINE",
"351 101 OFFCURVE",
"370 109 OFFCURVE",
"386 120 CURVE",
"446 60 LINE SMOOTH",
"451 55 OFFCURVE",
"459 55 OFFCURVE",
"464 60 CURVE SMOOTH",
"490 86 LINE SMOOTH",
"495 91 OFFCURVE",
"495 99 OFFCURVE",
"490 104 CURVE SMOOTH",
"430 164 LINE",
"441 180 OFFCURVE",
"449 199 OFFCURVE",
"453 219 CURVE",
"538 219 LINE SMOOTH",
"544 219 OFFCURVE",
"550 224 OFFCURVE",
"550 231 CURVE SMOOTH",
"550 269 LINE SMOOTH",
"550 276 OFFCURVE",
"544 281 OFFCURVE",
"538 281 CURVE SMOOTH"
);
},
{
closed = 1;
nodes = (
"240 141 OFFCURVE",
"191 190 OFFCURVE",
"191 250 CURVE SMOOTH",
"191 310 OFFCURVE",
"240 359 OFFCURVE",
"300 359 CURVE SMOOTH",
"360 359 OFFCURVE",
"409 310 OFFCURVE",
"409 250 CURVE SMOOTH",
"409 190 OFFCURVE",
"360 141 OFFCURVE",
"300 141 CURVE SMOOTH"
);
}
);
width = 600;
}
);
unicode = 006E;
},
{
glyphname = o;
layers = (
{
layerId = "2B2FE4A8-39A2-493B-A970-B9343EE81639";
name = Regular;
paths = (
{
closed = 1;
nodes = (
"162 500 OFFCURVE",
"50 388 OFFCURVE",
"50 250 CURVE SMOOTH",
"50 112 OFFCURVE",
"162 0 OFFCURVE",
"300 0 CURVE SMOOTH",
"438 0 OFFCURVE",
"550 112 OFFCURVE",
"550 250 CURVE SMOOTH",
"550 388 OFFCURVE",
"438 500 OFFCURVE",
"300 500 CURVE SMOOTH"
);
},
{
closed = 1;
nodes = (
"187 45 OFFCURVE",
"95 137 OFFCURVE",
"95 250 CURVE SMOOTH",
"95 363 OFFCURVE",
"187 455 OFFCURVE",
"300 455 CURVE SMOOTH",
"413 455 OFFCURVE",
"505 363 OFFCURVE",
"505 250 CURVE SMOOTH",
"505 137 OFFCURVE",
"413 45 OFFCURVE",
"300 45 CURVE SMOOTH"
);
},
{
closed = 1;
nodes = (
"338 403 LINE",
"338 346 LINE",
"262 346 LINE",
"262 403 LINE"
);
},
{
closed = 1;
nodes = (
"262 95 LINE",
"262 308 LINE",
"338 308 LINE",
"338 95 LINE"
);
}
);
width = 600;
}
);
unicode = 006F;
},
{
glyphname = p;
layers = (
{
layerId = "2B2FE4A8-39A2-493B-A970-B9343EE81639";
name = Regular;
paths = (
{
closed = 1;
nodes = (
"162 500 OFFCURVE",
"50 388 OFFCURVE",
"50 250 CURVE SMOOTH",
"50 112 OFFCURVE",
"162 0 OFFCURVE",
"300 0 CURVE SMOOTH",
"438 0 OFFCURVE",
"550 112 OFFCURVE",
"550 250 CURVE SMOOTH",
"550 388 OFFCURVE",
"438 500 OFFCURVE",
"300 500 CURVE SMOOTH"
);
},
{
closed = 1;
nodes = (
"186 45 OFFCURVE",
"95 137 OFFCURVE",
"95 250 CURVE SMOOTH",
"95 363 OFFCURVE",
"186 455 OFFCURVE",
"300 455 CURVE SMOOTH",
"413 455 OFFCURVE",
"505 363 OFFCURVE",
"505 250 CURVE SMOOTH",
"505 137 OFFCURVE",
"413 45 OFFCURVE",
"300 45 CURVE SMOOTH"
);
},
{
closed = 1;
nodes = (
"200 288 LINE",
"201 345 OFFCURVE",
"239 392 OFFCURVE",
"298 392 CURVE SMOOTH",
"375 392 OFFCURVE",
"399 347 OFFCURVE",
"399 316 CURVE SMOOTH",
"399 277 OFFCURVE",
"379 262 OFFCURVE",
"362 249 CURVE SMOOTH",
"345 236 OFFCURVE",
"338 226 OFFCURVE",
"319 203 CURVE",
"319 192 LINE",
"280 192 LINE",
"280 205 LINE SMOOTH",
"280 241 OFFCURVE",
"295 256 OFFCURVE",
"311 269 CURVE",
"327 281 OFFCURVE",
"338 291 OFFCURVE",
"338 313 CURVE SMOOTH",
"338 337 OFFCURVE",
"324 345 OFFCURVE",
"303 345 CURVE SMOOTH",
"273 345 OFFCURVE",
"260 326 OFFCURVE",
"260 288 CURVE"
);
},
{
closed = 1;
nodes = (
"261 95 LINE",
"261 172 LINE",
"338 172 LINE",
"338 95 LINE"
);
}
);
width = 600;
}
);
unicode = 0070;
},
{
glyphname = q;
lastChange = "2013-04-09 19:51:50 -0300";
layers = (
{
layerId = "2B2FE4A8-39A2-493B-A970-B9343EE81639";
name = Regular;
paths = (
{
closed = 1;
nodes = (
"467 381 LINE",
"473 376 LINE",
"478 374 OFFCURVE",
"480 371 OFFCURVE",
"483 374 CURVE",
"504 392 LINE",
"504 394 OFFCURVE",
"504 399 OFFCURVE",
"501 402 CURVE SMOOTH",
"467 436 LINE SMOOTH",
"465 438 OFFCURVE",
"460 438 OFFCURVE",
"457 438 CURVE",
"439 418 LINE",
"437 415 OFFCURVE",
"439 412 OFFCURVE",
"442 407 CURVE",
"447 402 LINE",
"438 394 LINE",
"403 424 OFFCURVE",
"361 441 OFFCURVE",
"318 445 CURVE",
"318 454 LINE",
"323 454 LINE SMOOTH",
"328 454 OFFCURVE",
"336 461 OFFCURVE",
"336 464 CURVE SMOOTH",
"336 490 LINE SMOOTH",
"336 492 OFFCURVE",
"328 500 OFFCURVE",
"323 500 CURVE SMOOTH",
"277 500 LINE SMOOTH",
"274 500 OFFCURVE",
"264 492 OFFCURVE",
"264 490 CURVE SMOOTH",
"264 464 LINE SMOOTH",
"264 461 OFFCURVE",
"272 454 OFFCURVE",
"277 454 CURVE SMOOTH",
"282 454 LINE",
"282 445 LINE",
"239 441 OFFCURVE",
"197 425 OFFCURVE",
"163 395 CURVE",
"153 405 LINE",
"158 410 LINE",
"161 412 OFFCURVE",
"163 418 OFFCURVE",
"161 420 CURVE SMOOTH",
"143 438 LINE SMOOTH",
"140 441 OFFCURVE",
"135 441 OFFCURVE",
"132 436 CURVE",
"99 405 LINE SMOOTH",
"96 402 OFFCURVE",
"96 397 OFFCURVE",
"96 394 CURVE",
"117 376 LINE",
"120 374 OFFCURVE",
"122 374 OFFCURVE",
"127 379 CURVE SMOOTH",
"132 384 LINE",
"141 374 LINE",
"68 292 OFFCURVE",
"71 165 OFFCURVE",
"150 82 CURVE SMOOTH",
"233 0 OFFCURVE",
"367 0 OFFCURVE",
"449 82 CURVE SMOOTH",
"528 164 OFFCURVE",
"532 290 OFFCURVE",
"460 372 CURVE"
);
},
{
closed = 1;
nodes = (
"354 44 OFFCURVE",
"246 44 OFFCURVE",
"179 111 CURVE SMOOTH",
"109 178 OFFCURVE",
"109 289 OFFCURVE",
"179 356 CURVE SMOOTH",
"246 423 OFFCURVE",
"354 423 OFFCURVE",
"424 356 CURVE SMOOTH",
"491 289 OFFCURVE",
"491 178 OFFCURVE",
"424 111 CURVE SMOOTH"
);
},
{
closed = 1;
nodes = (
"228 363 OFFCURVE",
"171 304 OFFCURVE",
"171 235 CURVE SMOOTH",
"171 162 OFFCURVE",
"228 103 OFFCURVE",
"300 103 CURVE SMOOTH",
"372 103 OFFCURVE",
"429 162 OFFCURVE",
"429 235 CURVE SMOOTH",
"429 304 OFFCURVE",
"372 363 OFFCURVE",
"300 363 CURVE SMOOTH"
);
},
{
closed = 1;
nodes = (
"364 306 LINE",
"328 250 LINE",
"336 237 OFFCURVE",
"333 222 OFFCURVE",
"323 209 CURVE",
"310 196 OFFCURVE",
"290 196 OFFCURVE",
"277 209 CURVE SMOOTH",
"264 222 OFFCURVE",
"264 245 OFFCURVE",
"277 258 CURVE",
"287 265 OFFCURVE",
"300 268 OFFCURVE",
"310 265 CURVE"
);
}
);
width = 600;
}
);
unicode = 0071;
},
{
glyphname = r;
layers = (
{
layerId = "2B2FE4A8-39A2-493B-A970-B9343EE81639";
name = Regular;
paths = (
{
closed = 1;
nodes = (
"187 230 LINE SMOOTH",
"199 230 OFFCURVE",
"207 228 OFFCURVE",
"212 224 CURVE",
"217 221 OFFCURVE",
"291 166 OFFCURVE",
"296 159 CURVE SMOOTH",
"357 73 LINE",
"357 73 OFFCURVE",
"365 58 OFFCURVE",
"367 41 CURVE SMOOTH",
"369 26 OFFCURVE",
"377 5 OFFCURVE",
"393 3 CURVE",
"408 0 OFFCURVE",
"439 13 OFFCURVE",
"439 54 CURVE SMOOTH",
"439 67 OFFCURVE",
"437 75 OFFCURVE",
"428 97 CURVE",
"427 101 OFFCURVE",
"423 113 OFFCURVE",
"421 117 CURVE",
"412 139 LINE",
"400 162 OFFCURVE",
"395 159 OFFCURVE",
"392 186 CURVE",
"415 186 LINE SMOOTH",
"456 186 OFFCURVE",
"484 205 OFFCURVE",
"509 219 CURVE SMOOTH",
"533 233 OFFCURVE",
"545 250 OFFCURVE",
"545 273 CURVE SMOOTH",
"545 292 OFFCURVE",
"538 304 OFFCURVE",
"523 320 CURVE",
"530 330 OFFCURVE",
"532 344 OFFCURVE",
"532 353 CURVE SMOOTH",
"532 363 OFFCURVE",
"529 372 OFFCURVE",
"524 379 CURVE",
"518 386 OFFCURVE",
"511 387 OFFCURVE",
"500 390 CURVE",
"500 395 OFFCURVE",
"499 403 OFFCURVE",
"499 405 CURVE SMOOTH",
"499 431 OFFCURVE",
"485 441 OFFCURVE",
"455 444 CURVE",
"456 447 OFFCURVE",
"455 454 OFFCURVE",
"455 455 CURVE SMOOTH",
"455 484 OFFCURVE",
"415 500 OFFCURVE",
"377 499 CURVE",
"364 495 OFFCURVE",
"356 483 OFFCURVE",
"356 483 CURVE",
"338 488 OFFCURVE",
"296 486 OFFCURVE",
"260 474 CURVE",
"245 468 OFFCURVE",
"235 465 OFFCURVE",
"224 456 CURVE",
"216 450 OFFCURVE",
"209 446 OFFCURVE",
"195 431 CURVE",
"76 426 LINE",
"63 393 OFFCURVE",
"56 360 OFFCURVE",
"56 328 CURVE SMOOTH",
"56 294 OFFCURVE",
"63 254 OFFCURVE",
"78 230 CURVE"
);
}
);
width = 600;
}
);
unicode = 0072;
},
{
glyphname = s;
layers = (
{
layerId = "2B2FE4A8-39A2-493B-A970-B9343EE81639";
name = Regular;
paths = (
{
closed = 1;
nodes = (
"225 414 LINE",
"226 426 LINE",
"226 467 OFFCURVE",
"193 500 OFFCURVE",
"152 500 CURVE SMOOTH",
"111 500 OFFCURVE",
"78 467 OFFCURVE",
"78 426 CURVE SMOOTH",
"78 385 OFFCURVE",
"111 352 OFFCURVE",
"152 352 CURVE SMOOTH",
"175 352 OFFCURVE",
"196 362 OFFCURVE",
"209 379 CURVE",
"379 285 LINE",
"376 277 OFFCURVE",
"374 268 OFFCURVE",
"374 259 CURVE SMOOTH",
"374 249 OFFCURVE",
"376 240 OFFCURVE",
"379 231 CURVE",
"203 127 LINE",
"190 140 OFFCURVE",
"172 148 OFFCURVE",
"152 148 CURVE SMOOTH",
"111 148 OFFCURVE",
"78 115 OFFCURVE",
"78 74 CURVE SMOOTH",
"78 33 OFFCURVE",
"111 0 OFFCURVE",
"152 0 CURVE SMOOTH",
"193 0 OFFCURVE",
"226 33 OFFCURVE",
"226 74 CURVE SMOOTH",
"226 81 OFFCURVE",
"225 87 OFFCURVE",
"223 93 CURVE",
"404 200 LINE",
"416 190 OFFCURVE",
"431 185 OFFCURVE",
"448 185 CURVE SMOOTH",
"489 185 OFFCURVE",
"522 218 OFFCURVE",
"522 259 CURVE SMOOTH",
"522 300 OFFCURVE",
"489 333 OFFCURVE",
"448 333 CURVE SMOOTH",
"431 333 OFFCURVE",
"415 327 OFFCURVE",
"402 317 CURVE"
);
}
);
width = 600;
}
);
unicode = 0073;
},
{
glyphname = t;
layers = (
{
layerId = "2B2FE4A8-39A2-493B-A970-B9343EE81639";
name = Regular;
paths = (
{
closed = 1;
nodes = (
"141 483 LINE SMOOTH",
"141 492 OFFCURVE",
"131 498 OFFCURVE",
"123 498 CURVE SMOOTH",
"116 498 OFFCURVE",
"106 492 OFFCURVE",
"106 483 CURVE SMOOTH",
"106 14 LINE SMOOTH",
"106 6 OFFCURVE",
"116 0 OFFCURVE",
"123 0 CURVE SMOOTH",
"131 0 OFFCURVE",
"141 6 OFFCURVE",
"141 14 CURVE SMOOTH",
"141 225 LINE",
"271 172 OFFCURVE",
"356 305 OFFCURVE",
"489 234 CURVE",
"489 464 LINE",
"356 535 OFFCURVE",
"271 403 OFFCURVE",
"141 456 CURVE"
);
}
);
width = 600;
}
);
unicode = 0074;
},
{
glyphname = u;
layers = (
{
layerId = "2B2FE4A8-39A2-493B-A970-B9343EE81639";
name = Regular;
paths = (
{
closed = 1;
nodes = (
"414 275 LINE SMOOTH",
"403 275 OFFCURVE",
"395 274 OFFCURVE",
"390 278 CURVE",
"384 282 OFFCURVE",
"311 336 OFFCURVE",
"305 342 CURVE",
"244 427 LINE",
"244 427 OFFCURVE",
"236 442 OFFCURVE",
"234 459 CURVE",
"233 474 OFFCURVE",
"225 495 OFFCURVE",
"209 497 CURVE",
"193 500 OFFCURVE",
"162 487 OFFCURVE",
"162 446 CURVE SMOOTH",
"162 433 OFFCURVE",
"165 425 OFFCURVE",
"173 403 CURVE",
"174 399 OFFCURVE",
"178 387 OFFCURVE",
"180 383 CURVE SMOOTH",
"189 366 LINE SMOOTH",
"201 342 OFFCURVE",
"207 342 OFFCURVE",
"210 322 CURVE",
"186 322 LINE SMOOTH",
"145 322 OFFCURVE",
"117 299 OFFCURVE",
"93 286 CURVE SMOOTH",
"68 272 OFFCURVE",
"56 252 OFFCURVE",
"56 229 CURVE SMOOTH",
"56 210 OFFCURVE",
"63 197 OFFCURVE",
"78 181 CURVE",
"72 172 OFFCURVE",
"69 156 OFFCURVE",
"69 148 CURVE SMOOTH",
"69 137 OFFCURVE",
"72 128 OFFCURVE",
"78 121 CURVE",
"83 114 OFFCURVE",
"91 113 OFFCURVE",
"102 110 CURVE",
"101 105 OFFCURVE",
"102 97 OFFCURVE",
"102 95 CURVE SMOOTH",
"102 69 OFFCURVE",
"117 59 OFFCURVE",
"146 56 CURVE",
"146 45 LINE SMOOTH",
"146 16 OFFCURVE",
"187 0 OFFCURVE",
"225 1 CURVE",
"238 5 OFFCURVE",
"246 17 OFFCURVE",
"246 17 CURVE",
"264 12 OFFCURVE",
"306 14 OFFCURVE",
"341 26 CURVE",
"356 32 OFFCURVE",
"367 35 OFFCURVE",
"377 44 CURVE",
"385 50 OFFCURVE",
"392 54 OFFCURVE",
"406 69 CURVE",
"525 74 LINE",
"539 107 OFFCURVE",
"545 142 OFFCURVE",
"545 175 CURVE SMOOTH",
"545 208 OFFCURVE",
"538 228 OFFCURVE",
"523 275 CURVE"
);
}
);
width = 600;
}
);
unicode = 0075;
},
{
glyphname = v;
layers = (
{
layerId = "2B2FE4A8-39A2-493B-A970-B9343EE81639";
name = Regular;
paths = (
{
closed = 1;
nodes = (
"567 439 OFFCURVE",
"506 500 OFFCURVE",
"431 500 CURVE SMOOTH",
"366 500 OFFCURVE",
"312 455 OFFCURVE",
"298 395 CURVE",
"284 455 OFFCURVE",
"229 500 OFFCURVE",
"165 500 CURVE SMOOTH",
"89 500 OFFCURVE",
"28 439 OFFCURVE",
"28 364 CURVE SMOOTH",
"28 343 OFFCURVE",
"33 323 OFFCURVE",
"41 305 CURVE",
"65 245 OFFCURVE",
"121 186 OFFCURVE",
"167 147 CURVE SMOOTH",
"220 102 OFFCURVE",
"282 23 OFFCURVE",
"296 4 CURVE",
"319 23 OFFCURVE",
"374 102 OFFCURVE",
"428 147 CURVE SMOOTH",
"489 198 OFFCURVE",
"570 286 OFFCURVE",
"567 364 CURVE"
);
},
{
closed = 1;
nodes = (
"293 2 LINE",
"293 0 LINE",
"293 0 OFFCURVE",
"295 0 OFFCURVE",
"296 1 CURVE",
"298 0 LINE",
"298 2 LINE SMOOTH",
"298 3 OFFCURVE",
"297 4 OFFCURVE",
"296 5 CURVE"
);
}
);
width = 600;
}
);
unicode = 0076;
},
{
glyphname = w;
layers = (
{
layerId = "2B2FE4A8-39A2-493B-A970-B9343EE81639";
name = Regular;
paths = (
{
closed = 1;
nodes = (
"439 3 OFFCURVE",
"321 102 OFFCURVE",
"302 102 CURVE SMOOTH",
"283 102 OFFCURVE",
"166 0 OFFCURVE",
"151 12 CURVE",
"135 23 OFFCURVE",
"189 171 OFFCURVE",
"183 190 CURVE SMOOTH",
"177 209 OFFCURVE",
"48 292 OFFCURVE",
"54 311 CURVE",
"59 330 OFFCURVE",
"211 323 OFFCURVE",
"226 335 CURVE",
"242 346 OFFCURVE",
"278 500 OFFCURVE",
"297 500 CURVE SMOOTH",
"317 500 OFFCURVE",
"356 348 OFFCURVE",
"372 336 CURVE",
"388 325 OFFCURVE",
"539 336 OFFCURVE",
"545 317 CURVE SMOOTH",
"551 298 OFFCURVE",
"424 212 OFFCURVE",
"419 193 CURVE",
"413 174 OFFCURVE",
"470 27 OFFCURVE",
"455 15 CURVE SMOOTH"
);
}
);
width = 600;
}
);
unicode = 0077;
},
{
glyphname = x;
layers = (
{
layerId = "2B2FE4A8-39A2-493B-A970-B9343EE81639";
name = Regular;
paths = (
{
closed = 1;
nodes = (
"466 500 LINE",
"466 0 LINE",
"304 94 LINE",
"134 0 LINE",
"134 500 LINE"
);
}
);
width = 600;
}
);
unicode = 0078;
},
{
glyphname = y;
layers = (
{
layerId = "2B2FE4A8-39A2-493B-A970-B9343EE81639";
name = Regular;
paths = (
{
closed = 1;
nodes = (
"38 443 LINE SMOOTH",
"17 443 OFFCURVE",
"0 426 OFFCURVE",
"0 405 CURVE SMOOTH",
"0 95 LINE SMOOTH",
"0 74 OFFCURVE",
"17 57 OFFCURVE",
"38 57 CURVE SMOOTH",
"562 57 LINE SMOOTH",
"583 57 OFFCURVE",
"600 74 OFFCURVE",
"600 95 CURVE SMOOTH",
"600 405 LINE SMOOTH",
"600 426 OFFCURVE",
"583 443 OFFCURVE",
"562 443 CURVE SMOOTH"
);
},
{
closed = 1;
nodes = (
"273 400 LINE",
"273 121 LINE",
"233 121 LINE",
"233 122 OFFCURVE",
"233 123 OFFCURVE",
"233 124 CURVE SMOOTH",
"233 127 LINE",
"233 128 LINE SMOOTH",
"233 150 OFFCURVE",
"221 192 OFFCURVE",
"196 192 CURVE SMOOTH",
"169 192 LINE",
"170 200 LINE",
"194 209 OFFCURVE",
"211 233 OFFCURVE",
"211 261 CURVE SMOOTH",
"211 297 OFFCURVE",
"184 326 OFFCURVE",
"150 326 CURVE SMOOTH",
"117 326 OFFCURVE",
"89 297 OFFCURVE",
"89 261 CURVE SMOOTH",
"89 233 OFFCURVE",
"106 210 OFFCURVE",
"130 201 CURVE",
"130 198 OFFCURVE",
"130 192 OFFCURVE",
"131 192 CURVE",
"107 192 LINE SMOOTH",
"87 192 OFFCURVE",
"69 165 OFFCURVE",
"69 138 CURVE",
"68 135 OFFCURVE",
"67 132 OFFCURVE",
"67 129 CURVE SMOOTH",
"67 127 OFFCURVE",
"67 126 OFFCURVE",
"67 124 CURVE SMOOTH",
"67 121 LINE",
"31 121 LINE",
"31 400 LINE"
);
},
{
closed = 1;
nodes = (
"557 400 LINE",
"557 321 LINE",
"300 321 LINE",
"300 400 LINE"
);
},
{
closed = 1;
nodes = (
"300 225 LINE",
"300 268 LINE",
"386 268 LINE",
"386 225 LINE"
);
},
{
closed = 1;
nodes = (
"557 268 LINE",
"557 225 LINE",
"429 225 LINE",
"429 268 LINE"
);
},
{
closed = 1;
nodes = (
"557 169 LINE",
"557 116 LINE",
"300 116 LINE",
"300 169 LINE"
);
}
);
width = 600;
}
);
unicode = 0079;
},
{
glyphname = z;
layers = (
{
layerId = "2B2FE4A8-39A2-493B-A970-B9343EE81639";
name = Regular;
paths = (
{
closed = 1;
nodes = (
"150 160 LINE",
"150 229 LINE",
"319 420 LINE",
"156 420 LINE",
"156 500 LINE",
"450 500 LINE",
"450 431 LINE",
"279 240 LINE",
"450 240 LINE",
"450 160 LINE"
);
},
{
closed = 1;
nodes = (
"151 0 LINE",
"151 64 LINE",
"450 64 LINE",
"450 0 LINE",
"385 0 LINE",
"385 -124 LINE",
"255 0 LINE"
);
}
);
width = 600;
}
);
unicode = 007A;
},
{
glyphname = zero;
layers = (
{
layerId = "2B2FE4A8-39A2-493B-A970-B9343EE81639";
name = Regular;
paths = (
{
closed = 1;
nodes = (
"600 444 LINE SMOOTH",
"600 465 OFFCURVE",
"579 486 OFFCURVE",
"557 486 CURVE SMOOTH",
"43 486 LINE SMOOTH",
"21 486 OFFCURVE",
"0 465 OFFCURVE",
"0 444 CURVE SMOOTH",
"0 58 LINE SMOOTH",
"0 36 OFFCURVE",
"21 15 OFFCURVE",
"43 15 CURVE SMOOTH",
"557 15 LINE SMOOTH",
"579 15 OFFCURVE",
"600 36 OFFCURVE",
"600 58 CURVE SMOOTH"
);
},
{
closed = 1;
nodes = (
"64 336 LINE",
"64 422 LINE",
"171 422 LINE",
"171 336 LINE"
);
},
{
closed = 1;
nodes = (
"193 336 LINE",
"193 422 LINE",
"407 422 LINE",
"407 336 LINE"
);
},
{
closed = 1;
nodes = (
"536 422 LINE",
"536 336 LINE",
"450 336 LINE",
"450 422 LINE"
);
},
{
closed = 1;
nodes = (
"300 294 LINE",
"300 79 LINE",
"64 79 LINE",
"64 294 LINE"
);
},
{
closed = 1;
nodes = (
"536 294 LINE",
"536 251 LINE",
"343 251 LINE",
"343 294 LINE"
);
},
{
closed = 1;
nodes = (
"471 229 LINE",
"471 186 LINE",
"343 186 LINE",
"343 229 LINE"
);
},
{
closed = 1;
nodes = (
"343 144 LINE",
"514 144 LINE",
"514 101 LINE",
"343 101 LINE"
);
}
);
width = 600;
}
);
unicode = 0030;
},
{
glyphname = one;
layers = (
{
layerId = "2B2FE4A8-39A2-493B-A970-B9343EE81639";
name = Regular;
paths = (
{
closed = 1;
nodes = (
"208 500 OFFCURVE",
"142 435 OFFCURVE",
"142 356 CURVE SMOOTH",
"142 315 OFFCURVE",
"156 283 OFFCURVE",
"186 250 CURVE",
"195 192 OFFCURVE",
"237 133 OFFCURVE",
"300 133 CURVE SMOOTH",
"364 133 OFFCURVE",
"406 192 OFFCURVE",
"414 250 CURVE",
"444 283 OFFCURVE",
"458 315 OFFCURVE",
"458 356 CURVE SMOOTH",
"458 435 OFFCURVE",
"392 500 OFFCURVE",
"300 500 CURVE SMOOTH"
);
},
{
closed = 1;
nodes = (
"234 293 LINE SMOOTH",
"233 295 OFFCURVE",
"235 298 OFFCURVE",
"240 299 CURVE",
"244 300 OFFCURVE",
"249 299 OFFCURVE",
"250 296 CURVE",
"289 218 LINE",
"293 218 OFFCURVE",
"297 218 OFFCURVE",
"300 218 CURVE SMOOTH",
"310 218 LINE",
"349 296 LINE",
"351 299 OFFCURVE",
"356 300 OFFCURVE",
"361 299 CURVE SMOOTH",
"366 298 OFFCURVE",
"368 295 OFFCURVE",
"367 293 CURVE SMOOTH",
"328 216 LINE",
"353 213 OFFCURVE",
"370 206 OFFCURVE",
"370 197 CURVE SMOOTH",
"370 185 OFFCURVE",
"339 177 OFFCURVE",
"300 177 CURVE SMOOTH",
"261 177 OFFCURVE",
"229 185 OFFCURVE",
"229 197 CURVE SMOOTH",
"229 206 OFFCURVE",
"247 213 OFFCURVE",
"272 216 CURVE"
);
},
{
closed = 1;
nodes = (
"221 64 LINE SMOOTH",
"221 48 OFFCURVE",
"240 34 OFFCURVE",
"268 28 CURVE",
"268 15 LINE SMOOTH",
"268 7 OFFCURVE",
"276 0 OFFCURVE",
"285 0 CURVE SMOOTH",
"315 0 LINE SMOOTH",
"325 0 OFFCURVE",
"332 7 OFFCURVE",
"332 15 CURVE SMOOTH",
"332 28 LINE",
"361 34 OFFCURVE",
"379 48 OFFCURVE",
"379 64 CURVE SMOOTH",
"379 120 LINE",
"357 102 OFFCURVE",
"330 92 OFFCURVE",
"300 92 CURVE SMOOTH",
"270 92 OFFCURVE",
"242 102 OFFCURVE",
"221 120 CURVE"
);
},
{
closed = 1;
nodes = (
"365 69 LINE",
"365 69 OFFCURVE",
"340 49 OFFCURVE",
"300 49 CURVE SMOOTH",
"261 49 OFFCURVE",
"236 69 OFFCURVE",
"236 69 CURVE",
"236 91 LINE",
"236 91 OFFCURVE",
"267 70 OFFCURVE",
"300 70 CURVE SMOOTH",
"333 70 OFFCURVE",
"365 91 OFFCURVE",
"365 91 CURVE"
);
}
);
width = 600;
}
);
unicode = 0031;
},
{
glyphname = two;
layers = (
{
layerId = "2B2FE4A8-39A2-493B-A970-B9343EE81639";
name = Regular;
paths = (
{
closed = 1;
nodes = (
"509 211 LINE",
"509 82 OFFCURVE",
"415 0 OFFCURVE",
"299 0 CURVE SMOOTH",
"184 0 OFFCURVE",
"90 93 OFFCURVE",
"90 209 CURVE SMOOTH",
"90 324 OFFCURVE",
"180 418 OFFCURVE",
"295 418 CURVE SMOOTH",
"297 418 OFFCURVE",
"299 418 OFFCURVE",
"300 418 CURVE",
"300 483 LINE SMOOTH",
"300 493 OFFCURVE",
"307 500 OFFCURVE",
"317 495 CURVE",
"325 490 OFFCURVE",
"439 399 OFFCURVE",
"453 390 CURVE",
"462 385 OFFCURVE",
"463 373 OFFCURVE",
"454 368 CURVE SMOOTH",
"444 362 OFFCURVE",
"327 270 OFFCURVE",
"315 264 CURVE",
"307 259 OFFCURVE",
"300 264 OFFCURVE",
"300 275 CURVE SMOOTH",
"300 278 OFFCURVE",
"300 305 OFFCURVE",
"300 338 CURVE",
"295 338 LINE SMOOTH",
"225 338 OFFCURVE",
"171 281 OFFCURVE",
"171 209 CURVE SMOOTH",
"171 138 OFFCURVE",
"228 81 OFFCURVE",
"299 81 CURVE SMOOTH",
"371 81 OFFCURVE",
"428 137 OFFCURVE",
"428 211 CURVE"
);
}
);
width = 600;
}
);
unicode = 0032;
},
{
glyphname = three;
layers = (
{
layerId = "2B2FE4A8-39A2-493B-A970-B9343EE81639";
name = Regular;
paths = (
{
closed = 1;
nodes = (
"587 389 LINE",
"587 435 LINE",
"566 456 LINE",
"540 483 LINE",
"493 483 LINE",
"422 412 LINE",
"422 500 LINE",
"127 500 LINE",
"13 386 LINE",
"13 0 LINE",
"422 0 LINE",
"422 225 LINE"
);
},
{
closed = 1;
nodes = (
"377 179 LINE",
"377 45 LINE",
"59 45 LINE",
"59 364 LINE",
"149 455 LINE",
"377 455 LINE",
"377 366 LINE",
"283 272 LINE",
"240 136 LINE",
"376 179 LINE"
);
},
{
closed = 1;
nodes = (
"331 359 LINE",
"331 381 LINE",
"127 381 LINE",
"127 359 LINE"
);
},
{
closed = 1;
nodes = (
"240 292 LINE",
"240 315 LINE",
"127 315 LINE",
"127 292 LINE"
);
},
{
closed = 1;
nodes = (
"365 214 LINE",
"370 198 LINE",
"314 178 LINE",
"282 210 LINE",
"302 266 LINE",
"318 261 LINE",
"329 225 LINE"
);
},
{
closed = 1;
nodes = (
"240 227 LINE",
"240 250 LINE",
"127 250 LINE",
"127 227 LINE"
);
},
{
closed = 1;
nodes = (
"218 159 LINE",
"218 182 LINE",
"127 182 LINE",
"127 159 LINE"
);
},
{
closed = 1;
nodes = (
"127 114 LINE",
"127 91 LINE",
"331 91 LINE",
"331 114 LINE"
);
}
);
width = 600;
}
);
unicode = 0033;
},
{
glyphname = four;
layers = (
{
layerId = "2B2FE4A8-39A2-493B-A970-B9343EE81639";
name = Regular;
paths = (
{
closed = 1;
nodes = (
"96 500 LINE SMOOTH",
"71 500 OFFCURVE",
"50 479 OFFCURVE",
"50 454 CURVE SMOOTH",
"50 46 LINE SMOOTH",
"50 21 OFFCURVE",
"71 0 OFFCURVE",
"96 0 CURVE SMOOTH",
"504 0 LINE SMOOTH",
"529 0 OFFCURVE",
"550 21 OFFCURVE",
"550 46 CURVE SMOOTH",
"550 454 LINE SMOOTH",
"550 479 OFFCURVE",
"529 500 OFFCURVE",
"504 500 CURVE SMOOTH"
);
},
{
closed = 1;
nodes = (
"488 438 LINE",
"488 63 LINE",
"113 63 LINE",
"113 438 LINE"
);
},
{
closed = 1;
nodes = (
"223 177 LINE",
"224 176 OFFCURVE",
"224 176 OFFCURVE",
"224 175 CURVE",
"239 159 LINE SMOOTH",
"245 153 OFFCURVE",
"253 149 OFFCURVE",
"261 149 CURVE SMOOTH",
"263 149 LINE SMOOTH",
"271 149 OFFCURVE",
"279 152 OFFCURVE",
"285 157 CURVE SMOOTH",
"301 171 LINE",
"303 173 OFFCURVE",
"304 175 OFFCURVE",
"305 176 CURVE",
"446 307 LINE SMOOTH",
"459 319 OFFCURVE",
"460 340 OFFCURVE",
"448 353 CURVE SMOOTH",
"434 369 LINE SMOOTH",
"428 376 OFFCURVE",
"419 379 OFFCURVE",
"410 379 CURVE SMOOTH",
"402 379 OFFCURVE",
"394 376 OFFCURVE",
"388 371 CURVE",
"266 257 LINE",
"237 289 LINE",
"230 296 OFFCURVE",
"222 300 OFFCURVE",
"213 300 CURVE SMOOTH",
"205 300 OFFCURVE",
"197 297 OFFCURVE",
"191 291 CURVE",
"175 277 LINE",
"169 271 OFFCURVE",
"165 263 OFFCURVE",
"165 255 CURVE",
"164 246 OFFCURVE",
"167 238 OFFCURVE",
"173 231 CURVE"
);
}
);
width = 600;
}
);
unicode = 0034;
},
{
glyphname = five;
layers = (
{
layerId = "2B2FE4A8-39A2-493B-A970-B9343EE81639";
name = Regular;
paths = (
{
closed = 1;
nodes = (
"529 205 LINE",
"303 500 LINE",
"302 498 LINE",
"301 500 LINE",
"74 205 LINE",
"197 205 LINE",
"197 198 LINE",
"197 0 LINE",
"403 0 LINE",
"403 198 LINE",
"403 205 LINE"
);
}
);
width = 600;
}
);
unicode = 0035;
},
{
glyphname = six;
layers = (
{
layerId = "2B2FE4A8-39A2-493B-A970-B9343EE81639";
name = Regular;
paths = (
{
closed = 1;
nodes = (
"74 294 LINE",
"302 1 LINE",
"303 5 LINE",
"304 0 LINE",
"532 294 LINE",
"405 294 LINE",
"405 308 LINE",
"405 500 LINE",
"198 500 LINE",
"198 308 LINE",
"198 294 LINE"
);
}
);
width = 600;
}
);
unicode = 0036;
},
{
glyphname = seven;
layers = (
{
layerId = "2B2FE4A8-39A2-493B-A970-B9343EE81639";
name = Regular;
paths = (
{
closed = 1;
nodes = (
"252 0 LINE",
"571 249 LINE",
"567 250 LINE",
"573 251 LINE",
"252 500 LINE",
"252 365 LINE",
"236 365 LINE",
"27 365 LINE",
"27 140 LINE",
"236 140 LINE",
"252 140 LINE"
);
}
);
width = 600;
}
);
unicode = 0037;
},
{
glyphname = eight;
layers = (
{
layerId = "2B2FE4A8-39A2-493B-A970-B9343EE81639";
name = Regular;
paths = (
{
closed = 1;
nodes = (
"345 500 LINE",
"29 251 LINE",
"34 250 LINE",
"27 249 LINE",
"345 0 LINE",
"345 140 LINE",
"367 140 LINE",
"571 140 LINE",
"571 365 LINE",
"367 365 LINE",
"345 365 LINE"
);
}
);
width = 600;
}
);
unicode = 0038;
},
{
glyphname = nine;
layers = (
{
layerId = "2B2FE4A8-39A2-493B-A970-B9343EE81639";
name = Regular;
paths = (
{
closed = 1;
nodes = (
"320 517 LINE",
"320 582 LINE SMOOTH",
"320 590 OFFCURVE",
"311 600 OFFCURVE",
"298 600 CURVE SMOOTH",
"289 600 OFFCURVE",
"280 590 OFFCURVE",
"280 582 CURVE SMOOTH",
"280 517 LINE",
"284 517 OFFCURVE",
"293 517 OFFCURVE",
"298 517 CURVE SMOOTH"
);
},
{
closed = 1;
nodes = (
"456 533 LINE SMOOTH",
"460 541 OFFCURVE",
"460 554 OFFCURVE",
"446 559 CURVE",
"438 564 OFFCURVE",
"428 564 OFFCURVE",
"420 551 CURVE SMOOTH",
"390 500 LINE",
"404 490 OFFCURVE",
"413 486 OFFCURVE",
"426 477 CURVE"
);
},
{
closed = 1;
nodes = (
"174 477 LINE",
"182 486 OFFCURVE",
"196 490 OFFCURVE",
"210 500 CURVE",
"176 551 LINE SMOOTH",
"169 562 OFFCURVE",
"158 564 OFFCURVE",
"149 559 CURVE SMOOTH",
"140 554 OFFCURVE",
"138 543 OFFCURVE",
"144 533 CURVE"
);
},
{
closed = 1;
nodes = (
"107 388 LINE",
"112 402 OFFCURVE",
"116 416 OFFCURVE",
"125 424 CURVE",
"67 456 LINE",
"57 462 OFFCURVE",
"46 460 OFFCURVE",
"41 451 CURVE SMOOTH",
"36 442 OFFCURVE",
"37 429 OFFCURVE",
"46 424 CURVE SMOOTH"
);
},
{
closed = 1;
nodes = (
"474 423 LINE",
"479 415 OFFCURVE",
"487 401 OFFCURVE",
"492 387 CURVE",
"551 424 LINE SMOOTH",
"559 429 OFFCURVE",
"564 442 OFFCURVE",
"559 451 CURVE",
"551 460 OFFCURVE",
"543 462 OFFCURVE",
"533 456 CURVE SMOOTH"
);
},
{
closed = 1;
nodes = (
"216 451 OFFCURVE",
"158 392 OFFCURVE",
"158 320 CURVE SMOOTH",
"158 284 OFFCURVE",
"167 257 OFFCURVE",
"194 226 CURVE",
"203 172 OFFCURVE",
"244 122 OFFCURVE",
"298 122 CURVE SMOOTH",
"356 122 OFFCURVE",
"392 172 OFFCURVE",
"402 226 CURVE",
"428 257 OFFCURVE",
"442 284 OFFCURVE",
"442 320 CURVE SMOOTH",
"442 392 OFFCURVE",
"384 451 OFFCURVE",
"298 451 CURVE SMOOTH"
);
},
{
closed = 1;
nodes = (
"18 320 LINE SMOOTH",
"10 320 OFFCURVE",
"0 311 OFFCURVE",
"0 302 CURVE SMOOTH",
"0 289 OFFCURVE",
"10 280 OFFCURVE",
"18 280 CURVE SMOOTH",
"88 280 LINE",
"83 293 OFFCURVE",
"79 307 OFFCURVE",
"79 320 CURVE"
);
},
{
closed = 1;
nodes = (
"509 320 LINE",
"509 307 OFFCURVE",
"509 293 OFFCURVE",
"504 280 CURVE",
"577 280 LINE SMOOTH",
"590 280 OFFCURVE",
"600 289 OFFCURVE",
"600 302 CURVE SMOOTH",
"600 311 OFFCURVE",
"590 320 OFFCURVE",
"577 320 CURVE SMOOTH"
);
},
{
closed = 1;
nodes = (
"239 266 LINE",
"239 266 OFFCURVE",
"239 271 OFFCURVE",
"244 271 CURVE SMOOTH",
"248 271 OFFCURVE",
"253 271 OFFCURVE",
"253 266 CURVE",
"289 198 LINE",
"293 198 OFFCURVE",
"298 198 OFFCURVE",
"298 198 CURVE",
"307 198 LINE",
"343 266 LINE",
"343 271 OFFCURVE",
"347 271 OFFCURVE",
"352 271 CURVE SMOOTH",
"356 271 OFFCURVE",
"361 266 OFFCURVE",
"361 266 CURVE",
"325 194 LINE",
"347 194 OFFCURVE",
"361 185 OFFCURVE",
"361 176 CURVE SMOOTH",
"361 167 OFFCURVE",
"334 158 OFFCURVE",
"298 158 CURVE SMOOTH",
"262 158 OFFCURVE",
"234 167 OFFCURVE",
"234 176 CURVE SMOOTH",
"234 185 OFFCURVE",
"253 194 OFFCURVE",
"275 194 CURVE"
);
},
{
closed = 1;
nodes = (
"226 59 LINE SMOOTH",
"226 46 OFFCURVE",
"244 31 OFFCURVE",
"271 28 CURVE",
"271 13 LINE SMOOTH",
"271 5 OFFCURVE",
"275 0 OFFCURVE",
"284 0 CURVE SMOOTH",
"311 0 LINE SMOOTH",
"320 0 OFFCURVE",
"329 5 OFFCURVE",
"329 13 CURVE SMOOTH",
"329 28 LINE",
"352 31 OFFCURVE",
"370 46 OFFCURVE",
"370 59 CURVE SMOOTH",
"370 108 LINE",
"352 90 OFFCURVE",
"325 82 OFFCURVE",
"298 82 CURVE SMOOTH",
"271 82 OFFCURVE",
"248 90 OFFCURVE",
"226 108 CURVE"
);
},
{
closed = 1;
nodes = (
"356 64 LINE",
"356 64 OFFCURVE",
"334 46 OFFCURVE",
"298 46 CURVE SMOOTH",
"262 46 OFFCURVE",
"239 64 OFFCURVE",
"239 64 CURVE",
"239 82 LINE",
"239 82 OFFCURVE",
"271 64 OFFCURVE",
"298 64 CURVE SMOOTH",
"329 64 OFFCURVE",
"356 82 OFFCURVE",
"356 82 CURVE"
);
}
);
width = 600;
}
);
unicode = 0039;
},
{
glyphname = backslash;
lastChange = "2012-12-11 13:36:19 -0300";
layers = (
{
layerId = "2B2FE4A8-39A2-493B-A970-B9343EE81639";
name = Regular;
paths = (
{
closed = 1;
nodes = (
"162 500 OFFCURVE",
"50 388 OFFCURVE",
"50 250 CURVE SMOOTH",
"50 112 OFFCURVE",
"162 0 OFFCURVE",
"300 0 CURVE SMOOTH",
"438 0 OFFCURVE",
"550 112 OFFCURVE",
"550 250 CURVE SMOOTH",
"550 388 OFFCURVE",
"438 500 OFFCURVE",
"300 500 CURVE SMOOTH"
);
},
{
closed = 1;
nodes = (
"360 190 LINE",
"360 135 LINE SMOOTH",
"360 102 OFFCURVE",
"333 75 OFFCURVE",
"300 75 CURVE SMOOTH",
"267 75 OFFCURVE",
"240 102 OFFCURVE",
"240 135 CURVE SMOOTH",
"240 190 LINE",
"185 190 LINE SMOOTH",
"152 190 OFFCURVE",
"125 217 OFFCURVE",
"125 250 CURVE SMOOTH",
"125 283 OFFCURVE",
"152 310 OFFCURVE",
"185 310 CURVE SMOOTH",
"240 310 LINE",
"240 365 LINE SMOOTH",
"240 398 OFFCURVE",
"267 425 OFFCURVE",
"300 425 CURVE SMOOTH",
"333 425 OFFCURVE",
"360 398 OFFCURVE",
"360 365 CURVE SMOOTH",
"360 310 LINE",
"415 310 LINE SMOOTH",
"448 310 OFFCURVE",
"475 283 OFFCURVE",
"475 250 CURVE SMOOTH",
"475 217 OFFCURVE",
"448 190 OFFCURVE",
"415 190 CURVE SMOOTH"
);
}
);
width = 600;
}
);
unicode = 005C;
},
{
glyphname = bullet;
layers = (
{
layerId = "2B2FE4A8-39A2-493B-A970-B9343EE81639";
name = Regular;
paths = (
{
closed = 1;
nodes = (
"162 500 OFFCURVE",
"50 388 OFFCURVE",
"50 250 CURVE SMOOTH",
"50 112 OFFCURVE",
"162 0 OFFCURVE",
"300 0 CURVE SMOOTH",
"438 0 OFFCURVE",
"550 112 OFFCURVE",
"550 250 CURVE SMOOTH",
"550 388 OFFCURVE",
"438 500 OFFCURVE",
"300 500 CURVE SMOOTH"
);
},
{
closed = 1;
nodes = (
"299 196 LINE",
"230 127 LINE SMOOTH",
"215 112 OFFCURVE",
"190 112 OFFCURVE",
"174 128 CURVE SMOOTH",
"159 143 OFFCURVE",
"159 168 OFFCURVE",
"174 183 CURVE SMOOTH",
"243 252 LINE",
"178 317 LINE SMOOTH",
"163 332 OFFCURVE",
"163 357 OFFCURVE",
"178 372 CURVE SMOOTH",
"193 388 OFFCURVE",
"218 388 OFFCURVE",
"234 372 CURVE SMOOTH",
"298 308 LINE",
"366 375 LINE SMOOTH",
"382 391 OFFCURVE",
"407 390 OFFCURVE",
"422 375 CURVE SMOOTH",
"437 360 OFFCURVE",
"438 335 OFFCURVE",
"422 319 CURVE SMOOTH",
"354 252 LINE",
"426 180 LINE SMOOTH",
"441 165 OFFCURVE",
"441 140 OFFCURVE",
"426 125 CURVE SMOOTH",
"410 110 OFFCURVE",
"386 110 OFFCURVE",
"370 125 CURVE SMOOTH"
);
}
);
width = 600;
}
);
unicode = 2022;
},
{
glyphname = colon;
layers = (
{
layerId = "2B2FE4A8-39A2-493B-A970-B9343EE81639";
name = Regular;
paths = (
{
closed = 1;
nodes = (
"472 260 LINE",
"441 302 LINE",
"481 335 LINE",
"436 361 LINE",
"459 407 LINE",
"407 412 LINE",
"409 464 LINE",
"360 448 LINE",
"341 496 LINE",
"302 461 LINE",
"265 497 LINE",
"244 449 LINE",
"195 468 LINE",
"195 416 LINE",
"144 412 LINE",
"166 365 LINE",
"120 341 LINE",
"159 306 LINE",
"126 265 LINE",
"176 250 LINE",
"163 199 LINE",
"215 205 LINE",
"217 190 LINE",
"139 32 LINE",
"186 38 LINE",
"209 -3 LINE",
"287 153 LINE",
"297 137 LINE",
"311 156 LINE",
"390 -3 LINE",
"414 38 LINE",
"460 32 LINE",
"380 194 LINE",
"382 203 LINE",
"433 195 LINE",
"422 246 LINE"
);
},
{
closed = 1;
nodes = (
"238 350 OFFCURVE",
"277 348 OFFCURVE",
"281 351 CURVE SMOOTH",
"285 354 OFFCURVE",
"295 394 OFFCURVE",
"300 394 CURVE SMOOTH",
"305 394 OFFCURVE",
"315 355 OFFCURVE",
"319 352 CURVE SMOOTH",
"323 349 OFFCURVE",
"362 352 OFFCURVE",
"364 347 CURVE",
"365 342 OFFCURVE",
"333 320 OFFCURVE",
"331 315 CURVE",
"330 310 OFFCURVE",
"344 272 OFFCURVE",
"340 269 CURVE SMOOTH",
"336 266 OFFCURVE",
"306 291 OFFCURVE",
"301 291 CURVE SMOOTH",
"296 291 OFFCURVE",
"266 265 OFFCURVE",
"262 268 CURVE SMOOTH",
"258 271 OFFCURVE",
"272 309 OFFCURVE",
"270 314 CURVE",
"269 319 OFFCURVE",
"235 340 OFFCURVE",
"237 345 CURVE"
);
}
);
width = 600;
}
);
unicode = 003A;
},
{
glyphname = comma;
layers = (
{
layerId = "2B2FE4A8-39A2-493B-A970-B9343EE81639";
name = Regular;
paths = (
{
closed = 1;
nodes = (
"438 319 OFFCURVE",
"425 327 OFFCURVE",
"421 323 CURVE SMOOTH",
"417 319 OFFCURVE",
"430 309 OFFCURVE",
"429 283 CURVE",
"425 249 OFFCURVE",
"352 444 OFFCURVE",
"347 442 CURVE SMOOTH",
"342 440 OFFCURVE",
"351 427 OFFCURVE",
"348 399 CURVE SMOOTH",
"345 372 OFFCURVE",
"333 359 OFFCURVE",
"333 359 CURVE SMOOTH",
"333 359 OFFCURVE",
"334 365 OFFCURVE",
"326 419 CURVE SMOOTH",
"317 472 OFFCURVE",
"224 498 OFFCURVE",
"224 498 CURVE SMOOTH",
"224 498 OFFCURVE",
"214 500 OFFCURVE",
"247 450 CURVE SMOOTH",
"273 413 OFFCURVE",
"248 360 OFFCURVE",
"221 320 CURVE",
"215 357 OFFCURVE",
"151 383 OFFCURVE",
"141 378 CURVE",
"150 367 OFFCURVE",
"163 342 OFFCURVE",
"175 311 CURVE SMOOTH",
"188 280 OFFCURVE",
"174 262 OFFCURVE",
"174 262 CURVE",
"171 259 OFFCURVE",
"169 255 OFFCURVE",
"166 251 CURVE",
"151 226 OFFCURVE",
"143 196 OFFCURVE",
"143 164 CURVE SMOOTH",
"143 73 OFFCURVE",
"212 0 OFFCURVE",
"297 0 CURVE SMOOTH",
"373 0 OFFCURVE",
"436 58 OFFCURVE",
"450 134 CURVE SMOOTH",
"458 174 OFFCURVE",
"455 233 OFFCURVE",
"446 279 CURVE SMOOTH"
);
},
{
closed = 1;
nodes = (
"282 60 OFFCURVE",
"229 106 OFFCURVE",
"256 110 CURVE SMOOTH",
"318 119 OFFCURVE",
"307 218 OFFCURVE",
"314 218 CURVE SMOOTH",
"320 218 OFFCURVE",
"371 137 OFFCURVE",
"371 110 CURVE SMOOTH",
"371 82 OFFCURVE",
"345 60 OFFCURVE",
"314 60 CURVE SMOOTH"
);
}
);
width = 600;
}
);
unicode = 002C;
},
{
glyphname = exclam;
layers = (
{
layerId = "2B2FE4A8-39A2-493B-A970-B9343EE81639";
name = Regular;
paths = (
{
closed = 1;
nodes = (
"465 411 LINE",
"444 463 LINE",
"412 482 LINE",
"381 500 LINE",
"325 493 LINE",
"142 173 LINE",
"134 0 LINE",
"281 93 LINE",
"282 93 LINE"
);
},
{
closed = 1;
nodes = (
"268 114 LINE",
"200 68 LINE",
"198 68 LINE",
"159 90 LINE",
"166 173 LINE",
"187 173 LINE",
"212 132 LINE",
"257 132 LINE"
);
}
);
width = 600;
}
);
unicode = 0021;
},
{
glyphname = numbersign;
layers = (
{
layerId = "2B2FE4A8-39A2-493B-A970-B9343EE81639";
name = Regular;
paths = (
{
closed = 1;
nodes = (
"453 499 LINE",
"500 501 OFFCURVE",
"381 497 OFFCURVE",
"450 499 CURVE SMOOTH"
);
},
{
closed = 1;
nodes = (
"450 499 LINE SMOOTH",
"376 497 OFFCURVE",
"378 378 OFFCURVE",
"342 334 CURVE SMOOTH",
"267 243 OFFCURVE",
"148 235 OFFCURVE",
"35 231 CURVE",
"117 200 OFFCURVE",
"70 177 OFFCURVE",
"20 176 CURVE",
"47 167 OFFCURVE",
"86 171 OFFCURVE",
"113 162 CURVE",
"59 125 LINE",
"141 129 OFFCURVE",
"233 144 OFFCURVE",
"309 100 CURVE SMOOTH",
"351 76 OFFCURVE",
"341 17 OFFCURVE",
"311 2 CURVE",
"424 2 LINE",
"402 19 OFFCURVE",
"376 24 OFFCURVE",
"349 22 CURVE",
"369 122 OFFCURVE",
"475 133 OFFCURVE",
"503 220 CURVE SMOOTH",
"521 277 OFFCURVE",
"459 316 OFFCURVE",
"470 369 CURVE SMOOTH",
"476 401 OFFCURVE",
"569 425 OFFCURVE",
"578 397 CURVE",
"563 447 OFFCURVE",
"509 500 OFFCURVE",
"453 499 CURVE SMOOTH"
);
},
{
closed = 1;
nodes = (
"447 430 OFFCURVE",
"447 480 OFFCURVE",
"479 480 CURVE SMOOTH",
"511 480 OFFCURVE",
"511 430 OFFCURVE",
"479 430 CURVE SMOOTH"
);
}
);
width = 600;
}
);
unicode = 0023;
},
{
glyphname = period;
layers = (
{
layerId = "2B2FE4A8-39A2-493B-A970-B9343EE81639";
name = Regular;
paths = (
{
closed = 1;
nodes = (
"564 500 LINE",
"550 500 LINE SMOOTH",
"550 500 OFFCURVE",
"523 499 OFFCURVE",
"488 493 CURVE",
"442 487 OFFCURVE",
"383 473 OFFCURVE",
"345 447 CURVE SMOOTH",
"278 402 OFFCURVE",
"263 368 OFFCURVE",
"251 320 CURVE SMOOTH",
"240 272 OFFCURVE",
"239 273 OFFCURVE",
"222 259 CURVE",
"218 256 OFFCURVE",
"214 249 OFFCURVE",
"211 242 CURVE",
"210 243 OFFCURVE",
"209 245 OFFCURVE",
"207 246 CURVE",
"199 253 OFFCURVE",
"198 253 OFFCURVE",
"201 276 CURVE SMOOTH",
"204 299 OFFCURVE",
"201 315 OFFCURVE",
"166 337 CURVE SMOOTH",
"132 360 OFFCURVE",
"46 366 OFFCURVE",
"46 366 CURVE SMOOTH",
"37 366 LINE",
"36 360 LINE",
"36 360 OFFCURVE",
"38 300 OFFCURVE",
"68 275 CURVE",
"100 251 OFFCURVE",
"123 247 OFFCURVE",
"157 248 CURVE SMOOTH",
"192 248 OFFCURVE",
"192 247 OFFCURVE",
"201 242 CURVE",
"203 240 OFFCURVE",
"205 236 OFFCURVE",
"207 231 CURVE",
"191 188 OFFCURVE",
"183 115 OFFCURVE",
"183 115 CURVE SMOOTH",
"183 115 OFFCURVE",
"185 113 OFFCURVE",
"191 113 CURVE SMOOTH",
"195 113 OFFCURVE",
"197 115 OFFCURVE",
"197 115 CURVE SMOOTH",
"197 115 OFFCURVE",
"214 233 OFFCURVE",
"229 249 CURVE",
"238 256 OFFCURVE",
"242 260 OFFCURVE",
"252 261 CURVE SMOOTH",
"261 262 OFFCURVE",
"274 262 OFFCURVE",
"299 261 CURVE",
"316 261 OFFCURVE",
"332 261 OFFCURVE",
"348 263 CURVE",
"379 268 OFFCURVE",
"410 281 OFFCURVE",
"452 314 CURVE SMOOTH",
"516 365 OFFCURVE",
"560 488 OFFCURVE",
"560 488 CURVE"
);
},
{
closed = 1;
nodes = (
"397 334 LINE",
"326 285 LINE",
"257 278 LINE",
"282 329 LINE",
"348 395 LINE",
"446 420 LINE"
);
},
{
closed = 1;
nodes = (
"176 287 LINE",
"188 256 LINE",
"157 265 LINE",
"108 280 LINE",
"79 307 LINE",
"62 335 LINE",
"136 318 LINE"
);
},
{
closed = 1;
nodes = (
"206 114 LINE",
"206 111 LINE",
"204 109 LINE",
"203 107 OFFCURVE",
"199 103 OFFCURVE",
"191 103 CURVE SMOOTH",
"181 103 OFFCURVE",
"177 107 OFFCURVE",
"176 109 CURVE",
"173 112 LINE",
"173 116 LINE SMOOTH",
"173 117 OFFCURVE",
"174 120 OFFCURVE",
"174 124 CURVE",
"172 124 OFFCURVE",
"171 125 OFFCURVE",
"167 128 CURVE",
"160 134 OFFCURVE",
"152 133 OFFCURVE",
"145 128 CURVE",
"139 123 OFFCURVE",
"128 119 OFFCURVE",
"121 122 CURVE",
"113 124 OFFCURVE",
"103 117 OFFCURVE",
"92 100 CURVE SMOOTH",
"81 83 OFFCURVE",
"52 73 OFFCURVE",
"52 66 CURVE SMOOTH",
"52 59 OFFCURVE",
"58 54 OFFCURVE",
"47 41 CURVE SMOOTH",
"37 29 OFFCURVE",
"71 34 OFFCURVE",
"70 28 CURVE SMOOTH",
"69 23 OFFCURVE",
"81 16 OFFCURVE",
"80 14 CURVE",
"74 9 OFFCURVE",
"98 6 OFFCURVE",
"108 8 CURVE SMOOTH",
"119 10 OFFCURVE",
"135 15 OFFCURVE",
"146 11 CURVE",
"156 6 OFFCURVE",
"165 2 OFFCURVE",
"168 3 CURVE SMOOTH",
"171 4 OFFCURVE",
"191 7 OFFCURVE",
"201 4 CURVE",
"210 0 OFFCURVE",
"204 13 OFFCURVE",
"205 14 CURVE SMOOTH",
"207 16 OFFCURVE",
"226 5 OFFCURVE",
"240 5 CURVE",
"254 6 OFFCURVE",
"258 18 OFFCURVE",
"270 16 CURVE",
"282 15 OFFCURVE",
"285 9 OFFCURVE",
"293 14 CURVE",
"300 19 OFFCURVE",
"316 10 OFFCURVE",
"322 6 CURVE",
"328 3 OFFCURVE",
"345 12 OFFCURVE",
"348 14 CURVE",
"352 17 OFFCURVE",
"368 19 OFFCURVE",
"374 12 CURVE SMOOTH",
"380 5 OFFCURVE",
"388 14 OFFCURVE",
"393 18 CURVE",
"399 22 OFFCURVE",
"400 24 OFFCURVE",
"405 23 CURVE",
"409 22 OFFCURVE",
"418 24 OFFCURVE",
"425 27 CURVE",
"431 31 OFFCURVE",
"432 37 OFFCURVE",
"428 40 CURVE SMOOTH",
"423 44 OFFCURVE",
"408 43 OFFCURVE",
"398 43 CURVE SMOOTH",
"388 43 OFFCURVE",
"391 51 OFFCURVE",
"391 57 CURVE",
"392 63 OFFCURVE",
"389 64 OFFCURVE",
"383 65 CURVE",
"379 66 OFFCURVE",
"369 75 OFFCURVE",
"366 82 CURVE",
"362 88 OFFCURVE",
"355 88 OFFCURVE",
"348 87 CURVE SMOOTH",
"342 86 OFFCURVE",
"335 91 OFFCURVE",
"334 97 CURVE",
"334 103 OFFCURVE",
"320 113 OFFCURVE",
"308 106 CURVE SMOOTH",
"296 99 OFFCURVE",
"292 112 OFFCURVE",
"280 116 CURVE",
"268 121 OFFCURVE",
"258 127 OFFCURVE",
"252 120 CURVE",
"246 112 OFFCURVE",
"228 123 OFFCURVE",
"223 128 CURVE SMOOTH",
"221 130 OFFCURVE",
"215 131 OFFCURVE",
"209 131 CURVE"
);
}
);
width = 600;
}
);
unicode = 002E;
},
{
glyphname = periodcentered;
layers = (
{
layerId = "2B2FE4A8-39A2-493B-A970-B9343EE81639";
name = Regular;
paths = (
{
closed = 1;
nodes = (
"542 139 LINE",
"542 166 LINE",
"425 267 LINE",
"426 268 OFFCURVE",
"426 269 OFFCURVE",
"426 271 CURVE SMOOTH",
"426 298 LINE SMOOTH",
"426 308 OFFCURVE",
"416 316 OFFCURVE",
"406 316 CURVE SMOOTH",
"397 316 OFFCURVE",
"388 309 OFFCURVE",
"387 300 CURVE",
"329 350 LINE",
"329 428 LINE SMOOTH",
"329 445 OFFCURVE",
"314 500 OFFCURVE",
"298 500 CURVE SMOOTH",
"281 500 OFFCURVE",
"266 445 OFFCURVE",
"266 428 CURVE SMOOTH",
"266 350 LINE",
"208 300 LINE",
"207 309 OFFCURVE",
"198 316 OFFCURVE",
"189 316 CURVE SMOOTH",
"179 316 OFFCURVE",
"169 308 OFFCURVE",
"169 298 CURVE SMOOTH",
"169 271 LINE SMOOTH",
"169 269 OFFCURVE",
"169 268 OFFCURVE",
"170 267 CURVE",
"53 166 LINE",
"53 139 LINE",
"266 205 LINE",
"266 205 OFFCURVE",
"272 140 OFFCURVE",
"279 83 CURVE",
"189 13 LINE",
"189 0 LINE",
"290 28 LINE",
"292 20 OFFCURVE",
"295 15 OFFCURVE",
"298 15 CURVE SMOOTH",
"300 15 OFFCURVE",
"303 20 OFFCURVE",
"305 28 CURVE",
"406 0 LINE",
"406 13 LINE",
"316 83 LINE",
"324 140 OFFCURVE",
"329 205 OFFCURVE",
"329 205 CURVE"
);
},
{
closed = 1;
nodes = (
"297 234 LINE SMOOTH",
"272 234 OFFCURVE",
"248 248 OFFCURVE",
"224 276 CURVE",
"249 304 OFFCURVE",
"273 318 OFFCURVE",
"297 319 CURVE",
"298 319 LINE",
"322 318 OFFCURVE",
"347 304 OFFCURVE",
"371 277 CURVE",
"348 248 OFFCURVE",
"323 234 OFFCURVE",
"298 234 CURVE SMOOTH"
);
},
{
closed = 1;
nodes = (
"264 285 OFFCURVE",
"267 293 OFFCURVE",
"274 300 CURVE",
"274 301 OFFCURVE",
"275 301 OFFCURVE",
"276 302 CURVE",
"265 297 OFFCURVE",
"254 288 OFFCURVE",
"242 276 CURVE",
"254 263 OFFCURVE",
"265 254 OFFCURVE",
"277 249 CURVE",
"274 252 LINE SMOOTH",
"267 259 OFFCURVE",
"264 267 OFFCURVE",
"264 276 CURVE SMOOTH"
);
},
{
closed = 1;
nodes = (
"319 302 OFFCURVE",
"320 302 OFFCURVE",
"320 302 CURVE SMOOTH"
);
},
{
closed = 1;
nodes = (
"321 300 LINE",
"328 293 OFFCURVE",
"331 285 OFFCURVE",
"331 276 CURVE SMOOTH",
"331 267 OFFCURVE",
"328 259 OFFCURVE",
"321 252 CURVE SMOOTH",
"320 251 OFFCURVE",
"319 250 OFFCURVE",
"317 249 CURVE",
"329 253 OFFCURVE",
"341 263 OFFCURVE",
"353 276 CURVE",
"341 289 OFFCURVE",
"331 297 OFFCURVE",
"320 302 CURVE"
);
},
{
closed = 1;
nodes = (
"309 296 OFFCURVE",
"304 298 OFFCURVE",
"298 298 CURVE SMOOTH",
"291 298 OFFCURVE",
"286 296 OFFCURVE",
"282 292 CURVE",
"278 287 OFFCURVE",
"276 282 OFFCURVE",
"276 276 CURVE SMOOTH",
"276 270 OFFCURVE",
"278 265 OFFCURVE",
"282 261 CURVE",
"286 256 OFFCURVE",
"291 254 OFFCURVE",
"298 254 CURVE SMOOTH",
"304 254 OFFCURVE",
"309 256 OFFCURVE",
"313 261 CURVE",
"318 265 OFFCURVE",
"320 270 OFFCURVE",
"320 276 CURVE SMOOTH",
"320 282 OFFCURVE",
"318 287 OFFCURVE",
"313 292 CURVE SMOOTH"
);
}
);
width = 600;
}
);
unicode = 00B7;
},
{
glyphname = question;
layers = (
{
layerId = "2B2FE4A8-39A2-493B-A970-B9343EE81639";
name = Regular;
paths = (
{
closed = 1;
nodes = (
"187 477 LINE SMOOTH",
"172 477 OFFCURVE",
"160 464 OFFCURVE",
"160 448 CURVE SMOOTH",
"160 222 LINE SMOOTH",
"160 206 OFFCURVE",
"172 193 OFFCURVE",
"187 193 CURVE SMOOTH",
"573 193 LINE SMOOTH",
"588 193 OFFCURVE",
"600 206 OFFCURVE",
"600 222 CURVE SMOOTH",
"600 448 LINE SMOOTH",
"600 464 OFFCURVE",
"588 477 OFFCURVE",
"573 477 CURVE SMOOTH"
);
},
{
closed = 1;
nodes = (
"360 445 LINE",
"360 240 LINE",
"330 240 LINE",
"330 241 OFFCURVE",
"330 241 OFFCURVE",
"330 243 CURVE SMOOTH",
"330 245 LINE",
"330 246 LINE SMOOTH",
"330 262 OFFCURVE",
"321 292 OFFCURVE",
"304 292 CURVE SMOOTH",
"284 292 LINE",
"284 299 LINE",
"302 306 OFFCURVE",
"315 323 OFFCURVE",
"315 343 CURVE SMOOTH",
"315 369 OFFCURVE",
"295 391 OFFCURVE",
"270 391 CURVE SMOOTH",
"246 391 OFFCURVE",
"225 369 OFFCURVE",
"225 343 CURVE SMOOTH",
"225 323 OFFCURVE",
"238 306 OFFCURVE",
"256 299 CURVE",
"256 292 LINE",
"238 292 LINE SMOOTH",
"224 292 OFFCURVE",
"211 272 OFFCURVE",
"211 253 CURVE",
"210 250 OFFCURVE",
"210 248 OFFCURVE",
"210 246 CURVE SMOOTH",
"210 245 OFFCURVE",
"210 244 OFFCURVE",
"210 243 CURVE SMOOTH",
"210 240 LINE",
"183 240 LINE",
"183 445 LINE"
);
},
{
closed = 1;
nodes = (
"568 445 LINE",
"568 387 LINE",
"380 387 LINE",
"380 445 LINE"
);
},
{
closed = 1;
nodes = (
"380 316 LINE",
"380 349 LINE",
"443 349 LINE",
"443 316 LINE"
);
},
{
closed = 1;
nodes = (
"568 349 LINE",
"568 316 LINE",
"475 316 LINE",
"475 349 LINE"
);
},
{
closed = 1;
nodes = (
"568 275 LINE",
"568 237 LINE",
"380 237 LINE",
"380 275 LINE"
);
},
{
closed = 1;
nodes = (
"170 86 LINE",
"170 34 OFFCURVE",
"133 0 OFFCURVE",
"84 0 CURVE SMOOTH",
"37 0 OFFCURVE",
"0 38 OFFCURVE",
"0 85 CURVE SMOOTH",
"0 132 OFFCURVE",
"36 170 OFFCURVE",
"83 170 CURVE SMOOTH",
"84 170 OFFCURVE",
"84 170 OFFCURVE",
"86 170 CURVE",
"86 197 LINE SMOOTH",
"86 200 OFFCURVE",
"88 204 OFFCURVE",
"92 201 CURVE",
"96 199 OFFCURVE",
"141 163 OFFCURVE",
"148 159 CURVE",
"151 157 OFFCURVE",
"152 152 OFFCURVE",
"148 150 CURVE",
"143 148 OFFCURVE",
"96 111 OFFCURVE",
"91 107 CURVE",
"88 105 OFFCURVE",
"86 107 OFFCURVE",
"86 113 CURVE SMOOTH",
"86 114 OFFCURVE",
"86 123 OFFCURVE",
"86 137 CURVE",
"83 137 LINE SMOOTH",
"55 137 OFFCURVE",
"33 115 OFFCURVE",
"33 85 CURVE SMOOTH",
"33 56 OFFCURVE",
"56 34 OFFCURVE",
"84 34 CURVE SMOOTH",
"114 34 OFFCURVE",
"137 56 OFFCURVE",
"137 86 CURVE"
);
}
);
width = 600;
}
);
unicode = 003F;
},
{
glyphname = semicolon;
layers = (
{
layerId = "2B2FE4A8-39A2-493B-A970-B9343EE81639";
name = Regular;
paths = (
{
closed = 1;
nodes = (
"184 0 LINE",
"416 0 LINE",
"416 133 LINE",
"418 134 LINE",
"405 149 OFFCURVE",
"326 181 OFFCURVE",
"326 181 CURVE SMOOTH",
"326 181 OFFCURVE",
"331 229 OFFCURVE",
"331 256 CURVE",
"348 264 OFFCURVE",
"363 274 OFFCURVE",
"375 285 CURVE",
"396 282 OFFCURVE",
"417 282 OFFCURVE",
"434 286 CURVE SMOOTH",
"482 297 OFFCURVE",
"510 353 OFFCURVE",
"501 395 CURVE SMOOTH",
"495 423 OFFCURVE",
"474 437 OFFCURVE",
"447 440 CURVE",
"449 463 OFFCURVE",
"449 479 OFFCURVE",
"449 479 CURVE SMOOTH",
"449 479 OFFCURVE",
"401 500 OFFCURVE",
"300 500 CURVE SMOOTH",
"199 500 OFFCURVE",
"151 479 OFFCURVE",
"151 479 CURVE SMOOTH",
"151 479 OFFCURVE",
"151 463 OFFCURVE",
"153 440 CURVE",
"126 437 OFFCURVE",
"105 423 OFFCURVE",
"99 395 CURVE SMOOTH",
"90 353 OFFCURVE",
"118 297 OFFCURVE",
"166 286 CURVE SMOOTH",
"183 282 OFFCURVE",
"204 282 OFFCURVE",
"224 285 CURVE",
"237 274 OFFCURVE",
"251 264 OFFCURVE",
"268 256 CURVE",
"268 229 OFFCURVE",
"272 181 OFFCURVE",
"272 181 CURVE SMOOTH",
"272 181 OFFCURVE",
"198 155 OFFCURVE",
"184 135 CURVE"
);
},
{
closed = 1;
nodes = (
"142 321 OFFCURVE",
"125 362 OFFCURVE",
"131 388 CURVE SMOOTH",
"134 403 OFFCURVE",
"144 410 OFFCURVE",
"158 412 CURVE",
"164 381 OFFCURVE",
"177 344 OFFCURVE",
"201 312 CURVE",
"190 311 OFFCURVE",
"180 312 OFFCURVE",
"172 314 CURVE SMOOTH"
);
},
{
closed = 1;
nodes = (
"455 410 OFFCURVE",
"465 403 OFFCURVE",
"469 388 CURVE SMOOTH",
"475 362 OFFCURVE",
"458 321 OFFCURVE",
"428 314 CURVE SMOOTH",
"420 312 OFFCURVE",
"410 311 OFFCURVE",
"399 312 CURVE",
"423 344 OFFCURVE",
"436 381 OFFCURVE",
"442 412 CURVE"
);
},
{
closed = 1;
nodes = (
"378 78 LINE",
"378 39 LINE",
"223 39 LINE",
"223 78 LINE"
);
}
);
width = 600;
}
);
unicode = 003B;
},
{
glyphname = slash;
lastChange = "2013-04-10 11:42:19 -0300";
layers = (
{
layerId = "2B2FE4A8-39A2-493B-A970-B9343EE81639";
name = Regular;
paths = (
{
closed = 1;
nodes = (
"162 500 OFFCURVE",
"50 388 OFFCURVE",
"50 250 CURVE SMOOTH",
"50 112 OFFCURVE",
"162 0 OFFCURVE",
"300 0 CURVE SMOOTH",
"438 0 OFFCURVE",
"550 112 OFFCURVE",
"550 250 CURVE SMOOTH",
"550 388 OFFCURVE",
"438 500 OFFCURVE",
"300 500 CURVE SMOOTH"
);
},
{
closed = 1;
nodes = (
"187 45 OFFCURVE",
"95 137 OFFCURVE",
"95 250 CURVE SMOOTH",
"95 363 OFFCURVE",
"187 455 OFFCURVE",
"300 455 CURVE SMOOTH",
"413 455 OFFCURVE",
"505 363 OFFCURVE",
"505 250 CURVE SMOOTH",
"505 137 OFFCURVE",
"413 45 OFFCURVE",
"300 45 CURVE SMOOTH"
);
},
{
closed = 1;
nodes = (
"227 273 LINE",
"238 306 OFFCURVE",
"266 324 OFFCURVE",
"300 324 CURVE SMOOTH",
"325 324 OFFCURVE",
"348 313 OFFCURVE",
"363 293 CURVE",
"313 246 LINE",
"306 249 OFFCURVE",
"298 251 OFFCURVE",
"290 249 CURVE",
"269 246 OFFCURVE",
"255 226 OFFCURVE",
"258 205 CURVE",
"262 183 OFFCURVE",
"282 169 OFFCURVE",
"303 173 CURVE SMOOTH",
"324 177 OFFCURVE",
"338 197 OFFCURVE",
"335 218 CURVE",
"334 223 OFFCURVE",
"332 227 OFFCURVE",
"330 231 CURVE",
"339 242 OFFCURVE",
"355 262 OFFCURVE",
"370 281 CURVE",
"373 273 LINE",
"450 273 LINE",
"437 358 OFFCURVE",
"375 399 OFFCURVE",
"300 399 CURVE SMOOTH",
"225 399 OFFCURVE",
"162 358 OFFCURVE",
"150 273 CURVE"
);
},
{
closed = 1;
nodes = (
"374 303 LINE",
"369 309 OFFCURVE",
"354 323 OFFCURVE",
"348 328 CURVE",
"370 372 LINE",
"408 355 OFFCURVE",
"433 311 OFFCURVE",
"437 290 CURVE",
"421 290 OFFCURVE",
"390 290 OFFCURVE",
"380 290 CURVE",
"379 292 LINE",
"393 310 OFFCURVE",
"405 325 OFFCURVE",
"406 327 CURVE",
"409 332 OFFCURVE",
"401 330 OFFCURVE",
"401 330 CURVE"
);
},
{
closed = 1;
nodes = (
"290 192 OFFCURVE",
"281 199 OFFCURVE",
"279 208 CURVE",
"278 218 OFFCURVE",
"284 227 OFFCURVE",
"294 228 CURVE",
"303 230 OFFCURVE",
"312 224 OFFCURVE",
"314 214 CURVE",
"315 205 OFFCURVE",
"309 196 OFFCURVE",
"300 194 CURVE SMOOTH"
);
}
);
width = 600;
}
);
unicode = 002F;
},
{
glyphname = underscore;
layers = (
{
layerId = "2B2FE4A8-39A2-493B-A970-B9343EE81639";
name = Regular;
paths = (
{
closed = 1;
nodes = (
"343 425 LINE",
"343 491 LINE SMOOTH",
"343 496 OFFCURVE",
"339 500 OFFCURVE",
"334 500 CURVE SMOOTH",
"266 500 LINE SMOOTH",
"262 500 OFFCURVE",
"258 496 OFFCURVE",
"258 491 CURVE SMOOTH",
"258 425 LINE",
"96 425 LINE SMOOTH",
"92 425 OFFCURVE",
"88 421 OFFCURVE",
"88 416 CURVE SMOOTH",
"88 348 LINE",
"512 348 LINE",
"512 416 LINE SMOOTH",
"512 421 OFFCURVE",
"509 425 OFFCURVE",
"504 425 CURVE SMOOTH"
);
},
{
closed = 1;
nodes = (
"209 0 LINE",
"209 302 LINE",
"130 302 LINE",
"130 8 LINE SMOOTH",
"130 3 OFFCURVE",
"134 0 OFFCURVE",
"139 0 CURVE SMOOTH"
);
},
{
closed = 1;
nodes = (
"251 302 LINE",
"251 0 LINE",
"349 0 LINE",
"349 302 LINE"
);
},
{
closed = 1;
nodes = (
"470 302 LINE",
"391 302 LINE",
"391 0 LINE",
"462 0 LINE SMOOTH",
"466 0 OFFCURVE",
"470 3 OFFCURVE",
"470 8 CURVE SMOOTH"
);
}
);
width = 600;
}
);
unicode = 005F;
},
{
glyphname = braceleft;
lastChange = "2013-02-27 18:12:35 -0300";
layers = (
{
layerId = "2B2FE4A8-39A2-493B-A970-B9343EE81639";
name = Regular;
paths = (
{
closed = 1;
nodes = (
"162 499 OFFCURVE",
"50 387 OFFCURVE",
"50 249 CURVE SMOOTH",
"50 111 OFFCURVE",
"162 -1 OFFCURVE",
"300 -1 CURVE SMOOTH",
"437 -1 OFFCURVE",
"550 111 OFFCURVE",
"550 249 CURVE SMOOTH",
"550 387 OFFCURVE",
"437 499 OFFCURVE",
"300 499 CURVE SMOOTH"
);
},
{
closed = 1;
nodes = (
"208 83 OFFCURVE",
"133 157 OFFCURVE",
"133 249 CURVE SMOOTH",
"133 341 OFFCURVE",
"208 415 OFFCURVE",
"300 415 CURVE SMOOTH",
"391 415 OFFCURVE",
"466 341 OFFCURVE",
"466 249 CURVE SMOOTH",
"466 157 OFFCURVE",
"391 83 OFFCURVE",
"300 83 CURVE SMOOTH"
);
},
{
closed = 1;
nodes = (
"217 295 OFFCURVE",
"254 332 OFFCURVE",
"300 332 CURVE SMOOTH",
"345 332 OFFCURVE",
"382 295 OFFCURVE",
"382 249 CURVE SMOOTH",
"382 203 OFFCURVE",
"345 166 OFFCURVE",
"300 166 CURVE SMOOTH",
"254 166 OFFCURVE",
"217 203 OFFCURVE",
"217 249 CURVE SMOOTH"
);
}
);
width = 600;
}
);
unicode = 007B;
},
{
glyphname = braceright;
layers = (
{
layerId = "2B2FE4A8-39A2-493B-A970-B9343EE81639";
name = Regular;
paths = (
{
closed = 1;
nodes = (
"414 250 LINE",
"485 345 LINE",
"489 343 OFFCURVE",
"493 341 OFFCURVE",
"498 341 CURVE SMOOTH",
"510 341 OFFCURVE",
"520 351 OFFCURVE",
"520 363 CURVE SMOOTH",
"520 375 OFFCURVE",
"510 385 OFFCURVE",
"498 385 CURVE SMOOTH",
"486 385 OFFCURVE",
"476 375 OFFCURVE",
"476 363 CURVE SMOOTH",
"476 361 LINE",
"357 348 LINE",
"310 458 LINE",
"317 461 OFFCURVE",
"322 469 OFFCURVE",
"322 478 CURVE SMOOTH",
"322 490 OFFCURVE",
"313 500 OFFCURVE",
"301 500 CURVE SMOOTH",
"289 500 OFFCURVE",
"279 490 OFFCURVE",
"279 478 CURVE SMOOTH",
"279 469 OFFCURVE",
"284 461 OFFCURVE",
"292 458 CURVE",
"243 349 LINE",
"124 363 LINE",
"124 375 OFFCURVE",
"114 385 OFFCURVE",
"102 385 CURVE SMOOTH",
"90 385 OFFCURVE",
"80 375 OFFCURVE",
"80 363 CURVE SMOOTH",
"80 351 OFFCURVE",
"90 341 OFFCURVE",
"102 341 CURVE SMOOTH",
"107 341 OFFCURVE",
"113 343 OFFCURVE",
"116 346 CURVE",
"186 250 LINE",
"115 154 LINE",
"111 156 OFFCURVE",
"107 158 OFFCURVE",
"102 158 CURVE SMOOTH",
"90 158 OFFCURVE",
"80 148 OFFCURVE",
"80 136 CURVE SMOOTH",
"80 124 OFFCURVE",
"90 114 OFFCURVE",
"102 114 CURVE SMOOTH",
"114 114 OFFCURVE",
"124 124 OFFCURVE",
"124 136 CURVE SMOOTH",
"124 138 LINE",
"243 151 LINE",
"290 42 LINE",
"282 39 OFFCURVE",
"276 31 OFFCURVE",
"276 22 CURVE SMOOTH",
"276 10 OFFCURVE",
"286 0 OFFCURVE",
"298 0 CURVE SMOOTH",
"310 0 OFFCURVE",
"320 10 OFFCURVE",
"320 22 CURVE SMOOTH",
"320 30 OFFCURVE",
"315 38 OFFCURVE",
"308 42 CURVE",
"357 151 LINE",
"472 138 LINE",
"472 136 LINE SMOOTH",
"472 124 OFFCURVE",
"482 114 OFFCURVE",
"494 114 CURVE SMOOTH",
"506 114 OFFCURVE",
"516 124 OFFCURVE",
"516 136 CURVE SMOOTH",
"516 148 OFFCURVE",
"506 158 OFFCURVE",
"494 158 CURVE SMOOTH",
"490 158 OFFCURVE",
"486 157 OFFCURVE",
"483 155 CURVE"
);
}
);
width = 600;
}
);
unicode = 007D;
},
{
glyphname = bracketleft;
layers = (
{
layerId = "2B2FE4A8-39A2-493B-A970-B9343EE81639";
name = Regular;
paths = (
{
closed = 1;
nodes = (
"320 517 LINE",
"320 582 LINE SMOOTH",
"320 590 OFFCURVE",
"311 600 OFFCURVE",
"298 600 CURVE SMOOTH",
"289 600 OFFCURVE",
"280 590 OFFCURVE",
"280 582 CURVE SMOOTH",
"280 517 LINE",
"284 517 OFFCURVE",
"293 517 OFFCURVE",
"298 517 CURVE SMOOTH"
);
},
{
closed = 1;
nodes = (
"456 533 LINE SMOOTH",
"460 541 OFFCURVE",
"460 554 OFFCURVE",
"446 559 CURVE",
"438 564 OFFCURVE",
"428 564 OFFCURVE",
"420 551 CURVE SMOOTH",
"390 500 LINE",
"404 490 OFFCURVE",
"413 486 OFFCURVE",
"426 477 CURVE"
);
},
{
closed = 1;
nodes = (
"174 477 LINE",
"182 486 OFFCURVE",
"196 490 OFFCURVE",
"210 500 CURVE",
"176 551 LINE SMOOTH",
"169 562 OFFCURVE",
"158 564 OFFCURVE",
"149 559 CURVE SMOOTH",
"140 554 OFFCURVE",
"138 543 OFFCURVE",
"144 533 CURVE"
);
},
{
closed = 1;
nodes = (
"107 388 LINE",
"112 402 OFFCURVE",
"116 416 OFFCURVE",
"125 424 CURVE",
"67 456 LINE",
"57 462 OFFCURVE",
"46 460 OFFCURVE",
"41 451 CURVE SMOOTH",
"36 442 OFFCURVE",
"37 429 OFFCURVE",
"46 424 CURVE SMOOTH"
);
},
{
closed = 1;
nodes = (
"474 423 LINE",
"479 415 OFFCURVE",
"487 401 OFFCURVE",
"492 387 CURVE",
"551 424 LINE SMOOTH",
"559 429 OFFCURVE",
"564 442 OFFCURVE",
"559 451 CURVE",
"551 460 OFFCURVE",
"543 462 OFFCURVE",
"533 456 CURVE SMOOTH"
);
},
{
closed = 1;
nodes = (
"216 451 OFFCURVE",
"158 392 OFFCURVE",
"158 320 CURVE SMOOTH",
"158 284 OFFCURVE",
"167 257 OFFCURVE",
"194 226 CURVE",
"203 172 OFFCURVE",
"244 122 OFFCURVE",
"298 122 CURVE SMOOTH",
"356 122 OFFCURVE",
"392 172 OFFCURVE",
"402 226 CURVE",
"428 257 OFFCURVE",
"442 284 OFFCURVE",
"442 320 CURVE SMOOTH",
"442 392 OFFCURVE",
"384 451 OFFCURVE",
"298 451 CURVE SMOOTH"
);
},
{
closed = 1;
nodes = (
"18 320 LINE SMOOTH",
"10 320 OFFCURVE",
"0 311 OFFCURVE",
"0 302 CURVE SMOOTH",
"0 289 OFFCURVE",
"10 280 OFFCURVE",
"18 280 CURVE SMOOTH",
"88 280 LINE",
"83 293 OFFCURVE",
"79 307 OFFCURVE",
"79 320 CURVE"
);
},
{
closed = 1;
nodes = (
"509 320 LINE",
"509 307 OFFCURVE",
"509 293 OFFCURVE",
"504 280 CURVE",
"577 280 LINE SMOOTH",
"590 280 OFFCURVE",
"600 289 OFFCURVE",
"600 302 CURVE SMOOTH",
"600 311 OFFCURVE",
"590 320 OFFCURVE",
"577 320 CURVE SMOOTH"
);
},
{
closed = 1;
nodes = (
"239 266 LINE",
"239 266 OFFCURVE",
"239 271 OFFCURVE",
"244 271 CURVE SMOOTH",
"248 271 OFFCURVE",
"253 271 OFFCURVE",
"253 266 CURVE",
"289 198 LINE",
"293 198 OFFCURVE",
"298 198 OFFCURVE",
"298 198 CURVE",
"307 198 LINE",
"343 266 LINE",
"343 271 OFFCURVE",
"347 271 OFFCURVE",
"352 271 CURVE SMOOTH",
"356 271 OFFCURVE",
"361 266 OFFCURVE",
"361 266 CURVE",
"325 194 LINE",
"347 194 OFFCURVE",
"361 185 OFFCURVE",
"361 176 CURVE SMOOTH",
"361 167 OFFCURVE",
"334 158 OFFCURVE",
"298 158 CURVE SMOOTH",
"262 158 OFFCURVE",
"234 167 OFFCURVE",
"234 176 CURVE SMOOTH",
"234 185 OFFCURVE",
"253 194 OFFCURVE",
"275 194 CURVE"
);
},
{
closed = 1;
nodes = (
"170 86 LINE",
"170 34 OFFCURVE",
"133 0 OFFCURVE",
"84 0 CURVE SMOOTH",
"37 0 OFFCURVE",
"0 38 OFFCURVE",
"0 85 CURVE SMOOTH",
"0 132 OFFCURVE",
"36 170 OFFCURVE",
"83 170 CURVE SMOOTH",
"84 170 OFFCURVE",
"84 170 OFFCURVE",
"86 170 CURVE",
"86 197 LINE SMOOTH",
"86 200 OFFCURVE",
"88 204 OFFCURVE",
"92 201 CURVE",
"96 199 OFFCURVE",
"141 163 OFFCURVE",
"148 159 CURVE",
"151 157 OFFCURVE",
"152 152 OFFCURVE",
"148 150 CURVE",
"143 148 OFFCURVE",
"96 111 OFFCURVE",
"91 107 CURVE",
"88 105 OFFCURVE",
"86 107 OFFCURVE",
"86 113 CURVE SMOOTH",
"86 114 OFFCURVE",
"86 123 OFFCURVE",
"86 137 CURVE",
"83 137 LINE SMOOTH",
"55 137 OFFCURVE",
"33 115 OFFCURVE",
"33 85 CURVE SMOOTH",
"33 56 OFFCURVE",
"56 34 OFFCURVE",
"84 34 CURVE SMOOTH",
"114 34 OFFCURVE",
"137 56 OFFCURVE",
"137 86 CURVE"
);
},
{
closed = 1;
nodes = (
"226 59 LINE SMOOTH",
"226 46 OFFCURVE",
"244 31 OFFCURVE",
"271 28 CURVE",
"271 13 LINE SMOOTH",
"271 5 OFFCURVE",
"275 0 OFFCURVE",
"284 0 CURVE SMOOTH",
"311 0 LINE SMOOTH",
"320 0 OFFCURVE",
"329 5 OFFCURVE",
"329 13 CURVE SMOOTH",
"329 28 LINE",
"352 31 OFFCURVE",
"370 46 OFFCURVE",
"370 59 CURVE SMOOTH",
"370 108 LINE",
"352 90 OFFCURVE",
"325 82 OFFCURVE",
"298 82 CURVE SMOOTH",
"271 82 OFFCURVE",
"248 90 OFFCURVE",
"226 108 CURVE"
);
},
{
closed = 1;
nodes = (
"356 64 LINE",
"356 64 OFFCURVE",
"334 46 OFFCURVE",
"298 46 CURVE SMOOTH",
"262 46 OFFCURVE",
"239 64 OFFCURVE",
"239 64 CURVE",
"239 82 LINE",
"239 82 OFFCURVE",
"271 64 OFFCURVE",
"298 64 CURVE SMOOTH",
"329 64 OFFCURVE",
"356 82 OFFCURVE",
"356 82 CURVE"
);
}
);
width = 600;
}
);
unicode = 005B;
},
{
glyphname = bracketright;
layers = (
{
layerId = "2B2FE4A8-39A2-493B-A970-B9343EE81639";
name = Regular;
paths = (
{
closed = 1;
nodes = (
"599 447 LINE",
"419 447 LINE",
"364 500 LINE",
"248 500 LINE",
"199 436 LINE",
"199 132 LINE",
"599 132 LINE"
);
},
{
closed = 1;
nodes = (
"170 86 LINE",
"170 34 OFFCURVE",
"133 0 OFFCURVE",
"84 0 CURVE SMOOTH",
"37 0 OFFCURVE",
"0 38 OFFCURVE",
"0 85 CURVE SMOOTH",
"0 132 OFFCURVE",
"36 170 OFFCURVE",
"83 170 CURVE SMOOTH",
"84 170 OFFCURVE",
"84 170 OFFCURVE",
"86 170 CURVE",
"86 197 LINE SMOOTH",
"86 200 OFFCURVE",
"88 204 OFFCURVE",
"92 201 CURVE",
"96 199 OFFCURVE",
"141 163 OFFCURVE",
"148 159 CURVE",
"151 157 OFFCURVE",
"152 152 OFFCURVE",
"148 150 CURVE",
"143 148 OFFCURVE",
"96 111 OFFCURVE",
"91 107 CURVE",
"88 105 OFFCURVE",
"86 107 OFFCURVE",
"86 113 CURVE SMOOTH",
"86 114 OFFCURVE",
"86 123 OFFCURVE",
"86 137 CURVE",
"83 137 LINE SMOOTH",
"55 137 OFFCURVE",
"33 115 OFFCURVE",
"33 85 CURVE SMOOTH",
"33 56 OFFCURVE",
"56 34 OFFCURVE",
"84 34 CURVE SMOOTH",
"114 34 OFFCURVE",
"137 56 OFFCURVE",
"137 86 CURVE"
);
}
);
width = 600;
}
);
unicode = 005D;
},
{
glyphname = parenleft;
layers = (
{
layerId = "2B2FE4A8-39A2-493B-A970-B9343EE81639";
name = Regular;
paths = (
{
closed = 1;
nodes = (
"165 283 LINE",
"299 124 LINE",
"419 283 LINE",
"367 283 LINE SMOOTH",
"367 283 OFFCURVE",
"400 370 OFFCURVE",
"303 461 CURVE SMOOTH",
"221 535 OFFCURVE",
"80 477 OFFCURVE",
"80 477 CURVE SMOOTH",
"80 477 OFFCURVE",
"214 490 OFFCURVE",
"245 409 CURVE SMOOTH",
"273 328 OFFCURVE",
"250 283 OFFCURVE",
"250 283 CURVE SMOOTH"
);
},
{
closed = 1;
nodes = (
"541 141 LINE",
"481 141 LINE",
"481 62 LINE",
"121 62 LINE",
"121 141 LINE",
"60 141 LINE",
"60 50 LINE SMOOTH",
"60 27 OFFCURVE",
"81 0 OFFCURVE",
"105 0 CURVE SMOOTH",
"497 0 LINE SMOOTH",
"522 0 OFFCURVE",
"541 27 OFFCURVE",
"541 50 CURVE SMOOTH"
);
}
);
width = 600;
}
);
unicode = 0028;
},
{
glyphname = parenright;
layers = (
{
layerId = "2B2FE4A8-39A2-493B-A970-B9343EE81639";
name = Regular;
paths = (
{
closed = 1;
nodes = (
"419 174 LINE",
"550 250 LINE",
"419 326 LINE",
"419 268 LINE",
"318 268 LINE",
"318 369 LINE",
"376 369 LINE",
"300 500 LINE",
"224 369 LINE",
"282 369 LINE",
"282 268 LINE",
"181 268 LINE",
"181 326 LINE",
"50 250 LINE",
"181 174 LINE",
"181 232 LINE",
"282 232 LINE",
"282 131 LINE",
"224 131 LINE",
"300 0 LINE",
"376 131 LINE",
"318 131 LINE",
"318 232 LINE",
"419 232 LINE"
);
}
);
width = 600;
}
);
unicode = 0029;
},
{
glyphname = emdash;
lastChange = "2012-12-11 13:47:16 -0300";
layers = (
{
layerId = "2B2FE4A8-39A2-493B-A970-B9343EE81639";
name = Regular;
paths = (
{
closed = 1;
nodes = (
"335 0 LINE",
"335 285 LINE",
"265 285 LINE",
"265 0 LINE"
);
},
{
closed = 1;
nodes = (
"350 420 LINE",
"350 491 LINE SMOOTH",
"350 496 OFFCURVE",
"346 500 OFFCURVE",
"341 500 CURVE SMOOTH",
"258 500 LINE SMOOTH",
"254 500 OFFCURVE",
"250 496 OFFCURVE",
"250 491 CURVE SMOOTH",
"250 420 LINE",
"93 420 LINE SMOOTH",
"89 420 OFFCURVE",
"85 416 OFFCURVE",
"85 411 CURVE SMOOTH",
"85 350 LINE",
"515 350 LINE",
"515 411 LINE SMOOTH",
"515 416 OFFCURVE",
"512 420 OFFCURVE",
"507 420 CURVE SMOOTH"
);
},
{
closed = 1;
nodes = (
"140 5 LINE SMOOTH",
"140 2 OFFCURVE",
"142 0 OFFCURVE",
"145 0 CURVE SMOOTH",
"205 0 LINE",
"205 285 LINE",
"140 285 LINE"
);
},
{
closed = 1;
nodes = (
"460 5 LINE SMOOTH",
"460 2 OFFCURVE",
"458 0 OFFCURVE",
"455 0 CURVE SMOOTH",
"395 0 LINE",
"395 285 LINE",
"460 285 LINE"
);
}
);
width = 600;
}
);
unicode = 2014;
},
{
glyphname = hyphen;
layers = (
{
layerId = "2B2FE4A8-39A2-493B-A970-B9343EE81639";
name = Regular;
paths = (
{
closed = 1;
nodes = (
"23 484 LINE SMOOTH",
"10 484 OFFCURVE",
"0 474 OFFCURVE",
"0 461 CURVE SMOOTH",
"0 138 LINE SMOOTH",
"0 126 OFFCURVE",
"10 115 OFFCURVE",
"23 115 CURVE SMOOTH",
"321 115 LINE",
"312 127 OFFCURVE",
"306 143 OFFCURVE",
"306 159 CURVE SMOOTH",
"306 199 OFFCURVE",
"338 231 OFFCURVE",
"377 231 CURVE SMOOTH",
"394 231 LINE",
"394 246 LINE SMOOTH",
"394 285 OFFCURVE",
"426 317 OFFCURVE",
"465 317 CURVE SMOOTH",
"504 317 OFFCURVE",
"536 285 OFFCURVE",
"536 246 CURVE SMOOTH",
"536 231 LINE",
"552 231 LINE SMOOTH",
"570 231 OFFCURVE",
"587 223 OFFCURVE",
"600 212 CURVE",
"600 461 LINE SMOOTH",
"600 474 OFFCURVE",
"590 484 OFFCURVE",
"577 484 CURVE SMOOTH"
);
},
{
closed = 1;
nodes = (
"138 369 LINE",
"138 300 LINE",
"69 300 LINE",
"69 369 LINE"
);
},
{
closed = 1;
nodes = (
"513 154 LINE",
"513 215 LINE SMOOTH",
"513 229 OFFCURVE",
"502 240 OFFCURVE",
"488 240 CURVE SMOOTH",
"474 240 OFFCURVE",
"463 229 OFFCURVE",
"463 215 CURVE SMOOTH",
"463 154 LINE",
"400 154 LINE SMOOTH",
"386 154 OFFCURVE",
"375 142 OFFCURVE",
"375 128 CURVE SMOOTH",
"375 114 OFFCURVE",
"386 103 OFFCURVE",
"400 103 CURVE SMOOTH",
"463 103 LINE",
"463 40 LINE SMOOTH",
"463 26 OFFCURVE",
"474 15 OFFCURVE",
"488 15 CURVE SMOOTH",
"502 15 OFFCURVE",
"513 26 OFFCURVE",
"513 40 CURVE SMOOTH",
"513 103 LINE",
"575 103 LINE SMOOTH",
"589 103 OFFCURVE",
"600 114 OFFCURVE",
"600 128 CURVE SMOOTH",
"600 142 OFFCURVE",
"589 154 OFFCURVE",
"575 154 CURVE SMOOTH"
);
}
);
width = 600;
}
);
unicode = 002D;
},
{
glyphname = guilsinglright;
lastChange = "2012-12-12 16:57:09 -0300";
layers = (
{
layerId = "2B2FE4A8-39A2-493B-A970-B9343EE81639";
name = Regular;
paths = (
{
closed = 1;
nodes = (
"600 410 LINE SMOOTH",
"600 404 OFFCURVE",
"596 400 OFFCURVE",
"590 400 CURVE SMOOTH",
"10 400 LINE SMOOTH",
"4 400 OFFCURVE",
"0 404 OFFCURVE",
"0 410 CURVE SMOOTH",
"0 490 LINE SMOOTH",
"0 496 OFFCURVE",
"4 500 OFFCURVE",
"10 500 CURVE SMOOTH",
"590 500 LINE SMOOTH",
"596 500 OFFCURVE",
"600 496 OFFCURVE",
"600 490 CURVE SMOOTH"
);
},
{
closed = 1;
nodes = (
"600 210 LINE SMOOTH",
"600 204 OFFCURVE",
"596 200 OFFCURVE",
"590 200 CURVE SMOOTH",
"10 200 LINE SMOOTH",
"4 200 OFFCURVE",
"0 204 OFFCURVE",
"0 210 CURVE SMOOTH",
"0 290 LINE SMOOTH",
"0 296 OFFCURVE",
"4 300 OFFCURVE",
"10 300 CURVE SMOOTH",
"590 300 LINE SMOOTH",
"596 300 OFFCURVE",
"600 296 OFFCURVE",
"600 290 CURVE SMOOTH"
);
},
{
closed = 1;
nodes = (
"600 10 LINE SMOOTH",
"600 4 OFFCURVE",
"596 0 OFFCURVE",
"590 0 CURVE SMOOTH",
"10 0 LINE SMOOTH",
"4 0 OFFCURVE",
"0 4 OFFCURVE",
"0 10 CURVE SMOOTH",
"0 90 LINE SMOOTH",
"0 96 OFFCURVE",
"4 100 OFFCURVE",
"10 100 CURVE SMOOTH",
"590 100 LINE SMOOTH",
"596 100 OFFCURVE",
"600 96 OFFCURVE",
"600 90 CURVE SMOOTH"
);
}
);
width = 600;
}
);
unicode = 203A;
},
{
glyphname = dollar;
layers = (
{
layerId = "2B2FE4A8-39A2-493B-A970-B9343EE81639";
name = Regular;
paths = (
{
closed = 1;
nodes = (
"211 321 LINE",
"260 326 OFFCURVE",
"297 366 OFFCURVE",
"300 415 CURVE",
"297 462 OFFCURVE",
"258 500 OFFCURVE",
"210 500 CURVE SMOOTH",
"121 500 LINE",
"121 411 LINE SMOOTH",
"121 361 OFFCURVE",
"161 321 OFFCURVE",
"210 321 CURVE SMOOTH"
);
},
{
closed = 1;
nodes = (
"479 500 LINE",
"389 500 LINE SMOOTH",
"342 500 OFFCURVE",
"302 462 OFFCURVE",
"300 415 CURVE",
"302 366 OFFCURVE",
"340 326 OFFCURVE",
"389 321 CURVE",
"439 321 OFFCURVE",
"479 361 OFFCURVE",
"479 411 CURVE SMOOTH"
);
},
{
closed = 1;
nodes = (
"181 427 OFFCURVE",
"194 440 OFFCURVE",
"210 440 CURVE SMOOTH",
"227 440 OFFCURVE",
"240 427 OFFCURVE",
"240 411 CURVE SMOOTH",
"240 394 OFFCURVE",
"227 381 OFFCURVE",
"210 381 CURVE SMOOTH",
"194 381 OFFCURVE",
"181 394 OFFCURVE",
"181 411 CURVE SMOOTH"
);
},
{
closed = 1;
nodes = (
"373 381 OFFCURVE",
"360 394 OFFCURVE",
"360 411 CURVE SMOOTH",
"360 427 OFFCURVE",
"373 440 OFFCURVE",
"389 440 CURVE SMOOTH",
"406 440 OFFCURVE",
"419 427 OFFCURVE",
"419 411 CURVE SMOOTH",
"419 394 OFFCURVE",
"406 381 OFFCURVE",
"389 381 CURVE SMOOTH"
);
},
{
closed = 1;
nodes = (
"491 138 LINE",
"478 368 LINE",
"473 323 OFFCURVE",
"435 289 OFFCURVE",
"389 289 CURVE SMOOTH",
"335 289 LINE",
"314 271 OFFCURVE",
"300 243 OFFCURVE",
"300 213 CURVE",
"300 243 OFFCURVE",
"286 271 OFFCURVE",
"265 289 CURVE",
"210 289 LINE SMOOTH",
"165 289 OFFCURVE",
"127 323 OFFCURVE",
"122 368 CURVE",
"109 138 LINE",
"109 132 LINE SMOOTH",
"109 103 OFFCURVE",
"135 77 OFFCURVE",
"176 60 CURVE",
"168 57 OFFCURVE",
"161 52 OFFCURVE",
"158 47 CURVE SMOOTH",
"151 35 OFFCURVE",
"165 20 OFFCURVE",
"170 10 CURVE",
"175 31 OFFCURVE",
"195 13 OFFCURVE",
"198 0 CURVE",
"201 13 OFFCURVE",
"219 29 OFFCURVE",
"225 11 CURVE",
"229 17 OFFCURVE",
"239 33 OFFCURVE",
"239 39 CURVE SMOOTH",
"239 42 LINE",
"258 39 OFFCURVE",
"279 37 OFFCURVE",
"300 37 CURVE SMOOTH",
"321 37 OFFCURVE",
"340 39 OFFCURVE",
"359 42 CURVE",
"358 31 OFFCURVE",
"369 18 OFFCURVE",
"373 10 CURVE",
"378 31 OFFCURVE",
"398 13 OFFCURVE",
"400 0 CURVE",
"403 13 OFFCURVE",
"422 29 OFFCURVE",
"428 11 CURVE",
"431 17 OFFCURVE",
"442 33 OFFCURVE",
"442 39 CURVE SMOOTH",
"442 50 OFFCURVE",
"435 57 OFFCURVE",
"425 60 CURVE",
"465 78 OFFCURVE",
"491 104 OFFCURVE",
"491 132 CURVE SMOOTH"
);
}
);
width = 600;
}
);
unicode = 0024;
},
{
glyphname = divide;
layers = (
{
layerId = "2B2FE4A8-39A2-493B-A970-B9343EE81639";
name = Regular;
paths = (
{
closed = 1;
nodes = (
"88 400 LINE",
"512 400 LINE",
"300 100 LINE"
);
}
);
width = 600;
}
);
unicode = 00F7;
},
{
glyphname = equal;
layers = (
{
layerId = "2B2FE4A8-39A2-493B-A970-B9343EE81639";
name = Regular;
paths = (
{
closed = 1;
nodes = (
"83 50 LINE SMOOTH",
"75 42 OFFCURVE",
"75 29 OFFCURVE",
"83 21 CURVE SMOOTH",
"98 6 LINE SMOOTH",
"106 -2 OFFCURVE",
"119 -2 OFFCURVE",
"127 6 CURVE SMOOTH",
"204 83 LINE",
"295 14 OFFCURVE",
"426 21 OFFCURVE",
"509 104 CURVE SMOOTH",
"600 194 OFFCURVE",
"600 341 OFFCURVE",
"509 432 CURVE SMOOTH",
"418 523 OFFCURVE",
"271 523 OFFCURVE",
"181 432 CURVE SMOOTH",
"98 349 OFFCURVE",
"91 218 OFFCURVE",
"160 127 CURVE"
);
},
{
closed = 1;
nodes = (
"174 169 OFFCURVE",
"154 217 OFFCURVE",
"154 268 CURVE SMOOTH",
"154 319 OFFCURVE",
"174 367 OFFCURVE",
"210 403 CURVE SMOOTH",
"246 439 OFFCURVE",
"294 459 OFFCURVE",
"345 459 CURVE SMOOTH",
"396 459 OFFCURVE",
"444 439 OFFCURVE",
"480 403 CURVE SMOOTH",
"516 367 OFFCURVE",
"536 319 OFFCURVE",
"536 268 CURVE SMOOTH",
"536 217 OFFCURVE",
"516 169 OFFCURVE",
"480 133 CURVE SMOOTH",
"444 97 OFFCURVE",
"396 77 OFFCURVE",
"345 77 CURVE SMOOTH",
"294 77 OFFCURVE",
"246 97 OFFCURVE",
"210 133 CURVE SMOOTH"
);
},
{
closed = 1;
nodes = (
"458 347 LINE",
"359 347 LINE",
"331 374 LINE",
"267 374 LINE",
"240 339 LINE",
"240 174 LINE",
"458 174 LINE"
);
}
);
width = 600;
}
);
unicode = 003D;
},
{
glyphname = percent;
layers = (
{
layerId = "2B2FE4A8-39A2-493B-A970-B9343EE81639";
name = Regular;
paths = (
{
closed = 1;
nodes = (
"83 50 LINE SMOOTH",
"75 42 OFFCURVE",
"75 29 OFFCURVE",
"83 21 CURVE SMOOTH",
"98 6 LINE SMOOTH",
"106 -2 OFFCURVE",
"119 -2 OFFCURVE",
"127 6 CURVE SMOOTH",
"204 83 LINE",
"295 14 OFFCURVE",
"426 21 OFFCURVE",
"509 104 CURVE SMOOTH",
"600 194 OFFCURVE",
"600 341 OFFCURVE",
"509 432 CURVE SMOOTH",
"418 523 OFFCURVE",
"271 523 OFFCURVE",
"181 432 CURVE SMOOTH",
"98 349 OFFCURVE",
"91 218 OFFCURVE",
"160 127 CURVE"
);
},
{
closed = 1;
nodes = (
"174 169 OFFCURVE",
"154 217 OFFCURVE",
"154 268 CURVE SMOOTH",
"154 319 OFFCURVE",
"174 367 OFFCURVE",
"210 403 CURVE SMOOTH",
"246 439 OFFCURVE",
"294 459 OFFCURVE",
"345 459 CURVE SMOOTH",
"396 459 OFFCURVE",
"444 439 OFFCURVE",
"480 403 CURVE SMOOTH",
"516 367 OFFCURVE",
"536 319 OFFCURVE",
"536 268 CURVE SMOOTH",
"536 217 OFFCURVE",
"516 169 OFFCURVE",
"480 133 CURVE SMOOTH",
"444 97 OFFCURVE",
"396 77 OFFCURVE",
"345 77 CURVE SMOOTH",
"294 77 OFFCURVE",
"246 97 OFFCURVE",
"210 133 CURVE SMOOTH"
);
},
{
closed = 1;
nodes = (
"235 352 LINE SMOOTH",
"226 352 OFFCURVE",
"218 344 OFFCURVE",
"218 335 CURVE SMOOTH",
"218 199 LINE SMOOTH",
"218 190 OFFCURVE",
"226 182 OFFCURVE",
"235 182 CURVE SMOOTH",
"465 182 LINE SMOOTH",
"474 182 OFFCURVE",
"482 190 OFFCURVE",
"482 199 CURVE SMOOTH",
"482 335 LINE SMOOTH",
"482 344 OFFCURVE",
"474 352 OFFCURVE",
"465 352 CURVE SMOOTH"
);
},
{
closed = 1;
nodes = (
"338 333 LINE",
"338 210 LINE",
"321 210 LINE",
"321 211 OFFCURVE",
"321 211 OFFCURVE",
"321 212 CURVE SMOOTH",
"321 223 OFFCURVE",
"315 242 OFFCURVE",
"304 242 CURVE SMOOTH",
"292 242 LINE SMOOTH",
"292 242 OFFCURVE",
"293 244 OFFCURVE",
"293 245 CURVE",
"303 249 OFFCURVE",
"311 260 OFFCURVE",
"311 272 CURVE SMOOTH",
"311 288 OFFCURVE",
"299 300 OFFCURVE",
"284 300 CURVE SMOOTH",
"270 300 OFFCURVE",
"257 288 OFFCURVE",
"257 272 CURVE SMOOTH",
"257 260 OFFCURVE",
"265 249 OFFCURVE",
"275 245 CURVE",
"275 244 OFFCURVE",
"275 242 OFFCURVE",
"276 242 CURVE",
"265 242 LINE SMOOTH",
"256 242 OFFCURVE",
"249 230 OFFCURVE",
"249 218 CURVE",
"248 216 OFFCURVE",
"248 215 OFFCURVE",
"248 214 CURVE SMOOTH",
"248 213 OFFCURVE",
"248 213 OFFCURVE",
"248 212 CURVE SMOOTH",
"248 210 LINE",
"232 210 LINE",
"232 333 LINE"
);
},
{
closed = 1;
nodes = (
"463 333 LINE",
"463 298 LINE",
"350 298 LINE",
"350 333 LINE"
);
},
{
closed = 1;
nodes = (
"350 256 LINE",
"350 275 LINE",
"388 275 LINE",
"388 256 LINE"
);
},
{
closed = 1;
nodes = (
"463 275 LINE",
"463 256 LINE",
"407 256 LINE",
"407 275 LINE"
);
},
{
closed = 1;
nodes = (
"463 231 LINE",
"463 208 LINE",
"350 208 LINE",
"350 231 LINE"
);
}
);
width = 600;
}
);
unicode = 0025;
},
{
glyphname = plus;
lastChange = "2013-03-19 15:43:06 -0300";
layers = (
{
background = {
paths = (
{
closed = 1;
nodes = (
"45 50 LINE SMOOTH",
"37 42 OFFCURVE",
"37 29 OFFCURVE",
"45 21 CURVE SMOOTH",
"60 6 LINE SMOOTH",
"68 -2 OFFCURVE",
"81 -2 OFFCURVE",
"89 6 CURVE SMOOTH",
"166 83 LINE",
"257 14 OFFCURVE",
"388 21 OFFCURVE",
"471 104 CURVE SMOOTH",
"562 194 OFFCURVE",
"562 341 OFFCURVE",
"471 432 CURVE SMOOTH",
"380 523 OFFCURVE",
"233 523 OFFCURVE",
"143 432 CURVE SMOOTH",
"60 349 OFFCURVE",
"53 218 OFFCURVE",
"122 127 CURVE"
);
},
{
closed = 1;
nodes = (
"136 169 OFFCURVE",
"116 217 OFFCURVE",
"116 268 CURVE SMOOTH",
"116 319 OFFCURVE",
"136 367 OFFCURVE",
"172 403 CURVE SMOOTH",
"208 439 OFFCURVE",
"256 459 OFFCURVE",
"307 459 CURVE SMOOTH",
"358 459 OFFCURVE",
"406 439 OFFCURVE",
"442 403 CURVE SMOOTH",
"478 367 OFFCURVE",
"498 319 OFFCURVE",
"498 268 CURVE SMOOTH",
"498 217 OFFCURVE",
"478 169 OFFCURVE",
"442 133 CURVE SMOOTH",
"406 97 OFFCURVE",
"358 77 OFFCURVE",
"307 77 CURVE SMOOTH",
"256 77 OFFCURVE",
"208 97 OFFCURVE",
"172 133 CURVE SMOOTH"
);
},
{
closed = 1;
nodes = (
"260 392 OFFCURVE",
"228 359 OFFCURVE",
"228 319 CURVE SMOOTH",
"228 299 OFFCURVE",
"233 284 OFFCURVE",
"248 266 CURVE",
"253 236 OFFCURVE",
"276 208 OFFCURVE",
"306 208 CURVE SMOOTH",
"338 208 OFFCURVE",
"359 236 OFFCURVE",
"364 266 CURVE",
"379 284 OFFCURVE",
"386 299 OFFCURVE",
"386 319 CURVE SMOOTH",
"386 359 OFFCURVE",
"354 392 OFFCURVE",
"306 392 CURVE SMOOTH"
);
},
{
closed = 1;
nodes = (
"273 289 LINE",
"273 289 OFFCURVE",
"273 291 OFFCURVE",
"276 291 CURVE SMOOTH",
"278 291 OFFCURVE",
"281 291 OFFCURVE",
"281 289 CURVE",
"301 251 LINE",
"303 251 OFFCURVE",
"306 251 OFFCURVE",
"306 251 CURVE",
"311 251 LINE",
"331 289 LINE",
"331 291 OFFCURVE",
"333 291 OFFCURVE",
"336 291 CURVE SMOOTH",
"338 291 OFFCURVE",
"341 289 OFFCURVE",
"341 289 CURVE",
"321 248 LINE",
"333 248 OFFCURVE",
"341 243 OFFCURVE",
"341 238 CURVE SMOOTH",
"341 233 OFFCURVE",
"326 228 OFFCURVE",
"306 228 CURVE SMOOTH",
"286 228 OFFCURVE",
"270 233 OFFCURVE",
"270 238 CURVE SMOOTH",
"270 243 OFFCURVE",
"281 248 OFFCURVE",
"293 248 CURVE"
);
},
{
closed = 1;
nodes = (
"266 173 LINE SMOOTH",
"266 166 OFFCURVE",
"276 157 OFFCURVE",
"291 155 CURVE",
"291 147 LINE SMOOTH",
"291 143 OFFCURVE",
"293 140 OFFCURVE",
"298 140 CURVE SMOOTH",
"313 140 LINE SMOOTH",
"318 140 OFFCURVE",
"323 143 OFFCURVE",
"323 147 CURVE SMOOTH",
"323 155 LINE",
"336 157 OFFCURVE",
"346 166 OFFCURVE",
"346 173 CURVE SMOOTH",
"346 200 LINE",
"336 190 OFFCURVE",
"321 186 OFFCURVE",
"306 186 CURVE SMOOTH",
"291 186 OFFCURVE",
"278 190 OFFCURVE",
"266 200 CURVE"
);
},
{
closed = 1;
nodes = (
"338 176 LINE",
"338 176 OFFCURVE",
"326 166 OFFCURVE",
"306 166 CURVE SMOOTH",
"286 166 OFFCURVE",
"273 176 OFFCURVE",
"273 176 CURVE",
"273 186 LINE",
"273 186 OFFCURVE",
"291 176 OFFCURVE",
"306 176 CURVE SMOOTH",
"323 176 OFFCURVE",
"338 186 OFFCURVE",
"338 186 CURVE"
);
}
);
};
layerId = "2B2FE4A8-39A2-493B-A970-B9343EE81639";
name = Regular;
paths = (
{
closed = 1;
nodes = (
"45 50 LINE SMOOTH",
"37 42 OFFCURVE",
"37 29 OFFCURVE",
"45 21 CURVE SMOOTH",
"60 6 LINE SMOOTH",
"68 -2 OFFCURVE",
"81 -2 OFFCURVE",
"89 6 CURVE SMOOTH",
"166 83 LINE",
"257 14 OFFCURVE",
"388 21 OFFCURVE",
"471 104 CURVE SMOOTH",
"562 194 OFFCURVE",
"562 341 OFFCURVE",
"471 432 CURVE SMOOTH",
"380 523 OFFCURVE",
"233 523 OFFCURVE",
"143 432 CURVE SMOOTH",
"60 349 OFFCURVE",
"53 218 OFFCURVE",
"122 127 CURVE"
);
},
{
closed = 1;
nodes = (
"136 169 OFFCURVE",
"116 217 OFFCURVE",
"116 268 CURVE SMOOTH",
"116 319 OFFCURVE",
"136 367 OFFCURVE",
"172 403 CURVE SMOOTH",
"208 439 OFFCURVE",
"256 459 OFFCURVE",
"307 459 CURVE SMOOTH",
"358 459 OFFCURVE",
"406 439 OFFCURVE",
"442 403 CURVE SMOOTH",
"478 367 OFFCURVE",
"498 319 OFFCURVE",
"498 268 CURVE SMOOTH",
"498 217 OFFCURVE",
"478 169 OFFCURVE",
"442 133 CURVE SMOOTH",
"406 97 OFFCURVE",
"358 77 OFFCURVE",
"307 77 CURVE SMOOTH",
"256 77 OFFCURVE",
"208 97 OFFCURVE",
"172 133 CURVE SMOOTH"
);
},
{
closed = 1;
nodes = (
"260 392 OFFCURVE",
"228 359 OFFCURVE",
"228 319 CURVE SMOOTH",
"228 299 OFFCURVE",
"233 284 OFFCURVE",
"248 266 CURVE",
"253 236 OFFCURVE",
"276 208 OFFCURVE",
"306 208 CURVE SMOOTH",
"338 208 OFFCURVE",
"359 236 OFFCURVE",
"364 266 CURVE",
"379 284 OFFCURVE",
"386 299 OFFCURVE",
"386 319 CURVE SMOOTH",
"386 359 OFFCURVE",
"354 392 OFFCURVE",
"306 392 CURVE SMOOTH"
);
},
{
closed = 1;
nodes = (
"273 289 LINE",
"273 289 OFFCURVE",
"273 291 OFFCURVE",
"276 291 CURVE SMOOTH",
"278 291 OFFCURVE",
"281 291 OFFCURVE",
"281 289 CURVE",
"301 251 LINE",
"303 251 OFFCURVE",
"306 251 OFFCURVE",
"306 251 CURVE",
"311 251 LINE",
"331 289 LINE",
"331 291 OFFCURVE",
"333 291 OFFCURVE",
"336 291 CURVE SMOOTH",
"338 291 OFFCURVE",
"341 289 OFFCURVE",
"341 289 CURVE",
"321 248 LINE",
"333 248 OFFCURVE",
"341 243 OFFCURVE",
"341 238 CURVE SMOOTH",
"341 233 OFFCURVE",
"326 228 OFFCURVE",
"306 228 CURVE SMOOTH",
"286 228 OFFCURVE",
"270 233 OFFCURVE",
"270 238 CURVE SMOOTH",
"270 243 OFFCURVE",
"281 248 OFFCURVE",
"293 248 CURVE"
);
},
{
closed = 1;
nodes = (
"266 173 LINE SMOOTH",
"266 166 OFFCURVE",
"276 157 OFFCURVE",
"291 155 CURVE",
"291 147 LINE SMOOTH",
"291 143 OFFCURVE",
"293 140 OFFCURVE",
"298 140 CURVE SMOOTH",
"313 140 LINE SMOOTH",
"318 140 OFFCURVE",
"323 143 OFFCURVE",
"323 147 CURVE SMOOTH",
"323 155 LINE",
"336 157 OFFCURVE",
"346 166 OFFCURVE",
"346 173 CURVE SMOOTH",
"346 200 LINE",
"336 190 OFFCURVE",
"321 186 OFFCURVE",
"306 186 CURVE SMOOTH",
"291 186 OFFCURVE",
"278 190 OFFCURVE",
"266 200 CURVE"
);
},
{
closed = 1;
nodes = (
"338 176 LINE",
"338 176 OFFCURVE",
"326 166 OFFCURVE",
"306 166 CURVE SMOOTH",
"286 166 OFFCURVE",
"273 176 OFFCURVE",
"273 176 CURVE",
"273 186 LINE",
"273 186 OFFCURVE",
"291 176 OFFCURVE",
"306 176 CURVE SMOOTH",
"323 176 OFFCURVE",
"338 186 OFFCURVE",
"338 186 CURVE"
);
}
);
width = 600;
},
{
associatedMasterId = "2B2FE4A8-39A2-493B-A970-B9343EE81639";
layerId = "C3E07DE6-1F0D-4EB9-B814-35F02EA15E70";
name = "Regular Mar 19 13, 15:39";
paths = (
{
closed = 1;
nodes = (
"45 50 LINE SMOOTH",
"37 42 OFFCURVE",
"37 29 OFFCURVE",
"45 21 CURVE SMOOTH",
"60 6 LINE SMOOTH",
"68 -2 OFFCURVE",
"81 -2 OFFCURVE",
"89 6 CURVE SMOOTH",
"166 83 LINE",
"257 14 OFFCURVE",
"388 21 OFFCURVE",
"471 104 CURVE SMOOTH",
"562 194 OFFCURVE",
"562 341 OFFCURVE",
"471 432 CURVE SMOOTH",
"380 523 OFFCURVE",
"233 523 OFFCURVE",
"143 432 CURVE SMOOTH",
"60 349 OFFCURVE",
"53 218 OFFCURVE",
"122 127 CURVE"
);
},
{
closed = 1;
nodes = (
"136 169 OFFCURVE",
"116 217 OFFCURVE",
"116 268 CURVE SMOOTH",
"116 319 OFFCURVE",
"136 367 OFFCURVE",
"172 403 CURVE SMOOTH",
"208 439 OFFCURVE",
"256 459 OFFCURVE",
"307 459 CURVE SMOOTH",
"358 459 OFFCURVE",
"406 439 OFFCURVE",
"442 403 CURVE SMOOTH",
"478 367 OFFCURVE",
"498 319 OFFCURVE",
"498 268 CURVE SMOOTH",
"498 217 OFFCURVE",
"478 169 OFFCURVE",
"442 133 CURVE SMOOTH",
"406 97 OFFCURVE",
"358 77 OFFCURVE",
"307 77 CURVE SMOOTH",
"256 77 OFFCURVE",
"208 97 OFFCURVE",
"172 133 CURVE SMOOTH"
);
},
{
closed = 1;
nodes = (
"260 392 OFFCURVE",
"228 359 OFFCURVE",
"228 319 CURVE SMOOTH",
"228 299 OFFCURVE",
"233 284 OFFCURVE",
"248 266 CURVE",
"253 236 OFFCURVE",
"276 208 OFFCURVE",
"306 208 CURVE SMOOTH",
"338 208 OFFCURVE",
"359 236 OFFCURVE",
"364 266 CURVE",
"379 284 OFFCURVE",
"386 299 OFFCURVE",
"386 319 CURVE SMOOTH",
"386 359 OFFCURVE",
"354 392 OFFCURVE",
"306 392 CURVE SMOOTH"
);
},
{
closed = 1;
nodes = (
"273 289 LINE",
"273 289 OFFCURVE",
"273 291 OFFCURVE",
"276 291 CURVE SMOOTH",
"277 291 OFFCURVE",
"278 291 OFFCURVE",
"279 291 CURVE SMOOTH",
"281 290 OFFCURVE",
"282 287 OFFCURVE",
"286 280 CURVE SMOOTH",
"295 262 LINE SMOOTH",
"299 254 OFFCURVE",
"303 251 OFFCURVE",
"306 251 CURVE",
"299 251 LINE SMOOTH",
"307 251 OFFCURVE",
"313 254 OFFCURVE",
"317 262 CURVE SMOOTH",
"331 289 LINE",
"331 291 OFFCURVE",
"333 291 OFFCURVE",
"336 291 CURVE SMOOTH",
"338 291 OFFCURVE",
"341 289 OFFCURVE",
"341 289 CURVE",
"328 261 LINE SMOOTH",
"323 253 OFFCURVE",
"327 250 OFFCURVE",
"336 245 CURVE SMOOTH",
"339 243 OFFCURVE",
"341 240 OFFCURVE",
"341 238 CURVE SMOOTH",
"341 233 OFFCURVE",
"326 228 OFFCURVE",
"306 228 CURVE SMOOTH",
"286 228 OFFCURVE",
"270 233 OFFCURVE",
"270 238 CURVE SMOOTH",
"270 241 OFFCURVE",
"274 244 OFFCURVE",
"280 246 CURVE SMOOTH",
"288 249 OFFCURVE",
"290 253 OFFCURVE",
"286 262 CURVE SMOOTH"
);
},
{
closed = 1;
nodes = (
"266 173 LINE SMOOTH",
"266 166 OFFCURVE",
"276 157 OFFCURVE",
"291 155 CURVE",
"291 147 LINE SMOOTH",
"291 143 OFFCURVE",
"293 140 OFFCURVE",
"298 140 CURVE SMOOTH",
"313 140 LINE SMOOTH",
"318 140 OFFCURVE",
"323 143 OFFCURVE",
"323 147 CURVE SMOOTH",
"323 155 LINE",
"336 157 OFFCURVE",
"346 166 OFFCURVE",
"346 173 CURVE SMOOTH",
"346 181 LINE SMOOTH",
"346 192 OFFCURVE",
"341 194 OFFCURVE",
"330 190 CURVE SMOOTH",
"323 187 OFFCURVE",
"314 186 OFFCURVE",
"306 186 CURVE SMOOTH",
"298 186 OFFCURVE",
"290 187 OFFCURVE",
"283 190 CURVE SMOOTH",
"272 194 OFFCURVE",
"266 195 OFFCURVE",
"266 187 CURVE SMOOTH"
);
},
{
closed = 1;
nodes = (
"338 176 LINE",
"338 176 OFFCURVE",
"326 166 OFFCURVE",
"306 166 CURVE SMOOTH",
"286 166 OFFCURVE",
"273 176 OFFCURVE",
"273 176 CURVE",
"273 186 LINE",
"273 186 OFFCURVE",
"291 176 OFFCURVE",
"306 176 CURVE SMOOTH",
"323 176 OFFCURVE",
"338 186 OFFCURVE",
"338 186 CURVE"
);
}
);
width = 600;
}
);
unicode = 002B;
},
{
glyphname = bar;
layers = (
{
layerId = "2B2FE4A8-39A2-493B-A970-B9343EE81639";
name = Regular;
paths = (
{
closed = 1;
nodes = (
"450 400 LINE",
"450 100 LINE",
"150 100 LINE",
"150 400 LINE"
);
}
);
width = 600;
}
);
unicode = 007C;
},
{
glyphname = fraction;
lastChange = "2013-01-21 16:09:46 -0300";
layers = (
{
layerId = "2B2FE4A8-39A2-493B-A970-B9343EE81639";
name = Regular;
paths = (
{
closed = 1;
nodes = (
"218 80 OFFCURVE",
"220 89 OFFCURVE",
"223 100 CURVE SMOOTH",
"265 253 LINE SMOOTH",
"265 255 OFFCURVE",
"266 256 OFFCURVE",
"266 258 CURVE SMOOTH",
"266 260 OFFCURVE",
"266 261 OFFCURVE",
"266 263 CURVE SMOOTH",
"266 272 OFFCURVE",
"264 278 OFFCURVE",
"258 280 CURVE SMOOTH",
"252 282 OFFCURVE",
"242 284 OFFCURVE",
"226 284 CURVE",
"226 302 LINE",
"239 303 OFFCURVE",
"258 305 OFFCURVE",
"282 308 CURVE SMOOTH",
"306 310 OFFCURVE",
"323 313 OFFCURVE",
"333 315 CURVE SMOOTH",
"362 320 LINE",
"310 127 LINE SMOOTH",
"305 110 OFFCURVE",
"302 99 OFFCURVE",
"301 93 CURVE SMOOTH",
"297 76 OFFCURVE",
"295 66 OFFCURVE",
"295 61 CURVE SMOOTH",
"295 56 OFFCURVE",
"296 53 OFFCURVE",
"298 51 CURVE SMOOTH",
"300 50 OFFCURVE",
"303 49 OFFCURVE",
"305 49 CURVE SMOOTH",
"312 49 OFFCURVE",
"321 55 OFFCURVE",
"331 67 CURVE SMOOTH",
"341 78 OFFCURVE",
"350 91 OFFCURVE",
"358 103 CURVE",
"373 94 LINE",
"351 61 OFFCURVE",
"334 39 OFFCURVE",
"322 28 CURVE SMOOTH",
"303 10 OFFCURVE",
"282 0 OFFCURVE",
"260 0 CURVE SMOOTH",
"248 0 OFFCURVE",
"237 4 OFFCURVE",
"227 12 CURVE SMOOTH",
"217 19 OFFCURVE",
"212 31 OFFCURVE",
"212 47 CURVE SMOOTH",
"212 52 OFFCURVE",
"213 61 OFFCURVE",
"216 73 CURVE SMOOTH"
);
},
{
closed = 1;
nodes = (
"383 470 OFFCURVE",
"389 455 OFFCURVE",
"389 437 CURVE SMOOTH",
"389 420 OFFCURVE",
"383 405 OFFCURVE",
"371 392 CURVE SMOOTH",
"358 380 OFFCURVE",
"343 374 OFFCURVE",
"326 374 CURVE SMOOTH",
"308 374 OFFCURVE",
"293 380 OFFCURVE",
"281 392 CURVE SMOOTH",
"269 405 OFFCURVE",
"262 420 OFFCURVE",
"262 437 CURVE SMOOTH",
"262 455 OFFCURVE",
"269 470 OFFCURVE",
"281 482 CURVE SMOOTH",
"293 494 OFFCURVE",
"308 500 OFFCURVE",
"326 500 CURVE SMOOTH",
"343 500 OFFCURVE",
"358 494 OFFCURVE",
"371 482 CURVE SMOOTH"
);
}
);
width = 600;
}
);
unicode = 2044;
},
{
glyphname = asterisk;
lastChange = "2013-01-21 15:58:07 -0300";
layers = (
{
layerId = "2B2FE4A8-39A2-493B-A970-B9343EE81639";
name = Regular;
paths = (
{
closed = 1;
nodes = (
"328 251 OFFCURVE",
"289 212 OFFCURVE",
"240 212 CURVE SMOOTH",
"192 212 OFFCURVE",
"153 251 OFFCURVE",
"153 299 CURVE SMOOTH",
"153 347 OFFCURVE",
"192 387 OFFCURVE",
"240 387 CURVE SMOOTH",
"289 387 OFFCURVE",
"328 347 OFFCURVE",
"328 299 CURVE SMOOTH"
);
},
{
closed = 1;
nodes = (
"394 129 OFFCURVE",
"368 103 OFFCURVE",
"335 103 CURVE SMOOTH",
"302 103 OFFCURVE",
"276 129 OFFCURVE",
"276 162 CURVE SMOOTH",
"276 195 OFFCURVE",
"302 221 OFFCURVE",
"335 221 CURVE SMOOTH",
"368 221 OFFCURVE",
"394 195 OFFCURVE",
"394 162 CURVE SMOOTH"
);
},
{
closed = 1;
nodes = (
"433 257 OFFCURVE",
"415 239 OFFCURVE",
"393 239 CURVE SMOOTH",
"370 239 OFFCURVE",
"352 257 OFFCURVE",
"352 279 CURVE SMOOTH",
"352 301 OFFCURVE",
"370 319 OFFCURVE",
"393 319 CURVE SMOOTH",
"415 319 OFFCURVE",
"433 301 OFFCURVE",
"433 279 CURVE SMOOTH"
);
},
{
closed = 1;
nodes = (
"162 0 OFFCURVE",
"50 112 OFFCURVE",
"50 250 CURVE SMOOTH",
"50 388 OFFCURVE",
"162 500 OFFCURVE",
"300 500 CURVE SMOOTH",
"438 500 OFFCURVE",
"550 388 OFFCURVE",
"550 250 CURVE SMOOTH",
"550 112 OFFCURVE",
"438 0 OFFCURVE",
"300 0 CURVE SMOOTH"
);
},
{
closed = 1;
nodes = (
"187 456 OFFCURVE",
"94 364 OFFCURVE",
"94 250 CURVE SMOOTH",
"94 137 OFFCURVE",
"187 44 OFFCURVE",
"300 44 CURVE SMOOTH",
"414 44 OFFCURVE",
"506 137 OFFCURVE",
"506 250 CURVE SMOOTH",
"506 364 OFFCURVE",
"414 456 OFFCURVE",
"300 456 CURVE SMOOTH"
);
}
);
width = 600;
}
);
unicode = 002A;
},
{
glyphname = exclamdown;
lastChange = "2013-04-05 12:44:41 -0300";
layers = (
{
layerId = "2B2FE4A8-39A2-493B-A970-B9343EE81639";
name = Regular;
paths = (
{
closed = 1;
nodes = (
"512 100 LINE",
"88 100 LINE",
"300 400 LINE"
);
}
);
width = 600;
}
);
unicode = 00A1;
},
{
glyphname = questiondown;
lastChange = "2013-04-09 19:47:02 -0300";
layers = (
{
layerId = "2B2FE4A8-39A2-493B-A970-B9343EE81639";
name = Regular;
paths = (
{
closed = 1;
nodes = (
"516 410 OFFCURVE",
"481 432 OFFCURVE",
"448 452 CURVE SMOOTH",
"404 479 OFFCURVE",
"358 500 OFFCURVE",
"300 500 CURVE SMOOTH",
"245 500 OFFCURVE",
"207 479 OFFCURVE",
"164 454 CURVE SMOOTH",
"138 439 OFFCURVE",
"101 427 OFFCURVE",
"83 405 CURVE SMOOTH",
"51 367 OFFCURVE",
"43 317 OFFCURVE",
"43 266 CURVE SMOOTH",
"43 240 OFFCURVE",
"65 219 OFFCURVE",
"100 204 CURVE",
"149 30 LINE",
"149 14 OFFCURVE",
"216 0 OFFCURVE",
"298 0 CURVE SMOOTH",
"381 0 OFFCURVE",
"448 14 OFFCURVE",
"448 30 CURVE",
"496 203 LINE",
"534 218 OFFCURVE",
"557 240 OFFCURVE",
"557 267 CURVE SMOOTH",
"557 307 OFFCURVE",
"556 347 OFFCURVE",
"536 379 CURVE SMOOTH"
);
},
{
closed = 1;
nodes = (
"439 442 OFFCURVE",
"454 426 OFFCURVE",
"454 407 CURVE SMOOTH",
"454 388 OFFCURVE",
"439 372 OFFCURVE",
"419 372 CURVE SMOOTH",
"400 372 OFFCURVE",
"384 388 OFFCURVE",
"384 407 CURVE SMOOTH",
"384 426 OFFCURVE",
"400 442 OFFCURVE",
"419 442 CURVE SMOOTH"
);
},
{
closed = 1;
nodes = (
"357 465 OFFCURVE",
"367 455 OFFCURVE",
"367 442 CURVE SMOOTH",
"367 430 OFFCURVE",
"357 419 OFFCURVE",
"344 419 CURVE SMOOTH",
"332 419 OFFCURVE",
"321 430 OFFCURVE",
"321 442 CURVE SMOOTH",
"321 455 OFFCURVE",
"332 465 OFFCURVE",
"344 465 CURVE SMOOTH"
);
},
{
closed = 1;
nodes = (
"317 404 OFFCURVE",
"326 396 OFFCURVE",
"326 385 CURVE SMOOTH",
"326 375 OFFCURVE",
"317 367 OFFCURVE",
"307 367 CURVE SMOOTH",
"297 367 OFFCURVE",
"288 375 OFFCURVE",
"288 385 CURVE SMOOTH",
"288 396 OFFCURVE",
"297 404 OFFCURVE",
"307 404 CURVE SMOOTH"
);
},
{
closed = 1;
nodes = (
"290 484 OFFCURVE",
"294 481 OFFCURVE",
"294 476 CURVE SMOOTH",
"294 471 OFFCURVE",
"290 468 OFFCURVE",
"285 468 CURVE SMOOTH",
"281 468 OFFCURVE",
"277 471 OFFCURVE",
"277 476 CURVE SMOOTH",
"277 481 OFFCURVE",
"281 484 OFFCURVE",
"285 484 CURVE SMOOTH"
);
},
{
closed = 1;
nodes = (
"258 462 OFFCURVE",
"273 446 OFFCURVE",
"273 427 CURVE SMOOTH",
"273 408 OFFCURVE",
"258 392 OFFCURVE",
"238 392 CURVE SMOOTH",
"219 392 OFFCURVE",
"203 408 OFFCURVE",
"203 427 CURVE SMOOTH",
"203 446 OFFCURVE",
"219 462 OFFCURVE",
"238 462 CURVE SMOOTH"
);
},
{
closed = 1;
nodes = (
"130 399 OFFCURVE",
"142 410 OFFCURVE",
"155 410 CURVE SMOOTH",
"169 410 OFFCURVE",
"180 399 OFFCURVE",
"180 385 CURVE SMOOTH",
"180 371 OFFCURVE",
"169 360 OFFCURVE",
"155 360 CURVE SMOOTH",
"142 360 OFFCURVE",
"130 371 OFFCURVE",
"130 385 CURVE SMOOTH"
);
},
{
closed = 1;
nodes = (
"412 44 OFFCURVE",
"402 41 OFFCURVE",
"387 39 CURVE",
"404 121 LINE SMOOTH",
"405 127 OFFCURVE",
"401 133 OFFCURVE",
"396 134 CURVE SMOOTH",
"390 135 OFFCURVE",
"384 131 OFFCURVE",
"383 125 CURVE SMOOTH",
"365 36 LINE",
"357 35 OFFCURVE",
"349 34 OFFCURVE",
"341 34 CURVE",
"341 118 LINE SMOOTH",
"341 124 OFFCURVE",
"337 129 OFFCURVE",
"331 129 CURVE SMOOTH",
"325 129 OFFCURVE",
"321 124 OFFCURVE",
"321 118 CURVE SMOOTH",
"321 33 LINE",
"314 33 OFFCURVE",
"307 32 OFFCURVE",
"299 32 CURVE SMOOTH",
"293 32 OFFCURVE",
"287 32 OFFCURVE",
"282 33 CURVE",
"282 118 LINE SMOOTH",
"282 124 OFFCURVE",
"279 129 OFFCURVE",
"273 129 CURVE SMOOTH",
"267 129 OFFCURVE",
"263 124 OFFCURVE",
"263 118 CURVE SMOOTH",
"263 33 LINE",
"251 34 OFFCURVE",
"242 35 OFFCURVE",
"233 36 CURVE",
"214 125 LINE SMOOTH",
"213 131 OFFCURVE",
"207 135 OFFCURVE",
"201 134 CURVE SMOOTH",
"195 133 OFFCURVE",
"191 127 OFFCURVE",
"193 121 CURVE SMOOTH",
"210 39 LINE",
"195 41 OFFCURVE",
"184 44 OFFCURVE",
"178 46 CURVE",
"139 184 LINE",
"184 173 OFFCURVE",
"240 167 OFFCURVE",
"299 167 CURVE SMOOTH",
"357 167 OFFCURVE",
"412 173 OFFCURVE",
"457 184 CURVE",
"418 46 LINE"
);
}
);
width = 600;
}
);
unicode = 00BF;
},
{
glyphname = quotedbl;
lastChange = "2013-04-09 19:49:06 -0300";
layers = (
{
layerId = "2B2FE4A8-39A2-493B-A970-B9343EE81639";
name = Regular;
paths = (
{
closed = 1;
nodes = (
"235 500 LINE SMOOTH",
"227 500 OFFCURVE",
"221 495 OFFCURVE",
"221 487 CURVE SMOOTH",
"221 415 LINE SMOOTH",
"221 407 OFFCURVE",
"227 400 OFFCURVE",
"235 400 CURVE SMOOTH",
"507 400 LINE SMOOTH",
"514 400 OFFCURVE",
"521 407 OFFCURVE",
"521 415 CURVE SMOOTH",
"521 487 LINE SMOOTH",
"521 495 OFFCURVE",
"514 500 OFFCURVE",
"507 500 CURVE SMOOTH"
);
},
{
closed = 1;
nodes = (
"178 494 OFFCURVE",
"172 500 OFFCURVE",
"164 500 CURVE SMOOTH",
"92 500 LINE SMOOTH",
"84 500 OFFCURVE",
"78 494 OFFCURVE",
"78 486 CURVE SMOOTH",
"78 414 LINE SMOOTH",
"78 406 OFFCURVE",
"84 400 OFFCURVE",
"92 400 CURVE SMOOTH",
"164 400 LINE SMOOTH",
"172 400 OFFCURVE",
"178 406 OFFCURVE",
"178 414 CURVE SMOOTH",
"178 486 LINE SMOOTH"
);
},
{
closed = 1;
nodes = (
"235 327 LINE SMOOTH",
"227 327 OFFCURVE",
"221 322 OFFCURVE",
"221 314 CURVE SMOOTH",
"221 242 LINE SMOOTH",
"221 235 OFFCURVE",
"227 227 OFFCURVE",
"235 227 CURVE SMOOTH",
"507 227 LINE SMOOTH",
"515 227 OFFCURVE",
"521 235 OFFCURVE",
"521 242 CURVE SMOOTH",
"521 314 LINE SMOOTH",
"521 322 OFFCURVE",
"515 327 OFFCURVE",
"507 327 CURVE SMOOTH"
);
},
{
closed = 1;
nodes = (
"92 327 LINE SMOOTH",
"85 327 OFFCURVE",
"78 322 OFFCURVE",
"78 314 CURVE SMOOTH",
"78 242 LINE SMOOTH",
"78 235 OFFCURVE",
"85 227 OFFCURVE",
"92 227 CURVE SMOOTH",
"164 227 LINE SMOOTH",
"172 227 OFFCURVE",
"178 235 OFFCURVE",
"178 242 CURVE SMOOTH",
"178 314 LINE SMOOTH",
"178 322 OFFCURVE",
"172 327 OFFCURVE",
"164 327 CURVE SMOOTH"
);
},
{
closed = 1;
nodes = (
"521 148 OFFCURVE",
"515 154 OFFCURVE",
"507 154 CURVE SMOOTH",
"235 154 LINE SMOOTH",
"227 154 OFFCURVE",
"221 148 OFFCURVE",
"221 140 CURVE SMOOTH",
"221 68 LINE SMOOTH",
"221 60 OFFCURVE",
"227 54 OFFCURVE",
"235 54 CURVE SMOOTH",
"507 54 LINE SMOOTH",
"515 54 OFFCURVE",
"521 60 OFFCURVE",
"521 68 CURVE SMOOTH",
"521 140 LINE SMOOTH"
);
},
{
closed = 1;
nodes = (
"92 154 LINE SMOOTH",
"85 154 OFFCURVE",
"78 149 OFFCURVE",
"78 141 CURVE SMOOTH",
"78 70 LINE SMOOTH",
"78 62 OFFCURVE",
"85 54 OFFCURVE",
"92 54 CURVE SMOOTH",
"164 54 LINE SMOOTH",
"172 54 OFFCURVE",
"178 62 OFFCURVE",
"178 70 CURVE SMOOTH",
"178 141 LINE SMOOTH",
"178 149 OFFCURVE",
"172 154 OFFCURVE",
"164 154 CURVE SMOOTH"
);
}
);
width = 600;
}
);
unicode = 0022;
},
{
glyphname = quotesingle;
lastChange = "2013-04-10 12:16:20 -0300";
layers = (
{
layerId = "2B2FE4A8-39A2-493B-A970-B9343EE81639";
name = Regular;
paths = (
{
closed = 1;
nodes = (
"210 212 OFFCURVE",
"203 215 OFFCURVE",
"191 207 CURVE SMOOTH",
"179 198 OFFCURVE",
"175 190 OFFCURVE",
"175 190 CURVE",
"139 104 LINE",
"130 101 LINE",
"131 107 OFFCURVE",
"130 113 OFFCURVE",
"127 118 CURVE SMOOTH",
"117 135 OFFCURVE",
"92 143 OFFCURVE",
"73 132 CURVE SMOOTH",
"53 121 OFFCURVE",
"45 99 OFFCURVE",
"55 82 CURVE SMOOTH",
"62 68 OFFCURVE",
"80 62 OFFCURVE",
"97 67 CURVE",
"97 66 LINE",
"98 67 LINE",
"99 67 OFFCURVE",
"100 67 OFFCURVE",
"101 68 CURVE",
"128 77 LINE",
"117 50 LINE SMOOTH",
"116 49 OFFCURVE",
"116 48 OFFCURVE",
"116 47 CURVE",
"116 46 LINE",
"116 46 LINE",
"110 30 OFFCURVE",
"115 12 OFFCURVE",
"128 3 CURVE SMOOTH",
"144 -8 OFFCURVE",
"167 -1 OFFCURVE",
"180 18 CURVE SMOOTH",
"192 37 OFFCURVE",
"186 62 OFFCURVE",
"169 73 CURVE SMOOTH",
"164 76 OFFCURVE",
"158 78 OFFCURVE",
"152 78 CURVE",
"156 86 LINE",
"244 115 LINE",
"244 115 OFFCURVE",
"253 119 OFFCURVE",
"262 131 CURVE SMOOTH",
"271 142 OFFCURVE",
"268 150 OFFCURVE",
"268 150 CURVE",
"168 114 LINE",
"210 212 LINE"
);
},
{
closed = 1;
nodes = (
"88 80 OFFCURVE",
"76 83 OFFCURVE",
"71 91 CURVE SMOOTH",
"69 95 OFFCURVE",
"69 100 OFFCURVE",
"70 103 CURVE SMOOTH",
"72 108 OFFCURVE",
"76 113 OFFCURVE",
"82 117 CURVE SMOOTH",
"87 120 OFFCURVE",
"93 121 OFFCURVE",
"98 119 CURVE SMOOTH",
"103 118 OFFCURVE",
"108 113 OFFCURVE",
"110 109 CURVE SMOOTH",
"113 105 OFFCURVE",
"112 101 OFFCURVE",
"111 98 CURVE SMOOTH",
"110 92 OFFCURVE",
"104 89 OFFCURVE",
"98 86 CURVE SMOOTH"
);
},
{
closed = 1;
nodes = (
"169 40 OFFCURVE",
"168 33 OFFCURVE",
"164 28 CURVE SMOOTH",
"163 26 OFFCURVE",
"161 24 OFFCURVE",
"160 23 CURVE SMOOTH",
"157 20 OFFCURVE",
"153 18 OFFCURVE",
"149 17 CURVE SMOOTH",
"146 16 OFFCURVE",
"141 16 OFFCURVE",
"137 19 CURVE SMOOTH",
"134 21 OFFCURVE",
"131 25 OFFCURVE",
"131 30 CURVE SMOOTH",
"130 36 OFFCURVE",
"132 41 OFFCURVE",
"135 47 CURVE SMOOTH",
"136 48 LINE SMOOTH",
"138 51 OFFCURVE",
"140 55 OFFCURVE",
"143 57 CURVE SMOOTH",
"144 58 OFFCURVE",
"146 59 OFFCURVE",
"148 60 CURVE SMOOTH",
"151 60 OFFCURVE",
"155 60 OFFCURVE",
"159 58 CURVE SMOOTH",
"163 55 OFFCURVE",
"168 50 OFFCURVE",
"169 45 CURVE SMOOTH"
);
},
{
closed = 1;
nodes = (
"375 427 LINE",
"368 427 LINE",
"368 433 LINE",
"364 437 LINE",
"368 441 LINE",
"368 448 LINE",
"378 448 LINE SMOOTH",
"382 448 OFFCURVE",
"386 445 OFFCURVE",
"388 442 CURVE SMOOTH",
"389 438 OFFCURVE",
"389 434 OFFCURVE",
"386 431 CURVE SMOOTH",
"379 423 LINE"
);
},
{
closed = 1;
nodes = (
"333 427 LINE",
"333 448 LINE",
"351 448 LINE",
"351 427 LINE"
);
},
{
closed = 1;
nodes = (
"299 427 LINE",
"299 448 LINE",
"316 448 LINE",
"316 427 LINE"
);
},
{
closed = 1;
nodes = (
"271 427 LINE SMOOTH",
"265 427 OFFCURVE",
"261 432 OFFCURVE",
"261 438 CURVE SMOOTH",
"261 448 LINE",
"281 448 LINE",
"281 427 LINE"
);
},
{
closed = 1;
nodes = (
"261 458 LINE",
"261 469 LINE",
"281 469 LINE",
"281 458 LINE"
);
},
{
closed = 1;
nodes = (
"261 479 LINE",
"261 490 LINE SMOOTH",
"261 495 OFFCURVE",
"265 500 OFFCURVE",
"271 500 CURVE SMOOTH",
"281 500 LINE",
"281 479 LINE"
);
},
{
closed = 1;
nodes = (
"415 479 LINE",
"415 500 LINE",
"434 500 LINE",
"434 479 LINE"
);
},
{
closed = 1;
nodes = (
"377 479 LINE",
"377 500 LINE",
"396 500 LINE",
"396 479 LINE"
);
},
{
closed = 1;
nodes = (
"339 479 LINE",
"339 500 LINE",
"358 500 LINE",
"358 479 LINE"
);
},
{
closed = 1;
nodes = (
"300 479 LINE",
"300 500 LINE",
"319 500 LINE",
"319 479 LINE"
);
},
{
closed = 1;
nodes = (
"453 479 LINE",
"453 500 LINE",
"463 500 LINE SMOOTH",
"469 500 OFFCURVE",
"474 495 OFFCURVE",
"474 490 CURVE SMOOTH",
"474 479 LINE"
);
},
{
closed = 1;
nodes = (
"365 350 LINE",
"380 366 LINE",
"395 352 LINE",
"381 337 LINE"
);
},
{
closed = 1;
nodes = (
"394 382 LINE",
"408 398 LINE",
"423 384 LINE",
"409 368 LINE"
);
},
{
closed = 1;
nodes = (
"422 414 LINE",
"436 430 LINE",
"451 416 LINE",
"437 400 LINE"
);
},
{
closed = 1;
nodes = (
"450 446 LINE",
"453 449 LINE",
"453 458 LINE",
"474 458 LINE",
"474 445 LINE SMOOTH",
"474 442 OFFCURVE",
"473 440 OFFCURVE",
"471 438 CURVE SMOOTH",
"466 432 LINE"
);
},
{
closed = 1;
nodes = (
"352 310 LINE SMOOTH",
"348 310 OFFCURVE",
"345 312 OFFCURVE",
"343 316 CURVE SMOOTH",
"341 319 OFFCURVE",
"342 324 OFFCURVE",
"345 327 CURVE SMOOTH",
"351 334 LINE",
"356 330 LINE",
"362 330 LINE",
"362 324 LINE",
"367 321 LINE",
"362 316 LINE",
"362 310 LINE"
);
},
{
closed = 1;
nodes = (
"417 310 LINE",
"417 330 LINE",
"435 330 LINE",
"435 310 LINE"
);
},
{
closed = 1;
nodes = (
"381 310 LINE",
"381 330 LINE",
"399 330 LINE",
"399 310 LINE"
);
},
{
closed = 1;
nodes = (
"453 310 LINE",
"453 330 LINE",
"463 330 LINE SMOOTH",
"469 330 OFFCURVE",
"474 325 OFFCURVE",
"474 320 CURVE SMOOTH",
"474 310 LINE"
);
},
{
closed = 1;
nodes = (
"453 289 LINE",
"453 299 LINE",
"474 299 LINE",
"474 289 LINE"
);
},
{
closed = 1;
nodes = (
"453 258 LINE",
"453 278 LINE",
"474 278 LINE",
"474 268 LINE SMOOTH",
"474 262 OFFCURVE",
"469 258 OFFCURVE",
"463 258 CURVE SMOOTH"
);
},
{
closed = 1;
nodes = (
"414 258 LINE",
"414 278 LINE",
"434 278 LINE",
"434 258 LINE"
);
},
{
closed = 1;
nodes = (
"375 258 LINE",
"375 278 LINE",
"395 278 LINE",
"395 258 LINE"
);
},
{
closed = 1;
nodes = (
"336 258 LINE",
"336 278 LINE",
"356 278 LINE",
"356 258 LINE"
);
},
{
closed = 1;
nodes = (
"297 258 LINE",
"297 278 LINE",
"316 278 LINE",
"316 258 LINE"
);
},
{
closed = 1;
nodes = (
"267 258 LINE SMOOTH",
"262 258 OFFCURVE",
"257 262 OFFCURVE",
"257 268 CURVE SMOOTH",
"257 278 LINE",
"277 278 LINE",
"277 258 LINE"
);
},
{
closed = 1;
nodes = (
"257 299 LINE",
"257 312 LINE SMOOTH",
"257 315 OFFCURVE",
"258 317 OFFCURVE",
"260 319 CURVE SMOOTH",
"265 325 LINE",
"280 312 LINE",
"277 309 LINE",
"277 299 LINE"
);
},
{
closed = 1;
nodes = (
"279 341 LINE",
"293 357 LINE",
"309 344 LINE",
"294 328 LINE"
);
},
{
closed = 1;
nodes = (
"307 373 LINE",
"322 389 LINE",
"337 375 LINE",
"323 360 LINE"
);
},
{
closed = 1;
nodes = (
"336 405 LINE",
"350 421 LINE",
"365 407 LINE",
"351 391 LINE"
);
},
{
closed = 1;
nodes = (
"258 223 LINE",
"258 233 LINE SMOOTH",
"258 239 OFFCURVE",
"263 243 OFFCURVE",
"269 243 CURVE SMOOTH",
"279 243 LINE",
"279 223 LINE"
);
},
{
closed = 1;
nodes = (
"414 223 LINE",
"414 243 LINE",
"433 243 LINE",
"433 223 LINE"
);
},
{
closed = 1;
nodes = (
"375 223 LINE",
"375 243 LINE",
"395 243 LINE",
"395 223 LINE"
);
},
{
closed = 1;
nodes = (
"337 223 LINE",
"337 243 LINE",
"356 243 LINE",
"356 223 LINE"
);
},
{
closed = 1;
nodes = (
"298 223 LINE",
"298 243 LINE",
"317 243 LINE",
"317 223 LINE"
);
},
{
closed = 1;
nodes = (
"453 223 LINE",
"453 243 LINE",
"463 243 LINE SMOOTH",
"468 243 OFFCURVE",
"473 239 OFFCURVE",
"473 233 CURVE SMOOTH",
"473 223 LINE"
);
},
{
closed = 1;
nodes = (
"453 181 LINE",
"453 202 LINE",
"473 202 LINE",
"473 192 LINE SMOOTH",
"473 186 OFFCURVE",
"468 181 OFFCURVE",
"463 181 CURVE SMOOTH"
);
},
{
closed = 1;
nodes = (
"428 181 LINE",
"428 202 LINE",
"440 202 LINE",
"440 181 LINE"
);
},
{
closed = 1;
nodes = (
"396 181 LINE",
"396 192 LINE SMOOTH",
"396 197 OFFCURVE",
"400 202 OFFCURVE",
"406 202 CURVE SMOOTH",
"416 202 LINE",
"416 181 LINE"
);
},
{
closed = 1;
nodes = (
"404 145 OFFCURVE",
"401 146 OFFCURVE",
"400 147 CURVE SMOOTH",
"392 154 LINE",
"396 159 LINE",
"396 166 LINE",
"401 166 LINE",
"404 170 LINE",
"409 166 LINE",
"416 166 LINE",
"416 155 LINE SMOOTH",
"416 151 OFFCURVE",
"414 148 OFFCURVE",
"410 146 CURVE SMOOTH",
"409 146 OFFCURVE",
"407 145 OFFCURVE",
"406 145 CURVE SMOOTH"
);
},
{
closed = 1;
nodes = (
"362 176 LINE",
"375 192 LINE",
"390 181 LINE",
"377 165 LINE"
);
},
{
closed = 1;
nodes = (
"334 181 LINE",
"334 202 LINE",
"353 202 LINE",
"353 181 LINE"
);
},
{
closed = 1;
nodes = (
"297 181 LINE",
"297 202 LINE",
"316 202 LINE",
"316 181 LINE"
);
},
{
closed = 1;
nodes = (
"269 181 LINE SMOOTH",
"266 181 OFFCURVE",
"263 183 OFFCURVE",
"261 184 CURVE SMOOTH",
"259 186 OFFCURVE",
"258 189 OFFCURVE",
"258 192 CURVE SMOOTH",
"258 202 LINE",
"279 202 LINE",
"279 181 LINE"
);
}
);
width = 600;
}
);
unicode = 0027;
},
{
glyphname = endash;
lastChange = "2013-04-10 13:12:35 -0300";
layers = (
{
layerId = "2B2FE4A8-39A2-493B-A970-B9343EE81639";
name = Regular;
paths = (
{
closed = 1;
nodes = (
"461 89 OFFCURVE",
"392 100 OFFCURVE",
"334 103 CURVE",
"339 116 OFFCURVE",
"356 162 OFFCURVE",
"333 228 CURVE SMOOTH",
"307 303 OFFCURVE",
"345 334 OFFCURVE",
"345 334 CURVE SMOOTH",
"345 334 LINE",
"371 350 OFFCURVE",
"388 378 OFFCURVE",
"388 411 CURVE SMOOTH",
"388 460 OFFCURVE",
"348 500 OFFCURVE",
"299 500 CURVE SMOOTH",
"250 500 OFFCURVE",
"210 460 OFFCURVE",
"210 411 CURVE SMOOTH",
"210 378 OFFCURVE",
"227 350 OFFCURVE",
"254 334 CURVE",
"253 334 LINE SMOOTH",
"253 334 OFFCURVE",
"291 303 OFFCURVE",
"265 228 CURVE SMOOTH",
"242 161 OFFCURVE",
"259 115 OFFCURVE",
"265 103 CURVE",
"210 99 OFFCURVE",
"139 89 OFFCURVE",
"139 89 CURVE SMOOTH",
"124 89 OFFCURVE",
"112 77 OFFCURVE",
"112 62 CURVE SMOOTH",
"112 0 LINE",
"487 0 LINE",
"487 62 LINE SMOOTH",
"487 77 OFFCURVE",
"476 89 OFFCURVE",
"461 89 CURVE SMOOTH"
);
}
);
width = 600;
}
);
unicode = 2013;
},
{
glyphname = guillemetleft;
lastChange = "2013-01-22 14:12:20 -0300";
layers = (
{
layerId = "2B2FE4A8-39A2-493B-A970-B9343EE81639";
name = Regular;
paths = (
{
closed = 1;
nodes = (
"525 404 OFFCURVE",
"521 400 OFFCURVE",
"515 400 CURVE SMOOTH",
"85 400 LINE SMOOTH",
"79 400 OFFCURVE",
"75 404 OFFCURVE",
"75 410 CURVE SMOOTH",
"75 490 LINE SMOOTH",
"75 496 OFFCURVE",
"79 500 OFFCURVE",
"85 500 CURVE SMOOTH",
"515 500 LINE SMOOTH",
"521 500 OFFCURVE",
"525 496 OFFCURVE",
"525 490 CURVE SMOOTH",
"525 410 LINE SMOOTH"
);
},
{
closed = 1;
nodes = (
"175 4 OFFCURVE",
"171 0 OFFCURVE",
"165 0 CURVE SMOOTH",
"85 0 LINE SMOOTH",
"79 0 OFFCURVE",
"75 4 OFFCURVE",
"75 10 CURVE SMOOTH",
"75 340 LINE SMOOTH",
"75 346 OFFCURVE",
"79 350 OFFCURVE",
"85 350 CURVE SMOOTH",
"165 350 LINE SMOOTH",
"171 350 OFFCURVE",
"175 346 OFFCURVE",
"175 340 CURVE SMOOTH",
"175 10 LINE SMOOTH"
);
},
{
closed = 1;
nodes = (
"350 4 OFFCURVE",
"346 0 OFFCURVE",
"340 0 CURVE SMOOTH",
"260 0 LINE SMOOTH",
"254 0 OFFCURVE",
"250 4 OFFCURVE",
"250 10 CURVE SMOOTH",
"250 340 LINE SMOOTH",
"250 346 OFFCURVE",
"254 350 OFFCURVE",
"260 350 CURVE SMOOTH",
"340 350 LINE SMOOTH",
"346 350 OFFCURVE",
"350 346 OFFCURVE",
"350 340 CURVE SMOOTH",
"350 10 LINE SMOOTH"
);
},
{
closed = 1;
nodes = (
"525 4 OFFCURVE",
"521 0 OFFCURVE",
"515 0 CURVE SMOOTH",
"435 0 LINE SMOOTH",
"429 0 OFFCURVE",
"425 4 OFFCURVE",
"425 10 CURVE SMOOTH",
"425 340 LINE SMOOTH",
"425 346 OFFCURVE",
"429 350 OFFCURVE",
"435 350 CURVE SMOOTH",
"515 350 LINE SMOOTH",
"521 350 OFFCURVE",
"525 346 OFFCURVE",
"525 340 CURVE SMOOTH",
"525 10 LINE SMOOTH"
);
}
);
width = 600;
}
);
unicode = 00AB;
},
{
glyphname = guillemetright;
lastChange = "2013-01-22 13:50:38 -0300";
layers = (
{
layerId = "2B2FE4A8-39A2-493B-A970-B9343EE81639";
name = Regular;
paths = (
{
closed = 1;
nodes = (
"471 406 OFFCURVE",
"464 400 OFFCURVE",
"457 400 CURVE SMOOTH",
"185 400 LINE SMOOTH",
"177 400 OFFCURVE",
"171 406 OFFCURVE",
"171 414 CURVE SMOOTH",
"171 486 LINE SMOOTH",
"171 494 OFFCURVE",
"177 500 OFFCURVE",
"185 500 CURVE SMOOTH",
"457 500 LINE SMOOTH",
"464 500 OFFCURVE",
"471 494 OFFCURVE",
"471 486 CURVE SMOOTH",
"471 414 LINE SMOOTH"
);
},
{
closed = 1;
nodes = (
"128 406 OFFCURVE",
"122 400 OFFCURVE",
"114 400 CURVE SMOOTH",
"42 400 LINE SMOOTH",
"34 400 OFFCURVE",
"28 406 OFFCURVE",
"28 414 CURVE SMOOTH",
"28 486 LINE SMOOTH",
"28 494 OFFCURVE",
"34 500 OFFCURVE",
"42 500 CURVE SMOOTH",
"114 500 LINE SMOOTH",
"122 500 OFFCURVE",
"128 494 OFFCURVE",
"128 486 CURVE SMOOTH",
"128 414 LINE SMOOTH"
);
},
{
closed = 1;
nodes = (
"571 234 OFFCURVE",
"565 227 OFFCURVE",
"557 227 CURVE SMOOTH",
"285 227 LINE SMOOTH",
"277 227 OFFCURVE",
"271 234 OFFCURVE",
"271 241 CURVE SMOOTH",
"271 313 LINE SMOOTH",
"271 321 OFFCURVE",
"277 327 OFFCURVE",
"285 327 CURVE SMOOTH",
"557 327 LINE SMOOTH",
"565 327 OFFCURVE",
"571 321 OFFCURVE",
"571 313 CURVE SMOOTH",
"571 241 LINE SMOOTH"
);
},
{
closed = 1;
nodes = (
"228 234 OFFCURVE",
"222 227 OFFCURVE",
"214 227 CURVE SMOOTH",
"142 227 LINE SMOOTH",
"135 227 OFFCURVE",
"128 234 OFFCURVE",
"128 241 CURVE SMOOTH",
"128 313 LINE SMOOTH",
"128 321 OFFCURVE",
"135 327 OFFCURVE",
"142 327 CURVE SMOOTH",
"214 327 LINE SMOOTH",
"222 327 OFFCURVE",
"228 321 OFFCURVE",
"228 313 CURVE SMOOTH",
"228 241 LINE SMOOTH"
);
},
{
closed = 1;
nodes = (
"571 61 OFFCURVE",
"565 54 OFFCURVE",
"557 54 CURVE SMOOTH",
"285 54 LINE SMOOTH",
"277 54 OFFCURVE",
"271 61 OFFCURVE",
"271 69 CURVE SMOOTH",
"271 140 LINE SMOOTH",
"271 148 OFFCURVE",
"277 154 OFFCURVE",
"285 154 CURVE SMOOTH",
"557 154 LINE SMOOTH",
"565 154 OFFCURVE",
"571 148 OFFCURVE",
"571 140 CURVE SMOOTH",
"571 69 LINE SMOOTH"
);
},
{
closed = 1;
nodes = (
"228 61 OFFCURVE",
"222 54 OFFCURVE",
"214 54 CURVE SMOOTH",
"142 54 LINE SMOOTH",
"135 54 OFFCURVE",
"128 61 OFFCURVE",
"128 69 CURVE SMOOTH",
"128 140 LINE SMOOTH",
"128 148 OFFCURVE",
"135 154 OFFCURVE",
"142 154 CURVE SMOOTH",
"214 154 LINE SMOOTH",
"222 154 OFFCURVE",
"228 148 OFFCURVE",
"228 140 CURVE SMOOTH",
"228 69 LINE SMOOTH"
);
}
);
width = 600;
}
);
unicode = 00BB;
},
{
glyphname = guilsinglleft;
lastChange = "2013-01-22 13:49:33 -0300";
layers = (
{
layerId = "2B2FE4A8-39A2-493B-A970-B9343EE81639";
name = Regular;
paths = (
{
closed = 1;
nodes = (
"379 130 LINE",
"300 130 LINE",
"430 0 LINE",
"560 130 LINE",
"481 130 LINE",
"481 370 LINE",
"379 370 LINE"
);
},
{
closed = 1;
nodes = (
"119 370 LINE",
"41 370 LINE",
"171 500 LINE",
"300 370 LINE",
"222 370 LINE",
"222 130 LINE",
"119 130 LINE"
);
}
);
width = 600;
}
);
unicode = 2039;
},
{
glyphname = quotedblleft;
lastChange = "2013-04-10 16:29:11 -0300";
layers = (
{
layerId = "2B2FE4A8-39A2-493B-A970-B9343EE81639";
name = Regular;
paths = (
{
closed = 1;
nodes = (
"201 500 OFFCURVE",
"190 498 OFFCURVE",
"180 493 CURVE SMOOTH",
"165 486 OFFCURVE",
"154 474 OFFCURVE",
"149 459 CURVE SMOOTH",
"146 452 OFFCURVE",
"144 443 OFFCURVE",
"144 435 CURVE SMOOTH",
"144 426 OFFCURVE",
"145 416 OFFCURVE",
"148 407 CURVE SMOOTH",
"150 398 OFFCURVE",
"154 390 OFFCURVE",
"158 382 CURVE SMOOTH",
"164 370 OFFCURVE",
"173 359 OFFCURVE",
"182 349 CURVE SMOOTH",
"184 347 OFFCURVE",
"186 345 OFFCURVE",
"188 343 CURVE",
"135 328 LINE SMOOTH",
"130 327 OFFCURVE",
"125 324 OFFCURVE",
"121 321 CURVE SMOOTH",
"115 316 OFFCURVE",
"111 309 OFFCURVE",
"109 301 CURVE SMOOTH",
"107 293 OFFCURVE",
"108 285 OFFCURVE",
"110 275 CURVE SMOOTH",
"111 271 OFFCURVE",
"113 266 OFFCURVE",
"116 261 CURVE SMOOTH",
"123 250 OFFCURVE",
"132 239 OFFCURVE",
"143 232 CURVE SMOOTH",
"148 229 OFFCURVE",
"154 226 OFFCURVE",
"160 224 CURVE SMOOTH",
"166 222 OFFCURVE",
"172 221 OFFCURVE",
"178 221 CURVE SMOOTH",
"183 221 OFFCURVE",
"188 221 OFFCURVE",
"192 223 CURVE SMOOTH",
"192 223 LINE",
"203 226 LINE",
"217 178 LINE",
"192 82 LINE SMOOTH",
"190 78 OFFCURVE",
"190 74 OFFCURVE",
"190 70 CURVE SMOOTH",
"190 65 OFFCURVE",
"191 61 OFFCURVE",
"192 56 CURVE SMOOTH",
"195 46 OFFCURVE",
"200 37 OFFCURVE",
"208 29 CURVE SMOOTH",
"215 20 OFFCURVE",
"224 13 OFFCURVE",
"234 8 CURVE SMOOTH",
"239 5 OFFCURVE",
"244 4 OFFCURVE",
"249 2 CURVE SMOOTH",
"254 1 OFFCURVE",
"259 0 OFFCURVE",
"264 0 CURVE SMOOTH",
"273 1 OFFCURVE",
"282 3 OFFCURVE",
"289 8 CURVE SMOOTH",
"292 10 OFFCURVE",
"296 13 OFFCURVE",
"298 16 CURVE SMOOTH",
"301 20 OFFCURVE",
"303 23 OFFCURVE",
"304 28 CURVE",
"304 28 LINE",
"327 108 LINE",
"397 28 LINE",
"397 28 LINE",
"405 19 OFFCURVE",
"414 12 OFFCURVE",
"423 8 CURVE SMOOTH",
"433 3 OFFCURVE",
"443 0 OFFCURVE",
"452 0 CURVE SMOOTH",
"462 0 OFFCURVE",
"470 3 OFFCURVE",
"478 8 CURVE SMOOTH",
"481 10 OFFCURVE",
"484 13 OFFCURVE",
"486 17 CURVE SMOOTH",
"490 22 OFFCURVE",
"492 27 OFFCURVE",
"492 34 CURVE SMOOTH",
"493 40 OFFCURVE",
"492 46 OFFCURVE",
"490 53 CURVE SMOOTH",
"487 63 OFFCURVE",
"482 73 OFFCURVE",
"474 83 CURVE SMOOTH",
"473 83 LINE",
"389 178 LINE",
"375 227 LINE",
"393 223 LINE",
"393 223 LINE",
"398 222 OFFCURVE",
"403 221 OFFCURVE",
"407 221 CURVE SMOOTH",
"413 221 OFFCURVE",
"419 222 OFFCURVE",
"424 224 CURVE SMOOTH",
"432 227 OFFCURVE",
"438 231 OFFCURVE",
"443 238 CURVE SMOOTH",
"445 241 OFFCURVE",
"447 245 OFFCURVE",
"448 249 CURVE SMOOTH",
"449 252 OFFCURVE",
"450 257 OFFCURVE",
"449 261 CURVE SMOOTH",
"449 266 OFFCURVE",
"449 271 OFFCURVE",
"447 276 CURVE SMOOTH",
"444 288 OFFCURVE",
"437 299 OFFCURVE",
"427 309 CURVE SMOOTH",
"423 313 OFFCURVE",
"417 317 OFFCURVE",
"411 321 CURVE SMOOTH",
"405 324 OFFCURVE",
"399 327 OFFCURVE",
"393 328 CURVE",
"393 313 LINE",
"393 298 LINE",
"396 298 OFFCURVE",
"399 296 OFFCURVE",
"401 295 CURVE SMOOTH",
"404 293 OFFCURVE",
"408 290 OFFCURVE",
"410 287 CURVE SMOOTH",
"413 284 OFFCURVE",
"415 280 OFFCURVE",
"416 276 CURVE SMOOTH",
"417 274 OFFCURVE",
"417 272 OFFCURVE",
"417 270 CURVE SMOOTH",
"417 267 OFFCURVE",
"417 265 OFFCURVE",
"416 263 CURVE SMOOTH",
"414 260 OFFCURVE",
"412 257 OFFCURVE",
"409 255 CURVE SMOOTH",
"406 253 OFFCURVE",
"402 252 OFFCURVE",
"398 252 CURVE SMOOTH",
"398 252 OFFCURVE",
"398 252 OFFCURVE",
"398 252 CURVE SMOOTH",
"396 252 OFFCURVE",
"394 252 OFFCURVE",
"392 253 CURVE SMOOTH",
"392 253 LINE",
"353 262 LINE SMOOTH",
"351 262 OFFCURVE",
"350 263 OFFCURVE",
"349 263 CURVE SMOOTH",
"345 263 OFFCURVE",
"342 261 OFFCURVE",
"340 259 CURVE SMOOTH",
"337 256 OFFCURVE",
"336 252 OFFCURVE",
"338 247 CURVE SMOOTH",
"359 174 LINE SMOOTH",
"360 171 OFFCURVE",
"361 168 OFFCURVE",
"363 166 CURVE SMOOTH",
"451 67 LINE SMOOTH",
"455 62 OFFCURVE",
"458 58 OFFCURVE",
"459 53 CURVE SMOOTH",
"460 49 OFFCURVE",
"460 45 OFFCURVE",
"459 42 CURVE SMOOTH",
"459 41 OFFCURVE",
"458 40 OFFCURVE",
"458 38 CURVE SMOOTH",
"457 37 OFFCURVE",
"456 36 OFFCURVE",
"454 35 CURVE SMOOTH",
"451 33 OFFCURVE",
"447 32 OFFCURVE",
"443 32 CURVE SMOOTH",
"439 32 OFFCURVE",
"435 33 OFFCURVE",
"431 35 CURVE SMOOTH",
"427 37 OFFCURVE",
"423 40 OFFCURVE",
"420 43 CURVE",
"420 43 LINE",
"332 145 LINE",
"332 145 LINE",
"331 145 OFFCURVE",
"331 146 OFFCURVE",
"331 146 CURVE SMOOTH",
"331 146 OFFCURVE",
"331 146 OFFCURVE",
"331 146 CURVE",
"330 146 LINE",
"330 146 LINE SMOOTH",
"326 152 OFFCURVE",
"320 155 OFFCURVE",
"314 155 CURVE SMOOTH",
"308 155 OFFCURVE",
"304 152 OFFCURVE",
"302 147 CURVE",
"302 147 LINE SMOOTH",
"302 147 OFFCURVE",
"302 147 OFFCURVE",
"302 147 CURVE SMOOTH",
"302 146 OFFCURVE",
"302 146 OFFCURVE",
"302 145 CURVE",
"302 145 LINE",
"272 43 LINE",
"272 43 LINE",
"272 42 OFFCURVE",
"271 40 OFFCURVE",
"270 39 CURVE SMOOTH",
"268 36 OFFCURVE",
"266 35 OFFCURVE",
"264 33 CURVE SMOOTH",
"261 32 OFFCURVE",
"258 32 OFFCURVE",
"255 32 CURVE SMOOTH",
"253 32 OFFCURVE",
"251 32 OFFCURVE",
"249 33 CURVE SMOOTH",
"246 33 OFFCURVE",
"244 34 OFFCURVE",
"242 35 CURVE SMOOTH",
"237 37 OFFCURVE",
"233 40 OFFCURVE",
"230 44 CURVE SMOOTH",
"227 48 OFFCURVE",
"225 52 OFFCURVE",
"223 56 CURVE SMOOTH",
"223 58 OFFCURVE",
"223 60 OFFCURVE",
"222 62 CURVE SMOOTH",
"222 63 OFFCURVE",
"223 65 OFFCURVE",
"223 67 CURVE SMOOTH",
"223 67 LINE",
"249 167 LINE SMOOTH",
"250 169 OFFCURVE",
"250 171 OFFCURVE",
"249 174 CURVE SMOOTH",
"228 247 LINE SMOOTH",
"227 252 OFFCURVE",
"223 256 OFFCURVE",
"218 259 CURVE SMOOTH",
"215 261 OFFCURVE",
"211 262 OFFCURVE",
"208 262 CURVE SMOOTH",
"207 262 OFFCURVE",
"205 262 OFFCURVE",
"204 262 CURVE SMOOTH",
"175 253 LINE",
"175 253 LINE",
"173 252 OFFCURVE",
"171 252 OFFCURVE",
"169 252 CURVE SMOOTH",
"167 252 OFFCURVE",
"165 252 OFFCURVE",
"162 253 CURVE SMOOTH",
"159 254 OFFCURVE",
"156 256 OFFCURVE",
"152 259 CURVE SMOOTH",
"149 262 OFFCURVE",
"146 265 OFFCURVE",
"144 269 CURVE SMOOTH",
"143 271 OFFCURVE",
"142 273 OFFCURVE",
"141 275 CURVE SMOOTH",
"141 278 OFFCURVE",
"140 281 OFFCURVE",
"140 283 CURVE SMOOTH",
"141 286 OFFCURVE",
"142 290 OFFCURVE",
"144 292 CURVE SMOOTH",
"146 295 OFFCURVE",
"149 297 OFFCURVE",
"152 298 CURVE SMOOTH",
"222 318 LINE SMOOTH",
"223 319 OFFCURVE",
"225 319 OFFCURVE",
"226 319 CURVE SMOOTH",
"233 319 OFFCURVE",
"237 324 OFFCURVE",
"237 330 CURVE SMOOTH",
"237 336 OFFCURVE",
"233 343 OFFCURVE",
"226 347 CURVE SMOOTH",
"221 350 OFFCURVE",
"216 354 OFFCURVE",
"211 359 CURVE SMOOTH",
"203 366 OFFCURVE",
"196 373 OFFCURVE",
"191 382 CURVE SMOOTH",
"185 390 OFFCURVE",
"181 398 OFFCURVE",
"179 407 CURVE SMOOTH",
"176 415 OFFCURVE",
"176 424 OFFCURVE",
"177 431 CURVE SMOOTH",
"178 442 OFFCURVE",
"183 452 OFFCURVE",
"192 459 CURVE SMOOTH",
"196 462 OFFCURVE",
"200 465 OFFCURVE",
"206 466 CURVE SMOOTH",
"211 468 OFFCURVE",
"217 469 OFFCURVE",
"223 469 CURVE SMOOTH",
"232 469 OFFCURVE",
"241 467 OFFCURVE",
"249 464 CURVE SMOOTH",
"262 460 OFFCURVE",
"274 452 OFFCURVE",
"283 442 CURVE SMOOTH",
"288 437 OFFCURVE",
"292 431 OFFCURVE",
"296 425 CURVE SMOOTH",
"299 419 OFFCURVE",
"302 413 OFFCURVE",
"304 407 CURVE SMOOTH",
"305 401 OFFCURVE",
"306 396 OFFCURVE",
"307 390 CURVE SMOOTH",
"307 382 OFFCURVE",
"306 373 OFFCURVE",
"303 366 CURVE SMOOTH",
"300 359 OFFCURVE",
"296 352 OFFCURVE",
"291 347 CURVE SMOOTH",
"287 343 OFFCURVE",
"287 337 OFFCURVE",
"290 330 CURVE SMOOTH",
"294 324 OFFCURVE",
"301 320 OFFCURVE",
"307 319 CURVE SMOOTH",
"309 319 OFFCURVE",
"310 319 OFFCURVE",
"312 318 CURVE SMOOTH",
"393 298 LINE",
"393 313 LINE",
"393 328 LINE",
"332 344 LINE",
"336 352 OFFCURVE",
"338 361 OFFCURVE",
"339 371 CURVE SMOOTH",
"340 382 OFFCURVE",
"339 394 OFFCURVE",
"335 407 CURVE SMOOTH",
"331 420 OFFCURVE",
"325 432 OFFCURVE",
"317 443 CURVE SMOOTH",
"305 460 OFFCURVE",
"289 474 OFFCURVE",
"271 484 CURVE SMOOTH",
"262 490 OFFCURVE",
"253 494 OFFCURVE",
"243 496 CURVE SMOOTH",
"234 499 OFFCURVE",
"224 500 OFFCURVE",
"214 500 CURVE SMOOTH"
);
}
);
width = 600;
}
);
unicode = 201C;
},
{
glyphname = quotedblright;
lastChange = "2013-04-10 11:50:53 -0300";
layers = (
{
layerId = "2B2FE4A8-39A2-493B-A970-B9343EE81639";
name = Regular;
paths = (
{
closed = 1;
nodes = (
"140 500 LINE SMOOTH",
"132 500 OFFCURVE",
"125 493 OFFCURVE",
"125 485 CURVE SMOOTH",
"125 15 LINE SMOOTH",
"125 7 OFFCURVE",
"132 0 OFFCURVE",
"140 0 CURVE SMOOTH",
"460 0 LINE SMOOTH",
"468 0 OFFCURVE",
"475 7 OFFCURVE",
"475 15 CURVE SMOOTH",
"475 485 LINE SMOOTH",
"475 493 OFFCURVE",
"468 500 OFFCURVE",
"460 500 CURVE SMOOTH"
);
},
{
closed = 1;
nodes = (
"287 21 OFFCURVE",
"276 32 OFFCURVE",
"276 45 CURVE SMOOTH",
"276 58 OFFCURVE",
"287 69 OFFCURVE",
"300 69 CURVE SMOOTH",
"313 69 OFFCURVE",
"324 58 OFFCURVE",
"324 45 CURVE SMOOTH",
"324 32 OFFCURVE",
"313 21 OFFCURVE",
"300 21 CURVE SMOOTH"
);
},
{
closed = 1;
nodes = (
"143 88 LINE",
"143 470 LINE",
"456 470 LINE",
"456 88 LINE"
);
}
);
width = 600;
}
);
unicode = 201D;
},
{
glyphname = quoteleft;
lastChange = "2013-04-10 11:55:33 -0300";
layers = (
{
layerId = "2B2FE4A8-39A2-493B-A970-B9343EE81639";
name = Regular;
paths = (
{
closed = 1;
nodes = (
"408 481 OFFCURVE",
"366 500 OFFCURVE",
"298 500 CURVE SMOOTH",
"230 500 OFFCURVE",
"190 481 OFFCURVE",
"190 481 CURVE",
"176 476 OFFCURVE",
"171 470 OFFCURVE",
"171 457 CURVE SMOOTH",
"171 31 LINE SMOOTH",
"171 18 OFFCURVE",
"178 8 OFFCURVE",
"191 8 CURVE",
"191 8 OFFCURVE",
"244 0 OFFCURVE",
"301 0 CURVE SMOOTH",
"357 0 OFFCURVE",
"409 8 OFFCURVE",
"409 8 CURVE",
"422 8 OFFCURVE",
"429 18 OFFCURVE",
"429 31 CURVE SMOOTH",
"429 457 LINE SMOOTH",
"429 470 OFFCURVE",
"421 477 OFFCURVE",
"408 481 CURVE"
);
},
{
closed = 1;
nodes = (
"322 483 LINE",
"322 476 LINE",
"309 476 LINE",
"309 483 LINE"
);
},
{
closed = 1;
nodes = (
"289 483 LINE",
"289 476 LINE",
"276 476 LINE",
"276 483 LINE"
);
},
{
closed = 1;
nodes = (
"232 29 OFFCURVE",
"226 25 OFFCURVE",
"220 26 CURVE SMOOTH",
"203 28 LINE SMOOTH",
"197 29 OFFCURVE",
"192 35 OFFCURVE",
"193 41 CURVE SMOOTH",
"194 48 OFFCURVE",
"200 52 OFFCURVE",
"206 51 CURVE SMOOTH",
"223 49 LINE SMOOTH",
"229 48 OFFCURVE",
"234 42 OFFCURVE",
"233 36 CURVE SMOOTH"
);
},
{
closed = 1;
nodes = (
"285 24 OFFCURVE",
"280 19 OFFCURVE",
"273 19 CURVE SMOOTH",
"257 20 LINE SMOOTH",
"250 20 OFFCURVE",
"245 26 OFFCURVE",
"246 32 CURVE SMOOTH",
"246 39 OFFCURVE",
"252 44 OFFCURVE",
"258 43 CURVE SMOOTH",
"275 42 LINE SMOOTH",
"281 42 OFFCURVE",
"286 36 OFFCURVE",
"286 30 CURVE SMOOTH"
);
},
{
closed = 1;
nodes = (
"306 19 OFFCURVE",
"300 25 OFFCURVE",
"300 31 CURVE SMOOTH",
"300 38 OFFCURVE",
"306 43 OFFCURVE",
"312 43 CURVE SMOOTH",
"319 43 OFFCURVE",
"324 38 OFFCURVE",
"324 31 CURVE SMOOTH",
"324 25 OFFCURVE",
"319 19 OFFCURVE",
"312 19 CURVE SMOOTH"
);
},
{
closed = 1;
nodes = (
"352 22 LINE SMOOTH",
"346 21 OFFCURVE",
"340 25 OFFCURVE",
"339 32 CURVE SMOOTH",
"338 38 OFFCURVE",
"343 44 OFFCURVE",
"349 45 CURVE SMOOTH",
"392 50 LINE SMOOTH",
"399 51 OFFCURVE",
"404 46 OFFCURVE",
"405 40 CURVE SMOOTH",
"406 34 OFFCURVE",
"401 28 OFFCURVE",
"395 27 CURVE SMOOTH"
);
},
{
closed = 1;
nodes = (
"413 83 OFFCURVE",
"333 74 OFFCURVE",
"301 74 CURVE SMOOTH",
"247 74 OFFCURVE",
"189 82 OFFCURVE",
"189 84 CURVE SMOOTH",
"189 441 LINE SMOOTH",
"189 442 OFFCURVE",
"237 460 OFFCURVE",
"301 460 CURVE SMOOTH",
"364 460 OFFCURVE",
"413 441 OFFCURVE",
"413 441 CURVE",
"413 84 LINE SMOOTH"
);
}
);
width = 600;
}
);
unicode = 2018;
},
{
glyphname = quoteright;
lastChange = "2013-04-09 19:43:50 -0300";
layers = (
{
layerId = "2B2FE4A8-39A2-493B-A970-B9343EE81639";
name = Regular;
paths = (
{
closed = 1;
nodes = (
"38 500 LINE SMOOTH",
"26 500 OFFCURVE",
"17 491 OFFCURVE",
"17 479 CURVE SMOOTH",
"17 105 LINE SMOOTH",
"17 93 OFFCURVE",
"26 84 OFFCURVE",
"38 84 CURVE SMOOTH",
"278 84 LINE",
"278 44 LINE",
"212 37 OFFCURVE",
"161 48 OFFCURVE",
"161 0 CURVE",
"439 0 LINE",
"439 48 OFFCURVE",
"388 37 OFFCURVE",
"322 44 CURVE",
"322 84 LINE",
"562 84 LINE SMOOTH",
"574 84 OFFCURVE",
"583 93 OFFCURVE",
"583 105 CURVE SMOOTH",
"583 479 LINE SMOOTH",
"583 491 OFFCURVE",
"574 500 OFFCURVE",
"562 500 CURVE SMOOTH"
);
},
{
closed = 1;
nodes = (
"59 126 LINE",
"59 458 LINE",
"541 458 LINE",
"541 126 LINE"
);
}
);
width = 600;
}
);
unicode = 2019;
},
{
glyphname = cent;
lastChange = "2013-04-10 16:59:28 -0300";
layers = (
{
layerId = "2B2FE4A8-39A2-493B-A970-B9343EE81639";
name = Regular;
paths = (
{
closed = 1;
nodes = (
"193 355 LINE",
"151 314 LINE",
"124 360 OFFCURVE",
"144 386 OFFCURVE",
"144 386 CURVE",
"160 401 OFFCURVE",
"167 423 OFFCURVE",
"162 445 CURVE SMOOTH",
"154 479 OFFCURVE",
"121 500 OFFCURVE",
"87 493 CURVE SMOOTH",
"54 485 OFFCURVE",
"32 451 OFFCURVE",
"40 418 CURVE SMOOTH",
"45 395 OFFCURVE",
"61 379 OFFCURVE",
"82 372 CURVE",
"81 372 LINE",
"81 372 OFFCURVE",
"112 356 OFFCURVE",
"106 301 CURVE SMOOTH",
"105 290 OFFCURVE",
"105 279 OFFCURVE",
"107 269 CURVE",
"8 170 LINE",
"19 107 LINE",
"145 86 LINE",
"329 270 LINE",
"319 333 LINE"
);
},
{
closed = 1;
nodes = (
"240 100 LINE",
"482 237 LINE",
"554 167 LINE",
"312 30 LINE"
);
},
{
closed = 1;
nodes = (
"201 106 LINE",
"309 0 LINE",
"593 161 LINE",
"485 267 LINE"
);
},
{
closed = 1;
nodes = (
"349 131 LINE",
"363 117 LINE SMOOTH",
"366 113 OFFCURVE",
"366 110 OFFCURVE",
"363 109 CURVE SMOOTH",
"360 107 OFFCURVE",
"356 107 OFFCURVE",
"352 111 CURVE SMOOTH",
"338 125 LINE",
"330 120 LINE",
"346 104 LINE SMOOTH",
"352 98 OFFCURVE",
"359 96 OFFCURVE",
"366 100 CURVE SMOOTH",
"370 103 OFFCURVE",
"371 106 OFFCURVE",
"371 109 CURVE",
"374 106 LINE",
"383 110 LINE",
"357 135 LINE"
);
},
{
closed = 1;
nodes = (
"377 148 OFFCURVE",
"377 144 OFFCURVE",
"378 140 CURVE",
"373 145 LINE",
"365 140 LINE",
"390 115 LINE",
"399 119 LINE",
"389 129 LINE SMOOTH",
"383 135 OFFCURVE",
"384 140 OFFCURVE",
"389 143 CURVE SMOOTH",
"390 143 LINE",
"382 150 LINE",
"382 150 OFFCURVE",
"382 150 OFFCURVE",
"382 150 CURVE SMOOTH"
);
},
{
closed = 1;
nodes = (
"419 171 OFFCURVE",
"417 168 OFFCURVE",
"417 164 CURVE",
"413 166 OFFCURVE",
"409 166 OFFCURVE",
"405 163 CURVE SMOOTH",
"401 161 OFFCURVE",
"400 157 OFFCURVE",
"400 154 CURVE",
"397 158 LINE",
"388 153 LINE",
"414 128 LINE",
"422 133 LINE",
"408 147 LINE SMOOTH",
"405 150 OFFCURVE",
"405 153 OFFCURVE",
"408 155 CURVE SMOOTH",
"411 157 OFFCURVE",
"415 156 OFFCURVE",
"418 152 CURVE SMOOTH",
"432 138 LINE",
"441 143 LINE",
"427 157 LINE SMOOTH",
"423 161 OFFCURVE",
"423 163 OFFCURVE",
"427 165 CURVE SMOOTH",
"430 167 OFFCURVE",
"433 166 OFFCURVE",
"437 163 CURVE SMOOTH",
"451 149 LINE",
"460 154 LINE",
"443 170 LINE SMOOTH",
"437 176 OFFCURVE",
"430 177 OFFCURVE",
"423 174 CURVE SMOOTH"
);
},
{
closed = 1;
nodes = (
"471 169 OFFCURVE",
"465 171 OFFCURVE",
"461 174 CURVE SMOOTH",
"461 174 LINE SMOOTH",
"457 178 OFFCURVE",
"457 183 OFFCURVE",
"462 186 CURVE SMOOTH",
"466 188 OFFCURVE",
"473 187 OFFCURVE",
"477 183 CURVE SMOOTH",
"477 183 LINE SMOOTH",
"481 179 OFFCURVE",
"481 175 OFFCURVE",
"476 172 CURVE SMOOTH"
);
},
{
closed = 1;
nodes = (
"446 187 OFFCURVE",
"445 177 OFFCURVE",
"453 170 CURVE SMOOTH",
"453 170 LINE SMOOTH",
"460 162 OFFCURVE",
"473 160 OFFCURVE",
"482 166 CURVE SMOOTH",
"492 171 OFFCURVE",
"493 181 OFFCURVE",
"485 188 CURVE SMOOTH",
"485 188 LINE SMOOTH",
"478 195 OFFCURVE",
"465 197 OFFCURVE",
"456 192 CURVE SMOOTH"
);
},
{
closed = 1;
nodes = (
"282 105 LINE",
"290 97 LINE",
"309 108 LINE",
"308 79 LINE",
"315 72 LINE",
"349 92 LINE",
"342 99 LINE",
"322 88 LINE",
"323 118 LINE",
"316 124 LINE"
);
},
{
closed = 1;
nodes = (
"317 70 LINE",
"323 64 LINE",
"339 73 LINE",
"353 73 LINE",
"347 78 LINE",
"357 84 LINE",
"351 90 LINE"
);
}
);
width = 600;
}
);
unicode = 00A2;
},
{
glyphname = currency;
lastChange = "2013-04-10 12:05:51 -0300";
layers = (
{
layerId = "2B2FE4A8-39A2-493B-A970-B9343EE81639";
name = Regular;
paths = (
{
closed = 1;
nodes = (
"376 500 OFFCURVE",
"341 465 OFFCURVE",
"341 421 CURVE SMOOTH",
"341 396 OFFCURVE",
"352 374 OFFCURVE",
"370 360 CURVE",
"304 258 LINE",
"303 258 OFFCURVE",
"302 258 OFFCURVE",
"300 258 CURVE SMOOTH",
"299 258 OFFCURVE",
"298 258 OFFCURVE",
"297 258 CURVE",
"231 360 LINE",
"249 374 OFFCURVE",
"260 396 OFFCURVE",
"260 421 CURVE SMOOTH",
"260 465 OFFCURVE",
"225 500 OFFCURVE",
"181 500 CURVE SMOOTH",
"137 500 OFFCURVE",
"102 465 OFFCURVE",
"102 421 CURVE SMOOTH",
"102 377 OFFCURVE",
"137 342 OFFCURVE",
"181 342 CURVE SMOOTH",
"193 342 OFFCURVE",
"204 345 OFFCURVE",
"214 349 CURVE",
"282 245 LINE",
"281 243 OFFCURVE",
"281 241 OFFCURVE",
"281 238 CURVE SMOOTH",
"281 231 OFFCURVE",
"285 225 OFFCURVE",
"291 221 CURVE",
"291 157 LINE",
"252 153 OFFCURVE",
"221 119 OFFCURVE",
"221 79 CURVE SMOOTH",
"221 35 OFFCURVE",
"257 0 OFFCURVE",
"300 0 CURVE SMOOTH",
"344 0 OFFCURVE",
"379 35 OFFCURVE",
"379 79 CURVE SMOOTH",
"379 119 OFFCURVE",
"349 153 OFFCURVE",
"310 157 CURVE",
"310 221 LINE",
"316 225 OFFCURVE",
"320 231 OFFCURVE",
"320 238 CURVE SMOOTH",
"320 241 OFFCURVE",
"320 243 OFFCURVE",
"319 245 CURVE",
"386 349 LINE",
"397 345 OFFCURVE",
"408 342 OFFCURVE",
"420 342 CURVE SMOOTH",
"464 342 OFFCURVE",
"499 377 OFFCURVE",
"499 421 CURVE SMOOTH",
"499 465 OFFCURVE",
"464 500 OFFCURVE",
"420 500 CURVE SMOOTH"
);
},
{
closed = 1;
nodes = (
"155 374 OFFCURVE",
"134 395 OFFCURVE",
"134 421 CURVE SMOOTH",
"134 447 OFFCURVE",
"155 468 OFFCURVE",
"181 468 CURVE SMOOTH",
"207 468 OFFCURVE",
"228 447 OFFCURVE",
"228 421 CURVE SMOOTH",
"228 407 OFFCURVE",
"223 395 OFFCURVE",
"214 387 CURVE",
"198 411 LINE",
"200 414 OFFCURVE",
"201 417 OFFCURVE",
"201 421 CURVE SMOOTH",
"201 432 OFFCURVE",
"192 441 OFFCURVE",
"181 441 CURVE SMOOTH",
"170 441 OFFCURVE",
"161 432 OFFCURVE",
"161 421 CURVE SMOOTH",
"161 410 OFFCURVE",
"170 401 OFFCURVE",
"181 401 CURVE",
"197 376 LINE",
"192 375 OFFCURVE",
"187 374 OFFCURVE",
"181 374 CURVE SMOOTH"
);
},
{
closed = 1;
nodes = (
"348 53 OFFCURVE",
"327 32 OFFCURVE",
"300 32 CURVE SMOOTH",
"274 32 OFFCURVE",
"253 53 OFFCURVE",
"253 79 CURVE SMOOTH",
"253 102 OFFCURVE",
"269 121 OFFCURVE",
"291 125 CURVE",
"291 96 LINE",
"285 93 OFFCURVE",
"281 86 OFFCURVE",
"281 79 CURVE SMOOTH",
"281 68 OFFCURVE",
"290 59 OFFCURVE",
"300 59 CURVE SMOOTH",
"311 59 OFFCURVE",
"320 68 OFFCURVE",
"320 79 CURVE SMOOTH",
"320 86 OFFCURVE",
"316 93 OFFCURVE",
"310 96 CURVE",
"310 125 LINE",
"332 121 OFFCURVE",
"348 102 OFFCURVE",
"348 79 CURVE SMOOTH"
);
},
{
closed = 1;
nodes = (
"414 374 OFFCURVE",
"409 375 OFFCURVE",
"404 376 CURVE",
"420 401 LINE",
"431 401 OFFCURVE",
"440 410 OFFCURVE",
"440 421 CURVE SMOOTH",
"440 432 OFFCURVE",
"431 441 OFFCURVE",
"420 441 CURVE SMOOTH",
"409 441 OFFCURVE",
"400 432 OFFCURVE",
"400 421 CURVE SMOOTH",
"400 417 OFFCURVE",
"401 414 OFFCURVE",
"403 411 CURVE",
"387 387 LINE",
"378 395 OFFCURVE",
"372 407 OFFCURVE",
"372 421 CURVE SMOOTH",
"372 447 OFFCURVE",
"394 468 OFFCURVE",
"420 468 CURVE SMOOTH",
"446 468 OFFCURVE",
"467 447 OFFCURVE",
"467 421 CURVE SMOOTH",
"467 395 OFFCURVE",
"446 374 OFFCURVE",
"420 374 CURVE SMOOTH"
);
}
);
width = 600;
}
);
unicode = 00A4;
},
{
glyphname = euro;
lastChange = "2013-04-10 12:05:39 -0300";
layers = (
{
layerId = "2B2FE4A8-39A2-493B-A970-B9343EE81639";
name = Regular;
paths = (
{
closed = 1;
nodes = (
"376 500 OFFCURVE",
"341 465 OFFCURVE",
"341 421 CURVE SMOOTH",
"341 397 OFFCURVE",
"351 375 OFFCURVE",
"368 361 CURVE",
"321 295 LINE",
"314 298 OFFCURVE",
"307 300 OFFCURVE",
"300 300 CURVE SMOOTH",
"293 300 OFFCURVE",
"286 298 OFFCURVE",
"280 296 CURVE",
"232 361 LINE",
"249 375 OFFCURVE",
"260 397 OFFCURVE",
"260 421 CURVE SMOOTH",
"260 465 OFFCURVE",
"225 500 OFFCURVE",
"181 500 CURVE SMOOTH",
"137 500 OFFCURVE",
"102 465 OFFCURVE",
"102 421 CURVE SMOOTH",
"102 377 OFFCURVE",
"137 342 OFFCURVE",
"181 342 CURVE SMOOTH",
"192 342 OFFCURVE",
"203 345 OFFCURVE",
"212 349 CURVE",
"256 274 LINE",
"252 267 OFFCURVE",
"250 259 OFFCURVE",
"250 250 CURVE SMOOTH",
"250 228 OFFCURVE",
"264 210 OFFCURVE",
"283 203 CURVE",
"288 157 LINE",
"250 151 OFFCURVE",
"221 118 OFFCURVE",
"221 79 CURVE SMOOTH",
"221 35 OFFCURVE",
"257 0 OFFCURVE",
"300 0 CURVE SMOOTH",
"344 0 OFFCURVE",
"379 35 OFFCURVE",
"379 79 CURVE SMOOTH",
"379 118 OFFCURVE",
"350 151 OFFCURVE",
"312 157 CURVE",
"316 203 LINE",
"336 209 OFFCURVE",
"350 228 OFFCURVE",
"350 250 CURVE SMOOTH",
"350 258 OFFCURVE",
"348 266 OFFCURVE",
"344 273 CURVE",
"388 348 LINE",
"398 345 OFFCURVE",
"408 342 OFFCURVE",
"420 342 CURVE SMOOTH",
"464 342 OFFCURVE",
"499 377 OFFCURVE",
"499 421 CURVE SMOOTH",
"499 465 OFFCURVE",
"464 500 OFFCURVE",
"420 500 CURVE SMOOTH"
);
},
{
closed = 1;
nodes = (
"155 374 OFFCURVE",
"134 395 OFFCURVE",
"134 421 CURVE SMOOTH",
"134 447 OFFCURVE",
"155 468 OFFCURVE",
"181 468 CURVE SMOOTH",
"207 468 OFFCURVE",
"228 447 OFFCURVE",
"228 421 CURVE SMOOTH",
"228 407 OFFCURVE",
"223 395 OFFCURVE",
"214 387 CURVE",
"198 411 LINE",
"200 414 OFFCURVE",
"201 417 OFFCURVE",
"201 421 CURVE SMOOTH",
"201 432 OFFCURVE",
"192 441 OFFCURVE",
"181 441 CURVE SMOOTH",
"170 441 OFFCURVE",
"161 432 OFFCURVE",
"161 421 CURVE SMOOTH",
"161 410 OFFCURVE",
"170 401 OFFCURVE",
"181 401 CURVE",
"197 376 LINE",
"192 375 OFFCURVE",
"187 374 OFFCURVE",
"181 374 CURVE SMOOTH"
);
},
{
closed = 1;
nodes = (
"347 53 OFFCURVE",
"326 32 OFFCURVE",
"299 32 CURVE SMOOTH",
"273 32 OFFCURVE",
"252 53 OFFCURVE",
"252 79 CURVE SMOOTH",
"252 102 OFFCURVE",
"268 121 OFFCURVE",
"290 125 CURVE",
"290 96 LINE",
"284 93 OFFCURVE",
"280 86 OFFCURVE",
"280 79 CURVE SMOOTH",
"280 68 OFFCURVE",
"289 59 OFFCURVE",
"299 59 CURVE SMOOTH",
"310 59 OFFCURVE",
"319 68 OFFCURVE",
"319 79 CURVE SMOOTH",
"319 86 OFFCURVE",
"315 93 OFFCURVE",
"309 96 CURVE",
"309 125 LINE",
"331 121 OFFCURVE",
"347 102 OFFCURVE",
"347 79 CURVE SMOOTH"
);
},
{
closed = 1;
nodes = (
"414 374 OFFCURVE",
"409 375 OFFCURVE",
"404 376 CURVE",
"420 401 LINE",
"431 401 OFFCURVE",
"440 410 OFFCURVE",
"440 421 CURVE SMOOTH",
"440 432 OFFCURVE",
"431 441 OFFCURVE",
"420 441 CURVE SMOOTH",
"409 441 OFFCURVE",
"400 432 OFFCURVE",
"400 421 CURVE SMOOTH",
"400 417 OFFCURVE",
"401 414 OFFCURVE",
"403 411 CURVE",
"387 387 LINE",
"378 395 OFFCURVE",
"372 407 OFFCURVE",
"372 421 CURVE SMOOTH",
"372 447 OFFCURVE",
"394 468 OFFCURVE",
"420 468 CURVE SMOOTH",
"446 468 OFFCURVE",
"467 447 OFFCURVE",
"467 421 CURVE SMOOTH",
"467 395 OFFCURVE",
"446 374 OFFCURVE",
"420 374 CURVE SMOOTH"
);
}
);
width = 600;
}
);
unicode = 20AC;
},
{
glyphname = sterling;
lastChange = "2013-03-19 20:52:19 -0300";
layers = (
{
layerId = "2B2FE4A8-39A2-493B-A970-B9343EE81639";
name = Regular;
paths = (
{
closed = 1;
nodes = (
"496 474 LINE",
"494 481 LINE",
"489 500 LINE",
"67 380 LINE",
"88 306 LINE",
"88 306 LINE",
"98 271 LINE",
"520 391 LINE"
);
},
{
closed = 1;
nodes = (
"406 381 LINE",
"422 385 OFFCURVE",
"436 389 OFFCURVE",
"449 393 CURVE",
"481 448 LINE",
"486 434 OFFCURVE",
"490 418 OFFCURVE",
"494 405 CURVE",
"487 403 OFFCURVE",
"471 399 OFFCURVE",
"449 393 CURVE",
"449 393 LINE",
"406 381 LINE",
"406 381 LINE",
"393 377 OFFCURVE",
"378 373 OFFCURVE",
"363 368 CURVE",
"415 457 LINE",
"433 462 OFFCURVE",
"448 466 OFFCURVE",
"459 469 CURVE"
);
},
{
closed = 1;
nodes = (
"321 356 LINE",
"306 352 OFFCURVE",
"291 348 OFFCURVE",
"277 344 CURVE",
"328 432 LINE",
"344 437 OFFCURVE",
"359 441 OFFCURVE",
"373 445 CURVE"
);
},
{
closed = 1;
nodes = (
"234 332 LINE",
"219 327 OFFCURVE",
"205 323 OFFCURVE",
"191 319 CURVE",
"243 408 LINE",
"257 412 OFFCURVE",
"272 416 OFFCURVE",
"287 420 CURVE"
);
},
{
closed = 1;
nodes = (
"149 307 LINE",
"131 302 OFFCURVE",
"118 299 OFFCURVE",
"112 297 CURVE",
"111 300 OFFCURVE",
"110 304 OFFCURVE",
"109 307 CURVE",
"153 383 LINE",
"168 387 OFFCURVE",
"184 391 OFFCURVE",
"201 396 CURVE"
);
},
{
closed = 1;
nodes = (
"98 348 LINE",
"93 365 LINE",
"111 371 LINE"
);
},
{
closed = 1;
nodes = (
"396 452 LINE",
"397 454 LINE",
"384 450 OFFCURVE",
"370 446 OFFCURVE",
"354 442 CURVE",
"353 439 LINE"
);
},
{
closed = 1;
nodes = (
"98 0 LINE",
"534 0 LINE",
"534 271 LINE",
"98 271 LINE"
);
},
{
closed = 1;
nodes = (
"338 58 LINE",
"338 38 LINE",
"312 58 LINE",
"263 58 LINE",
"263 81 LINE",
"369 81 LINE",
"369 58 LINE"
);
},
{
closed = 1;
nodes = (
"308 124 LINE",
"369 124 LINE",
"369 96 LINE",
"262 96 LINE",
"262 120 LINE",
"323 189 LINE",
"264 189 LINE",
"264 217 LINE",
"369 217 LINE",
"369 193 LINE"
);
}
);
width = 600;
}
);
unicode = 00A3;
},
{
glyphname = yen;
lastChange = "2013-03-08 17:13:15 -0300";
layers = (
{
layerId = "2B2FE4A8-39A2-493B-A970-B9343EE81639";
name = Regular;
paths = (
{
closed = 1;
nodes = (
"512 485 OFFCURVE",
"348 433 OFFCURVE",
"248 381 CURVE",
"29 381 LINE SMOOTH",
"27 381 OFFCURVE",
"25 379 OFFCURVE",
"25 377 CURVE SMOOTH",
"25 226 LINE SMOOTH",
"25 224 OFFCURVE",
"27 222 OFFCURVE",
"29 222 CURVE SMOOTH",
"132 222 LINE",
"132 221 OFFCURVE",
"132 220 OFFCURVE",
"132 219 CURVE",
"132 219 OFFCURVE",
"139 202 OFFCURVE",
"141 173 CURVE SMOOTH",
"144 144 OFFCURVE",
"141 67 OFFCURVE",
"141 67 CURVE SMOOTH",
"141 67 OFFCURVE",
"136 38 OFFCURVE",
"135 25 CURVE SMOOTH",
"133 13 OFFCURVE",
"183 0 OFFCURVE",
"212 6 CURVE SMOOTH",
"241 12 OFFCURVE",
"256 24 OFFCURVE",
"240 54 CURVE SMOOTH",
"232 68 OFFCURVE",
"231 76 OFFCURVE",
"233 113 CURVE",
"244 119 OFFCURVE",
"263 129 OFFCURVE",
"270 140 CURVE SMOOTH",
"276 150 OFFCURVE",
"256 159 OFFCURVE",
"238 165 CURVE",
"240 179 OFFCURVE",
"242 191 OFFCURVE",
"245 198 CURVE",
"347 145 OFFCURVE",
"517 109 OFFCURVE",
"526 104 CURVE SMOOTH",
"544 94 OFFCURVE",
"576 107 OFFCURVE",
"576 125 CURVE SMOOTH",
"576 139 OFFCURVE",
"576 451 OFFCURVE",
"576 471 CURVE SMOOTH",
"576 491 OFFCURVE",
"540 500 OFFCURVE",
"525 492 CURVE SMOOTH"
);
},
{
closed = 1;
nodes = (
"140 328 LINE SMOOTH",
"148 328 OFFCURVE",
"154 322 OFFCURVE",
"154 314 CURVE SMOOTH",
"154 307 OFFCURVE",
"148 301 OFFCURVE",
"140 301 CURVE SMOOTH",
"54 301 LINE SMOOTH",
"47 301 OFFCURVE",
"41 307 OFFCURVE",
"41 314 CURVE SMOOTH",
"41 322 OFFCURVE",
"47 328 OFFCURVE",
"54 328 CURVE SMOOTH"
);
},
{
closed = 1;
nodes = (
"41 269 OFFCURVE",
"47 275 OFFCURVE",
"54 275 CURVE SMOOTH",
"140 275 LINE SMOOTH",
"148 275 OFFCURVE",
"154 269 OFFCURVE",
"154 262 CURVE SMOOTH",
"154 254 OFFCURVE",
"148 249 OFFCURVE",
"140 249 CURVE SMOOTH",
"54 249 LINE SMOOTH",
"47 249 OFFCURVE",
"41 254 OFFCURVE",
"41 262 CURVE SMOOTH"
);
}
);
width = 600;
}
);
unicode = 00A5;
},
{
glyphname = asciitilde;
lastChange = "2013-04-09 19:50:35 -0300";
layers = (
{
layerId = "2B2FE4A8-39A2-493B-A970-B9343EE81639";
name = Regular;
paths = (
{
closed = 1;
nodes = (
"377 356 OFFCURVE",
"362 347 OFFCURVE",
"351 337 CURVE SMOOTH",
"114 99 LINE SMOOTH",
"104 89 OFFCURVE",
"95 74 OFFCURVE",
"119 50 CURVE SMOOTH",
"144 24 OFFCURVE",
"159 33 OFFCURVE",
"169 43 CURVE SMOOTH",
"407 282 LINE SMOOTH",
"417 292 OFFCURVE",
"426 306 OFFCURVE",
"401 331 CURVE SMOOTH"
);
},
{
closed = 1;
nodes = (
"155 58 OFFCURVE",
"146 60 OFFCURVE",
"138 68 CURVE SMOOTH",
"129 76 OFFCURVE",
"128 85 OFFCURVE",
"128 85 CURVE",
"163 121 LINE",
"164 116 OFFCURVE",
"167 110 OFFCURVE",
"173 102 CURVE SMOOTH",
"179 96 OFFCURVE",
"187 94 OFFCURVE",
"191 93 CURVE",
"155 58 LINE"
);
},
{
closed = 1;
nodes = (
"349 256 OFFCURVE",
"341 258 OFFCURVE",
"335 265 CURVE SMOOTH",
"329 272 OFFCURVE",
"326 278 OFFCURVE",
"325 282 CURVE",
"366 322 LINE",
"366 322 OFFCURVE",
"375 321 OFFCURVE",
"383 312 CURVE SMOOTH",
"391 304 OFFCURVE",
"393 295 OFFCURVE",
"393 295 CURVE",
"353 255 LINE"
);
},
{
closed = 1;
nodes = (
"441 462 OFFCURVE",
"442 457 OFFCURVE",
"444 455 CURVE SMOOTH",
"468 436 LINE SMOOTH",
"471 433 OFFCURVE",
"470 431 OFFCURVE",
"467 431 CURVE SMOOTH",
"436 427 LINE SMOOTH",
"433 426 OFFCURVE",
"430 423 OFFCURVE",
"429 420 CURVE SMOOTH",
"424 390 LINE SMOOTH",
"424 386 OFFCURVE",
"421 386 OFFCURVE",
"419 388 CURVE SMOOTH",
"400 413 LINE SMOOTH",
"398 415 OFFCURVE",
"394 417 OFFCURVE",
"391 415 CURVE SMOOTH",
"362 405 LINE SMOOTH",
"359 404 OFFCURVE",
"358 405 OFFCURVE",
"359 408 CURVE SMOOTH",
"371 437 LINE SMOOTH",
"372 440 OFFCURVE",
"371 444 OFFCURVE",
"368 446 CURVE SMOOTH",
"345 466 LINE SMOOTH",
"342 468 OFFCURVE",
"343 470 OFFCURVE",
"346 470 CURVE SMOOTH",
"376 475 LINE SMOOTH",
"380 475 OFFCURVE",
"383 478 OFFCURVE",
"383 481 CURVE SMOOTH",
"388 512 LINE SMOOTH",
"389 515 OFFCURVE",
"391 515 OFFCURVE",
"393 513 CURVE SMOOTH",
"412 488 LINE SMOOTH",
"414 486 OFFCURVE",
"418 485 OFFCURVE",
"421 486 CURVE SMOOTH",
"450 497 LINE SMOOTH",
"453 498 OFFCURVE",
"455 496 OFFCURVE",
"454 493 CURVE SMOOTH",
"442 465 LINE SMOOTH"
);
},
{
closed = 1;
nodes = (
"533 439 OFFCURVE",
"534 435 OFFCURVE",
"536 432 CURVE SMOOTH",
"542 425 LINE SMOOTH",
"544 423 OFFCURVE",
"543 421 OFFCURVE",
"540 421 CURVE SMOOTH",
"530 421 LINE SMOOTH",
"527 421 OFFCURVE",
"523 419 OFFCURVE",
"522 416 CURVE SMOOTH",
"519 407 LINE SMOOTH",
"518 404 OFFCURVE",
"516 404 OFFCURVE",
"514 406 CURVE SMOOTH",
"510 415 LINE SMOOTH",
"508 418 OFFCURVE",
"504 420 OFFCURVE",
"501 419 CURVE SMOOTH",
"492 417 LINE SMOOTH",
"489 417 OFFCURVE",
"487 419 OFFCURVE",
"489 421 CURVE SMOOTH",
"494 429 LINE SMOOTH",
"496 432 OFFCURVE",
"496 437 OFFCURVE",
"494 439 CURVE SMOOTH",
"487 446 LINE SMOOTH",
"485 449 OFFCURVE",
"486 451 OFFCURVE",
"489 451 CURVE SMOOTH",
"499 450 LINE SMOOTH",
"502 450 OFFCURVE",
"506 453 OFFCURVE",
"507 456 CURVE SMOOTH",
"510 465 LINE SMOOTH",
"511 468 OFFCURVE",
"513 468 OFFCURVE",
"515 465 CURVE SMOOTH",
"519 457 LINE SMOOTH",
"521 454 OFFCURVE",
"525 452 OFFCURVE",
"528 452 CURVE SMOOTH",
"538 454 LINE SMOOTH",
"541 455 OFFCURVE",
"542 453 OFFCURVE",
"540 450 CURVE SMOOTH",
"535 442 LINE SMOOTH"
);
}
);
width = 600;
}
);
unicode = 007E;
},
{
glyphname = plusminus;
layers = (
{
layerId = "2B2FE4A8-39A2-493B-A970-B9343EE81639";
name = Regular;
paths = (
{
closed = 1;
nodes = (
"525 404 OFFCURVE",
"521 400 OFFCURVE",
"515 400 CURVE SMOOTH",
"85 400 LINE SMOOTH",
"79 400 OFFCURVE",
"75 404 OFFCURVE",
"75 410 CURVE SMOOTH",
"75 490 LINE SMOOTH",
"75 496 OFFCURVE",
"79 500 OFFCURVE",
"85 500 CURVE SMOOTH",
"515 500 LINE SMOOTH",
"521 500 OFFCURVE",
"525 496 OFFCURVE",
"525 490 CURVE SMOOTH",
"525 410 LINE SMOOTH"
);
},
{
closed = 1;
nodes = (
"427 0 OFFCURVE",
"421 7 OFFCURVE",
"421 14 CURVE SMOOTH",
"421 193 LINE SMOOTH",
"421 201 OFFCURVE",
"427 207 OFFCURVE",
"435 207 CURVE SMOOTH",
"507 207 LINE SMOOTH",
"515 207 OFFCURVE",
"521 201 OFFCURVE",
"521 193 CURVE SMOOTH",
"521 14 LINE SMOOTH",
"521 7 OFFCURVE",
"515 0 OFFCURVE",
"507 0 CURVE SMOOTH",
"435 0 LINE SMOOTH"
);
},
{
closed = 1;
nodes = (
"427 250 OFFCURVE",
"421 256 OFFCURVE",
"421 264 CURVE SMOOTH",
"421 336 LINE SMOOTH",
"421 344 OFFCURVE",
"427 350 OFFCURVE",
"435 350 CURVE SMOOTH",
"507 350 LINE SMOOTH",
"515 350 OFFCURVE",
"521 344 OFFCURVE",
"521 336 CURVE SMOOTH",
"521 264 LINE SMOOTH",
"521 256 OFFCURVE",
"515 250 OFFCURVE",
"507 250 CURVE SMOOTH",
"435 250 LINE SMOOTH"
);
},
{
closed = 1;
nodes = (
"255 0 OFFCURVE",
"248 6 OFFCURVE",
"248 14 CURVE SMOOTH",
"248 193 LINE SMOOTH",
"248 201 OFFCURVE",
"255 207 OFFCURVE",
"262 207 CURVE SMOOTH",
"334 207 LINE SMOOTH",
"342 207 OFFCURVE",
"348 201 OFFCURVE",
"348 193 CURVE SMOOTH",
"348 14 LINE SMOOTH",
"348 6 OFFCURVE",
"342 0 OFFCURVE",
"334 0 CURVE SMOOTH",
"262 0 LINE SMOOTH"
);
},
{
closed = 1;
nodes = (
"255 250 OFFCURVE",
"248 256 OFFCURVE",
"248 264 CURVE SMOOTH",
"248 336 LINE SMOOTH",
"248 343 OFFCURVE",
"255 350 OFFCURVE",
"262 350 CURVE SMOOTH",
"334 350 LINE SMOOTH",
"342 350 OFFCURVE",
"348 343 OFFCURVE",
"348 336 CURVE SMOOTH",
"348 264 LINE SMOOTH",
"348 256 OFFCURVE",
"342 250 OFFCURVE",
"334 250 CURVE SMOOTH",
"262 250 LINE SMOOTH"
);
},
{
closed = 1;
nodes = (
"82 0 OFFCURVE",
"75 6 OFFCURVE",
"75 14 CURVE SMOOTH",
"75 193 LINE SMOOTH",
"75 201 OFFCURVE",
"82 207 OFFCURVE",
"90 207 CURVE SMOOTH",
"161 207 LINE SMOOTH",
"169 207 OFFCURVE",
"175 201 OFFCURVE",
"175 193 CURVE SMOOTH",
"175 14 LINE SMOOTH",
"175 6 OFFCURVE",
"169 0 OFFCURVE",
"161 0 CURVE SMOOTH",
"90 0 LINE SMOOTH"
);
},
{
closed = 1;
nodes = (
"82 250 OFFCURVE",
"75 256 OFFCURVE",
"75 264 CURVE SMOOTH",
"75 336 LINE SMOOTH",
"75 343 OFFCURVE",
"82 350 OFFCURVE",
"90 350 CURVE SMOOTH",
"161 350 LINE SMOOTH",
"169 350 OFFCURVE",
"175 343 OFFCURVE",
"175 336 CURVE SMOOTH",
"175 264 LINE SMOOTH",
"175 256 OFFCURVE",
"169 250 OFFCURVE",
"161 250 CURVE SMOOTH",
"90 250 LINE SMOOTH"
);
}
);
width = 600;
}
);
unicode = 00B1;
},
{
glyphname = copyright;
lastChange = "2013-01-22 14:17:51 -0300";
layers = (
{
layerId = "2B2FE4A8-39A2-493B-A970-B9343EE81639";
name = Regular;
paths = (
{
closed = 1;
nodes = (
"502 500 OFFCURVE",
"301 500 OFFCURVE",
"301 500 CURVE SMOOTH",
"301 500 OFFCURVE",
"100 500 OFFCURVE",
"93 500 CURVE SMOOTH",
"73 500 OFFCURVE",
"59 474 OFFCURVE",
"70 454 CURVE",
"75 447 OFFCURVE",
"192 285 OFFCURVE",
"255 191 CURVE",
"255 34 LINE SMOOTH",
"255 22 OFFCURVE",
"264 0 OFFCURVE",
"275 0 CURVE SMOOTH",
"301 0 LINE",
"327 0 LINE SMOOTH",
"338 0 OFFCURVE",
"347 22 OFFCURVE",
"347 34 CURVE SMOOTH",
"347 191 LINE",
"410 285 OFFCURVE",
"527 447 OFFCURVE",
"532 454 CURVE",
"543 474 OFFCURVE",
"529 500 OFFCURVE",
"509 500 CURVE SMOOTH"
);
},
{
closed = 1;
nodes = (
"425 430 OFFCURVE",
"187 429 OFFCURVE",
"158 442 CURVE",
"152 444 OFFCURVE",
"147 449 OFFCURVE",
"147 456 CURVE SMOOTH",
"147 464 OFFCURVE",
"154 470 OFFCURVE",
"162 470 CURVE SMOOTH",
"441 470 LINE SMOOTH",
"448 470 OFFCURVE",
"455 464 OFFCURVE",
"455 456 CURVE SMOOTH",
"455 450 OFFCURVE",
"452 445 OFFCURVE",
"447 443 CURVE"
);
}
);
width = 600;
}
);
unicode = 00A9;
},
{
glyphname = paragraph;
lastChange = "2013-04-11 16:22:42 -0300";
layers = (
{
layerId = "2B2FE4A8-39A2-493B-A970-B9343EE81639";
name = Regular;
paths = (
{
closed = 1;
nodes = (
"145 197 LINE",
"278 107 LINE",
"455 227 LINE",
"529 177 LINE",
"278 0 LINE",
"72 145 LINE"
);
},
{
closed = 1;
nodes = (
"278 250 LINE",
"422 352 LINE",
"489 304 LINE",
"278 155 LINE",
"112 272 LINE",
"180 320 LINE"
);
},
{
closed = 1;
nodes = (
"284 500 LINE",
"132 393 LINE",
"278 290 LINE",
"469 425 LINE",
"363 500 LINE"
);
},
{
closed = 1;
nodes = (
"185 396 LINE",
"198 405 LINE",
"291 339 LINE",
"278 330 LINE"
);
},
{
closed = 1;
nodes = (
"220 423 LINE",
"233 431 LINE",
"326 366 LINE",
"314 357 LINE"
);
},
{
closed = 1;
nodes = (
"256 449 LINE",
"268 458 LINE",
"361 393 LINE",
"349 384 LINE"
);
}
);
width = 600;
}
);
unicode = 00B6;
},
{
glyphname = registered;
lastChange = "2013-03-08 18:16:09 -0300";
layers = (
{
layerId = "2B2FE4A8-39A2-493B-A970-B9343EE81639";
name = Regular;
paths = (
{
closed = 1;
nodes = (
"268 182 OFFCURVE",
"239 154 OFFCURVE",
"239 119 CURVE SMOOTH",
"239 85 OFFCURVE",
"268 57 OFFCURVE",
"302 57 CURVE SMOOTH",
"337 57 OFFCURVE",
"364 85 OFFCURVE",
"364 119 CURVE SMOOTH",
"364 154 OFFCURVE",
"337 182 OFFCURVE",
"302 182 CURVE SMOOTH"
);
},
{
closed = 1;
nodes = (
"163 500 OFFCURVE",
"50 388 OFFCURVE",
"50 250 CURVE SMOOTH",
"50 113 OFFCURVE",
"163 1 OFFCURVE",
"299 0 CURVE",
"231 1 OFFCURVE",
"175 58 OFFCURVE",
"175 125 CURVE SMOOTH",
"175 194 OFFCURVE",
"231 250 OFFCURVE",
"300 250 CURVE SMOOTH",
"369 250 OFFCURVE",
"425 306 OFFCURVE",
"425 375 CURVE SMOOTH",
"425 444 OFFCURVE",
"369 500 OFFCURVE",
"300 500 CURVE SMOOTH"
);
},
{
closed = 1;
nodes = (
"265 313 OFFCURVE",
"238 340 OFFCURVE",
"238 375 CURVE SMOOTH",
"238 410 OFFCURVE",
"265 438 OFFCURVE",
"300 438 CURVE SMOOTH",
"335 438 OFFCURVE",
"363 410 OFFCURVE",
"363 375 CURVE SMOOTH",
"363 340 OFFCURVE",
"335 313 OFFCURVE",
"300 313 CURVE SMOOTH"
);
},
{
closed = 1;
nodes = (
"329 176 OFFCURVE",
"332 174 OFFCURVE",
"335 173 CURVE",
"335 255 LINE",
"332 254 OFFCURVE",
"329 253 OFFCURVE",
"326 252 CURVE",
"326 177 LINE"
);
},
{
closed = 1;
nodes = (
"320 251 LINE",
"317 251 OFFCURVE",
"314 251 OFFCURVE",
"311 250 CURVE",
"311 182 LINE",
"314 181 OFFCURVE",
"317 181 OFFCURVE",
"320 180 CURVE"
);
},
{
closed = 1;
nodes = (
"314 499 OFFCURVE",
"317 499 OFFCURVE",
"320 499 CURVE",
"320 499 LINE",
"317 500 OFFCURVE",
"314 500 OFFCURVE",
"311 500 CURVE"
);
},
{
closed = 1;
nodes = (
"329 497 OFFCURVE",
"332 496 OFFCURVE",
"335 495 CURVE",
"335 498 LINE",
"332 498 OFFCURVE",
"329 498 OFFCURVE",
"326 499 CURVE",
"326 498 LINE"
);
},
{
closed = 1;
nodes = (
"332 66 OFFCURVE",
"329 64 OFFCURVE",
"326 63 CURVE",
"326 1 LINE",
"329 1 OFFCURVE",
"332 2 OFFCURVE",
"335 2 CURVE",
"335 67 LINE"
);
},
{
closed = 1;
nodes = (
"362 266 OFFCURVE",
"359 264 OFFCURVE",
"356 263 CURVE",
"356 150 LINE",
"361 141 OFFCURVE",
"364 131 OFFCURVE",
"364 120 CURVE SMOOTH",
"364 109 OFFCURVE",
"361 99 OFFCURVE",
"356 90 CURVE",
"356 6 LINE",
"359 7 OFFCURVE",
"362 7 OFFCURVE",
"365 8 CURVE",
"365 267 LINE"
);
},
{
closed = 1;
nodes = (
"320 60 LINE",
"317 59 OFFCURVE",
"314 59 OFFCURVE",
"311 58 CURVE",
"311 0 LINE",
"314 0 OFFCURVE",
"317 0 OFFCURVE",
"320 1 CURVE"
);
},
{
closed = 1;
nodes = (
"347 78 OFFCURVE",
"344 75 OFFCURVE",
"341 72 CURVE",
"341 3 LINE",
"344 4 OFFCURVE",
"347 4 OFFCURVE",
"350 5 CURVE",
"350 81 LINE"
);
},
{
closed = 1;
nodes = (
"350 260 LINE",
"347 259 OFFCURVE",
"344 258 OFFCURVE",
"341 257 CURVE",
"341 168 LINE",
"344 165 OFFCURVE",
"347 162 OFFCURVE",
"350 159 CURVE"
);
},
{
closed = 1;
nodes = (
"344 492 OFFCURVE",
"347 491 OFFCURVE",
"350 490 CURVE",
"350 495 LINE",
"347 496 OFFCURVE",
"344 496 OFFCURVE",
"341 497 CURVE",
"341 493 LINE"
);
},
{
closed = 1;
nodes = (
"420 414 OFFCURVE",
"423 404 OFFCURVE",
"425 393 CURVE",
"425 467 LINE",
"422 469 OFFCURVE",
"419 470 OFFCURVE",
"416 472 CURVE",
"416 424 LINE"
);
},
{
closed = 1;
nodes = (
"527 357 OFFCURVE",
"524 363 OFFCURVE",
"521 369 CURVE",
"521 131 LINE",
"524 137 OFFCURVE",
"527 143 OFFCURVE",
"530 149 CURVE",
"530 351 LINE"
);
},
{
closed = 1;
nodes = (
"542 316 OFFCURVE",
"540 326 OFFCURVE",
"536 335 CURVE",
"536 165 LINE",
"540 174 OFFCURVE",
"542 184 OFFCURVE",
"545 194 CURVE",
"545 306 LINE"
);
},
{
closed = 1;
nodes = (
"512 384 OFFCURVE",
"509 389 OFFCURVE",
"506 393 CURVE",
"506 107 LINE",
"509 111 OFFCURVE",
"512 116 OFFCURVE",
"515 120 CURVE",
"515 380 LINE"
);
},
{
closed = 1;
nodes = (
"494 91 OFFCURVE",
"497 95 OFFCURVE",
"500 98 CURVE",
"500 402 LINE",
"497 405 OFFCURVE",
"494 409 OFFCURVE",
"491 412 CURVE",
"491 88 LINE"
);
},
{
closed = 1;
nodes = (
"389 464 OFFCURVE",
"392 461 OFFCURVE",
"395 458 CURVE",
"395 482 LINE",
"392 483 OFFCURVE",
"389 484 OFFCURVE",
"386 485 CURVE",
"386 467 LINE"
);
},
{
closed = 1;
nodes = (
"404 446 OFFCURVE",
"407 441 OFFCURVE",
"410 437 CURVE",
"410 475 LINE",
"407 477 OFFCURVE",
"404 478 OFFCURVE",
"401 479 CURVE",
"401 450 LINE"
);
},
{
closed = 1;
nodes = (
"374 477 OFFCURVE",
"377 474 OFFCURVE",
"380 472 CURVE",
"380 487 LINE",
"377 488 OFFCURVE",
"374 489 OFFCURVE",
"371 490 CURVE",
"371 479 LINE"
);
},
{
closed = 1;
nodes = (
"359 486 OFFCURVE",
"362 484 OFFCURVE",
"365 483 CURVE",
"365 492 LINE",
"362 493 OFFCURVE",
"359 493 OFFCURVE",
"356 494 CURVE",
"356 487 LINE"
);
},
{
closed = 1;
nodes = (
"377 276 OFFCURVE",
"374 273 OFFCURVE",
"371 271 CURVE",
"371 10 LINE",
"374 11 OFFCURVE",
"377 12 OFFCURVE",
"380 13 CURVE",
"380 278 LINE"
);
},
{
closed = 1;
nodes = (
"437 460 OFFCURVE",
"434 462 OFFCURVE",
"431 464 CURVE",
"431 36 LINE",
"434 38 OFFCURVE",
"437 40 OFFCURVE",
"440 42 CURVE",
"440 458 LINE"
);
},
{
closed = 1;
nodes = (
"287 59 OFFCURVE",
"284 60 OFFCURVE",
"281 61 CURVE",
"281 2 LINE",
"284 1 OFFCURVE",
"287 1 OFFCURVE",
"290 0 CURVE",
"290 58 LINE"
);
},
{
closed = 1;
nodes = (
"194 61 OFFCURVE",
"197 56 OFFCURVE",
"200 52 CURVE",
"200 198 LINE",
"197 194 OFFCURVE",
"194 189 OFFCURVE",
"191 184 CURVE",
"191 66 LINE"
);
},
{
closed = 1;
nodes = (
"281 179 LINE",
"284 180 OFFCURVE",
"287 181 OFFCURVE",
"290 181 CURVE",
"290 249 LINE",
"287 249 OFFCURVE",
"284 249 OFFCURVE",
"281 248 CURVE"
);
},
{
closed = 1;
nodes = (
"257 76 OFFCURVE",
"254 79 OFFCURVE",
"251 82 CURVE",
"251 10 LINE",
"254 9 OFFCURVE",
"257 8 OFFCURVE",
"260 7 CURVE",
"260 73 LINE"
);
},
{
closed = 1;
nodes = (
"272 65 OFFCURVE",
"269 66 OFFCURVE",
"266 68 CURVE",
"266 5 LINE",
"269 4 OFFCURVE",
"272 3 OFFCURVE",
"275 3 CURVE",
"275 63 LINE"
);
},
{
closed = 1;
nodes = (
"212 213 OFFCURVE",
"209 209 OFFCURVE",
"206 206 CURVE",
"206 44 LINE",
"209 41 OFFCURVE",
"212 37 OFFCURVE",
"215 34 CURVE",
"215 215 LINE"
);
},
{
closed = 1;
nodes = (
"304 58 OFFCURVE",
"302 57 OFFCURVE",
"301 57 CURVE SMOOTH",
"299 57 OFFCURVE",
"298 58 OFFCURVE",
"296 58 CURVE",
"296 0 LINE",
"298 0 OFFCURVE",
"299 0 OFFCURVE",
"301 0 CURVE SMOOTH",
"302 0 OFFCURVE",
"304 0 OFFCURVE",
"305 0 CURVE",
"305 58 LINE"
);
},
{
closed = 1;
nodes = (
"179 157 OFFCURVE",
"176 141 OFFCURVE",
"176 125 CURVE SMOOTH",
"176 109 OFFCURVE",
"179 93 OFFCURVE",
"185 79 CURVE",
"185 171 LINE"
);
},
{
closed = 1;
nodes = (
"482 423 OFFCURVE",
"479 426 OFFCURVE",
"476 429 CURVE",
"476 71 LINE",
"479 74 OFFCURVE",
"482 77 OFFCURVE",
"485 80 CURVE",
"485 419 LINE"
);
},
{
closed = 1;
nodes = (
"272 247 OFFCURVE",
"269 246 OFFCURVE",
"266 245 CURVE",
"266 172 LINE",
"269 174 OFFCURVE",
"272 175 OFFCURVE",
"275 177 CURVE",
"275 247 LINE"
);
},
{
closed = 1;
nodes = (
"452 449 OFFCURVE",
"449 452 OFFCURVE",
"446 454 CURVE",
"446 46 LINE",
"449 48 OFFCURVE",
"452 51 OFFCURVE",
"455 53 CURVE",
"455 447 LINE"
);
},
{
closed = 1;
nodes = (
"392 289 OFFCURVE",
"389 286 OFFCURVE",
"386 283 CURVE",
"386 15 LINE",
"389 16 OFFCURVE",
"392 17 OFFCURVE",
"395 18 CURVE",
"395 292 LINE"
);
},
{
closed = 1;
nodes = (
"423 346 OFFCURVE",
"420 336 OFFCURVE",
"416 326 CURVE",
"416 28 LINE",
"419 29 OFFCURVE",
"422 31 OFFCURVE",
"425 33 CURVE",
"425 357 LINE"
);
},
{
closed = 1;
nodes = (
"467 437 OFFCURVE",
"464 440 OFFCURVE",
"461 442 CURVE",
"461 58 LINE",
"464 60 OFFCURVE",
"467 63 OFFCURVE",
"470 66 CURVE",
"470 434 LINE"
);
},
{
closed = 1;
nodes = (
"254 161 OFFCURVE",
"257 164 OFFCURVE",
"260 167 CURVE",
"260 243 LINE",
"257 242 OFFCURVE",
"254 241 OFFCURVE",
"251 240 CURVE",
"251 157 LINE"
);
},
{
closed = 1;
nodes = (
"407 309 OFFCURVE",
"404 304 OFFCURVE",
"401 300 CURVE",
"401 21 LINE",
"404 22 OFFCURVE",
"407 23 OFFCURVE",
"410 25 CURVE",
"410 313 LINE"
);
},
{
closed = 1;
nodes = (
"241 101 OFFCURVE",
"239 110 OFFCURVE",
"239 120 CURVE SMOOTH",
"239 130 OFFCURVE",
"241 139 OFFCURVE",
"245 147 CURVE",
"245 237 LINE",
"242 235 OFFCURVE",
"239 234 OFFCURVE",
"236 232 CURVE",
"236 18 LINE",
"239 16 OFFCURVE",
"242 15 OFFCURVE",
"245 13 CURVE",
"245 93 LINE"
);
},
{
closed = 1;
nodes = (
"224 27 OFFCURVE",
"227 24 OFFCURVE",
"230 22 CURVE",
"230 228 LINE",
"227 226 OFFCURVE",
"224 223 OFFCURVE",
"221 221 CURVE",
"221 29 LINE"
);
},
{
closed = 1;
nodes = (
"305 500 OFFCURVE",
"304 500 OFFCURVE",
"304 500 CURVE SMOOTH",
"304 500 OFFCURVE",
"305 500 OFFCURVE",
"305 500 CURVE SMOOTH"
);
},
{
closed = 1;
nodes = (
"298 182 OFFCURVE",
"299 182 OFFCURVE",
"301 182 CURVE SMOOTH",
"302 182 OFFCURVE",
"304 182 OFFCURVE",
"305 182 CURVE",
"305 250 LINE",
"304 250 OFFCURVE",
"302 250 OFFCURVE",
"301 250 CURVE SMOOTH",
"299 250 OFFCURVE",
"298 250 OFFCURVE",
"296 250 CURVE",
"296 182 LINE"
);
},
{
closed = 1;
nodes = (
"287 434 OFFCURVE",
"285 433 OFFCURVE",
"283 433 CURVE",
"283 317 LINE",
"285 317 OFFCURVE",
"287 316 OFFCURVE",
"288 316 CURVE",
"288 434 LINE"
);
},
{
closed = 1;
nodes = (
"273 427 OFFCURVE",
"271 426 OFFCURVE",
"267 425 CURVE",
"267 325 LINE",
"271 324 OFFCURVE",
"273 323 OFFCURVE",
"274 322 CURVE",
"274 430 LINE"
);
},
{
closed = 1;
nodes = (
"244 400 LINE",
"242 391 OFFCURVE",
"240 384 OFFCURVE",
"240 375 CURVE SMOOTH",
"240 366 OFFCURVE",
"242 359 OFFCURVE",
"244 350 CURVE"
);
},
{
closed = 1;
nodes = (
"260 420 LINE",
"259 419 OFFCURVE",
"255 415 OFFCURVE",
"253 413 CURVE",
"253 337 LINE",
"255 335 OFFCURVE",
"259 334 OFFCURVE",
"260 330 CURVE"
);
},
{
closed = 1;
nodes = (
"302 435 LINE",
"302 435 OFFCURVE",
"301 435 OFFCURVE",
"300 435 CURVE SMOOTH",
"299 435 OFFCURVE",
"298 435 OFFCURVE",
"297 435 CURVE",
"297 315 LINE",
"298 315 OFFCURVE",
"299 315 OFFCURVE",
"300 315 CURVE SMOOTH",
"301 315 OFFCURVE",
"302 315 OFFCURVE",
"302 315 CURVE"
);
},
{
closed = 1;
nodes = (
"315 433 OFFCURVE",
"313 434 OFFCURVE",
"311 434 CURVE",
"311 316 LINE",
"313 316 OFFCURVE",
"315 317 OFFCURVE",
"316 317 CURVE",
"316 433 LINE"
);
},
{
closed = 1;
nodes = (
"355 350 LINE",
"358 359 OFFCURVE",
"360 366 OFFCURVE",
"360 375 CURVE SMOOTH",
"360 384 OFFCURVE",
"358 391 OFFCURVE",
"355 400 CURVE"
);
},
{
closed = 1;
nodes = (
"346 413 LINE",
"345 415 OFFCURVE",
"343 419 OFFCURVE",
"339 420 CURVE",
"339 330 LINE",
"343 334 OFFCURVE",
"345 335 OFFCURVE",
"346 337 CURVE"
);
},
{
closed = 1;
nodes = (
"331 426 OFFCURVE",
"327 427 OFFCURVE",
"325 430 CURVE",
"325 322 LINE",
"327 323 OFFCURVE",
"331 324 OFFCURVE",
"332 325 CURVE",
"332 425 LINE"
);
}
);
width = 600;
}
);
unicode = 00AE;
},
